G04 (created by PCBNEW (2013-07-07 BZR 4022)-stable) date 12/18/2014 2:32:47 AM*
%MOIN*%
G04 Gerber Fmt 3.4, Leading zero omitted, Abs format*
%FSLAX34Y34*%
G01*
G70*
G90*
G04 APERTURE LIST*
%ADD10C,0.00590551*%
%ADD11R,0.05X0.025*%
%ADD12R,0.035X0.055*%
%ADD13R,0.055X0.035*%
%ADD14R,0.0118X0.0402*%
%ADD15C,0.0700787*%
%ADD16R,0.12X0.065*%
%ADD17R,0.24X0.24*%
%ADD18R,0.065X0.12*%
%ADD19R,0.063X0.0866*%
%ADD20R,0.0866X0.063*%
%ADD21O,0.06X0.1*%
%ADD22C,0.0590551*%
%ADD23C,0.11811*%
%ADD24R,0.0394X0.0591*%
%ADD25R,0.0787X0.1181*%
%ADD26C,0.035*%
%ADD27C,0.007*%
%ADD28C,0.01*%
%ADD29C,0.015*%
G04 APERTURE END LIST*
G54D10*
G54D11*
X83290Y-29420D03*
X83290Y-28920D03*
X83290Y-28420D03*
X83290Y-27920D03*
X81090Y-27920D03*
X81090Y-28420D03*
X81090Y-28920D03*
X81090Y-29420D03*
G54D12*
X78925Y-35750D03*
X78175Y-35750D03*
X81925Y-40350D03*
X81175Y-40350D03*
X83575Y-36950D03*
X84325Y-36950D03*
G54D13*
X78498Y-40527D03*
X78498Y-39777D03*
G54D12*
X84125Y-38150D03*
X83375Y-38150D03*
G54D13*
X83750Y-39725D03*
X83750Y-38975D03*
G54D12*
X80975Y-35350D03*
X81725Y-35350D03*
X86375Y-29400D03*
X85625Y-29400D03*
G54D13*
X69140Y-41965D03*
X69140Y-42715D03*
X68100Y-42035D03*
X68100Y-42785D03*
X71900Y-43115D03*
X71900Y-43865D03*
G54D12*
X63585Y-42380D03*
X64335Y-42380D03*
X66885Y-42450D03*
X66135Y-42450D03*
G54D13*
X86600Y-30425D03*
X86600Y-31175D03*
X85200Y-31175D03*
X85200Y-30425D03*
X77406Y-38883D03*
X77406Y-38133D03*
G54D12*
X68815Y-28070D03*
X68065Y-28070D03*
G54D13*
X72430Y-32785D03*
X72430Y-33535D03*
G54D12*
X85065Y-43860D03*
X85815Y-43860D03*
G54D13*
X86710Y-42855D03*
X86710Y-43605D03*
G54D12*
X78354Y-33287D03*
X77604Y-33287D03*
X78925Y-37750D03*
X78175Y-37750D03*
X78175Y-38750D03*
X78925Y-38750D03*
X78925Y-36750D03*
X78175Y-36750D03*
X75725Y-38150D03*
X74975Y-38150D03*
G54D13*
X72320Y-37135D03*
X72320Y-37885D03*
G54D12*
X87795Y-35780D03*
X88545Y-35780D03*
X80525Y-41350D03*
X79775Y-41350D03*
G54D14*
X85584Y-40784D03*
X85387Y-40784D03*
X85190Y-40784D03*
X84993Y-40784D03*
X84796Y-40784D03*
X84796Y-42596D03*
X84993Y-42596D03*
X85190Y-42596D03*
X85387Y-42596D03*
X85584Y-42596D03*
G54D11*
X80250Y-36450D03*
X80250Y-36950D03*
X80250Y-37450D03*
X80250Y-37950D03*
X80250Y-38450D03*
X80250Y-38950D03*
X80250Y-39450D03*
X82450Y-39450D03*
X82450Y-38950D03*
X82450Y-38450D03*
X82450Y-37950D03*
X82450Y-37450D03*
X82450Y-36950D03*
X82450Y-36450D03*
G54D15*
X63000Y-39800D03*
X62990Y-38806D03*
X62990Y-37802D03*
X62990Y-36798D03*
X62990Y-35794D03*
X62990Y-34790D03*
X92400Y-35800D03*
X92400Y-34796D03*
G54D16*
X70800Y-38300D03*
G54D17*
X68300Y-37400D03*
G54D16*
X70800Y-36500D03*
X70820Y-33480D03*
G54D17*
X68320Y-32580D03*
G54D16*
X70820Y-31680D03*
G54D18*
X65100Y-27400D03*
G54D17*
X64200Y-29900D03*
G54D18*
X63300Y-27400D03*
G54D19*
X84498Y-35150D03*
X83002Y-35150D03*
X82447Y-32874D03*
X83943Y-32874D03*
X76098Y-40150D03*
X74602Y-40150D03*
X74802Y-36150D03*
X76298Y-36150D03*
G54D20*
X65210Y-39198D03*
X65210Y-37702D03*
X65210Y-34872D03*
X65210Y-36368D03*
G54D19*
X64618Y-33020D03*
X63122Y-33020D03*
G54D21*
X78400Y-26000D03*
X77400Y-26000D03*
X76400Y-26000D03*
X75400Y-26000D03*
X74400Y-26000D03*
X73400Y-26000D03*
X72400Y-26000D03*
X71400Y-26000D03*
X76000Y-45000D03*
X75000Y-45000D03*
X74000Y-45000D03*
X73000Y-45000D03*
X77000Y-45000D03*
X78000Y-45000D03*
X79000Y-45000D03*
X80000Y-45000D03*
X82000Y-45000D03*
X83000Y-45000D03*
X84000Y-45000D03*
X85000Y-45000D03*
X86000Y-45000D03*
X87000Y-45000D03*
X87000Y-26000D03*
X86000Y-26000D03*
X85000Y-26000D03*
X84000Y-26000D03*
X83000Y-26000D03*
X82000Y-26000D03*
X81000Y-26000D03*
X80000Y-26000D03*
G54D22*
X89054Y-30477D03*
X89073Y-31815D03*
G54D23*
X91078Y-29509D03*
X91056Y-31797D03*
G54D22*
X89054Y-40277D03*
X89073Y-41615D03*
G54D23*
X91078Y-39309D03*
X91056Y-41597D03*
G54D12*
X80765Y-30180D03*
X80015Y-30180D03*
G54D24*
X70199Y-41979D03*
X70790Y-41979D03*
X71381Y-41979D03*
G54D25*
X70790Y-40817D03*
G54D10*
G36*
X71184Y-41397D02*
X70987Y-41692D01*
X70593Y-41692D01*
X70396Y-41397D01*
X71184Y-41397D01*
X71184Y-41397D01*
G37*
G54D26*
X80940Y-37020D03*
X84430Y-40234D03*
X79290Y-29310D03*
X84960Y-39838D03*
X78156Y-35168D03*
X76520Y-33440D03*
X70880Y-30500D03*
X83070Y-37570D03*
X85380Y-40152D03*
X86900Y-35728D03*
X85515Y-28070D03*
X70800Y-43100D03*
X69680Y-40940D03*
X70820Y-35440D03*
X64130Y-27360D03*
X84440Y-43840D03*
X72600Y-39860D03*
X81030Y-39480D03*
X79470Y-34140D03*
X77206Y-35520D03*
X85996Y-38356D03*
X84870Y-43230D03*
G54D27*
X84050Y-42340D02*
X84270Y-42280D01*
X85387Y-41313D02*
X85387Y-40784D01*
X85220Y-41480D02*
X85387Y-41313D01*
X85070Y-41480D02*
X85220Y-41480D01*
X84270Y-42280D02*
X85070Y-41480D01*
X85000Y-44800D02*
X85000Y-45000D01*
X84050Y-44070D02*
X85000Y-44800D01*
X84050Y-42320D02*
X84050Y-42340D01*
X84050Y-42340D02*
X84050Y-44070D01*
G54D28*
X72320Y-37135D02*
X72320Y-35720D01*
X80000Y-28040D02*
X80000Y-26000D01*
X72320Y-35720D02*
X80000Y-28040D01*
X72430Y-32785D02*
X72505Y-32785D01*
X78400Y-26890D02*
X78400Y-26000D01*
X72505Y-32785D02*
X78400Y-26890D01*
X68815Y-28070D02*
X75900Y-28070D01*
X77400Y-26570D02*
X77400Y-26000D01*
X75900Y-28070D02*
X77400Y-26570D01*
G54D27*
X85584Y-42596D02*
X85866Y-42596D01*
X86315Y-43605D02*
X86710Y-43605D01*
X86210Y-43500D02*
X86315Y-43605D01*
X86210Y-42940D02*
X86210Y-43500D01*
X85866Y-42596D02*
X86210Y-42940D01*
G54D28*
X86710Y-43605D02*
X86710Y-43890D01*
X87000Y-44180D02*
X87000Y-45000D01*
X86710Y-43890D02*
X87000Y-44180D01*
G54D27*
X85387Y-42596D02*
X85387Y-42907D01*
X85735Y-43255D02*
X85735Y-43470D01*
X85387Y-42907D02*
X85735Y-43255D01*
G54D28*
X85735Y-43470D02*
X85735Y-43895D01*
X86000Y-44160D02*
X86000Y-45000D01*
X85735Y-43895D02*
X86000Y-44160D01*
G54D27*
X84796Y-40784D02*
X84496Y-40300D01*
X80870Y-36950D02*
X80250Y-36950D01*
X80940Y-37020D02*
X80870Y-36950D01*
X84496Y-40300D02*
X84430Y-40234D01*
G54D28*
X80250Y-36450D02*
X80250Y-35800D01*
X80700Y-35350D02*
X80975Y-35350D01*
X80250Y-35800D02*
X80700Y-35350D01*
X80250Y-36450D02*
X79664Y-36450D01*
X79692Y-36950D02*
X80250Y-36950D01*
X79553Y-36811D02*
X79692Y-36950D01*
X79553Y-36561D02*
X79553Y-36811D01*
X79664Y-36450D02*
X79553Y-36561D01*
X88545Y-35780D02*
X92380Y-35780D01*
X92380Y-35780D02*
X92400Y-35800D01*
G54D27*
X84796Y-42596D02*
X84796Y-42064D01*
X92400Y-39840D02*
X92400Y-35800D01*
X91650Y-40590D02*
X92400Y-39840D01*
X90260Y-40590D02*
X91650Y-40590D01*
X89800Y-41050D02*
X90260Y-40590D01*
X88620Y-41050D02*
X89800Y-41050D01*
X87860Y-41810D02*
X88620Y-41050D01*
X85050Y-41810D02*
X87860Y-41810D01*
X84796Y-42064D02*
X85050Y-41810D01*
X84993Y-40784D02*
X84993Y-39871D01*
X79820Y-28780D02*
X80380Y-28780D01*
X79290Y-29310D02*
X79820Y-28780D01*
X84993Y-39871D02*
X84960Y-39838D01*
G54D28*
X81090Y-28420D02*
X80470Y-28420D01*
X80520Y-28920D02*
X81090Y-28920D01*
X80380Y-28780D02*
X80520Y-28920D01*
X80380Y-28510D02*
X80380Y-28780D01*
X80470Y-28420D02*
X80380Y-28510D01*
X81725Y-35350D02*
X81725Y-32100D01*
X83855Y-32785D02*
X83943Y-32874D01*
X83855Y-32195D02*
X83855Y-32785D01*
X83392Y-31732D02*
X83855Y-32195D01*
X82093Y-31732D02*
X83392Y-31732D01*
X81725Y-32100D02*
X82093Y-31732D01*
X83943Y-32874D02*
X83943Y-33917D01*
X84498Y-34472D02*
X84498Y-35150D01*
X83943Y-33917D02*
X84498Y-34472D01*
X83750Y-38975D02*
X82475Y-38975D01*
X82475Y-38975D02*
X82450Y-38950D01*
X89054Y-40277D02*
X88317Y-40277D01*
X87015Y-38975D02*
X83750Y-38975D01*
X88317Y-40277D02*
X87015Y-38975D01*
X91078Y-39309D02*
X90022Y-39309D01*
X90022Y-39309D02*
X89054Y-40277D01*
X74602Y-40150D02*
X74602Y-38898D01*
X75150Y-38350D02*
X74975Y-38150D01*
X74602Y-38898D02*
X75150Y-38350D01*
X74975Y-38150D02*
X74975Y-36323D01*
X74975Y-36323D02*
X74802Y-36150D01*
X83575Y-36950D02*
X83575Y-36236D01*
X83002Y-35663D02*
X83002Y-35150D01*
X83575Y-36236D02*
X83002Y-35663D01*
X82450Y-36950D02*
X81610Y-36950D01*
X81110Y-37450D02*
X80250Y-37450D01*
X81610Y-36950D02*
X81110Y-37450D01*
X83575Y-36950D02*
X82450Y-36950D01*
X82447Y-32874D02*
X82447Y-36447D01*
X82447Y-36447D02*
X82450Y-36450D01*
X80250Y-38450D02*
X78925Y-38450D01*
X78925Y-38750D02*
X78925Y-38450D01*
X78925Y-38450D02*
X78925Y-37750D01*
X78925Y-37750D02*
X78925Y-36750D01*
X77406Y-38883D02*
X77406Y-39508D01*
X78475Y-39754D02*
X78498Y-39777D01*
X77652Y-39754D02*
X78475Y-39754D01*
X77406Y-39508D02*
X77652Y-39754D01*
X78498Y-39777D02*
X78889Y-39777D01*
X78889Y-39777D02*
X79716Y-38950D01*
X79716Y-38950D02*
X80250Y-38950D01*
X76098Y-40150D02*
X78125Y-40150D01*
X78125Y-40150D02*
X78498Y-39777D01*
X76298Y-36150D02*
X76298Y-39950D01*
X76298Y-39950D02*
X76098Y-40150D01*
G54D27*
X75570Y-41170D02*
X78030Y-41170D01*
X78498Y-40702D02*
X78498Y-40527D01*
X78030Y-41170D02*
X78498Y-40702D01*
G54D28*
X78498Y-40527D02*
X79173Y-40527D01*
X79173Y-40527D02*
X80250Y-39450D01*
X80250Y-39450D02*
X80250Y-39850D01*
X75725Y-38775D02*
X75725Y-38150D01*
X75350Y-39150D02*
X75725Y-38775D01*
X75350Y-40950D02*
X75350Y-39150D01*
X75550Y-41150D02*
X75570Y-41170D01*
X75570Y-41170D02*
X75350Y-40950D01*
X81175Y-40350D02*
X80750Y-40350D01*
X80750Y-40350D02*
X80250Y-39850D01*
X80525Y-41350D02*
X80525Y-41000D01*
X80525Y-41000D02*
X81175Y-40350D01*
X77098Y-34750D02*
X78218Y-34750D01*
X78540Y-38385D02*
X78175Y-38750D01*
X78540Y-35072D02*
X78540Y-38385D01*
X78218Y-34750D02*
X78540Y-35072D01*
X79175Y-41950D02*
X79775Y-41350D01*
X73950Y-41950D02*
X79175Y-41950D01*
X73350Y-41350D02*
X73950Y-41950D01*
X73350Y-35550D02*
X73350Y-41350D01*
X74150Y-34750D02*
X73350Y-35550D01*
X77150Y-34750D02*
X77098Y-34750D01*
X77098Y-34750D02*
X74150Y-34750D01*
G54D29*
X85200Y-31175D02*
X86600Y-31175D01*
X83290Y-28420D02*
X83950Y-28420D01*
X84735Y-31175D02*
X85200Y-31175D01*
X84400Y-30840D02*
X84735Y-31175D01*
X84400Y-28870D02*
X84400Y-30840D01*
X83950Y-28420D02*
X84400Y-28870D01*
G54D28*
X65210Y-39198D02*
X67622Y-39198D01*
X68300Y-38520D02*
X68300Y-37400D01*
X67622Y-39198D02*
X68300Y-38520D01*
X62990Y-38806D02*
X63066Y-38806D01*
X63458Y-39198D02*
X65210Y-39198D01*
X63066Y-38806D02*
X63458Y-39198D01*
X65210Y-34872D02*
X64538Y-34872D01*
X63501Y-36798D02*
X62990Y-36798D01*
X64100Y-36200D02*
X63501Y-36798D01*
X64100Y-35310D02*
X64100Y-36200D01*
X64538Y-34872D02*
X64100Y-35310D01*
X68320Y-32580D02*
X68240Y-32580D01*
X65948Y-34872D02*
X65210Y-34872D01*
X68240Y-32580D02*
X65948Y-34872D01*
X64618Y-33020D02*
X64618Y-30318D01*
X64618Y-30318D02*
X64200Y-29900D01*
X62990Y-35794D02*
X63395Y-35794D01*
X64618Y-34102D02*
X64618Y-33020D01*
X63840Y-34880D02*
X64618Y-34102D01*
X63840Y-35350D02*
X63840Y-34880D01*
X63395Y-35794D02*
X63840Y-35350D01*
X89054Y-30477D02*
X90110Y-30477D01*
X90110Y-30477D02*
X91078Y-29509D01*
X81090Y-27920D02*
X81090Y-27410D01*
X89054Y-29674D02*
X89054Y-30477D01*
X86640Y-27260D02*
X89054Y-29674D01*
X81240Y-27260D02*
X86640Y-27260D01*
X81090Y-27410D02*
X81240Y-27260D01*
X82450Y-38450D02*
X82850Y-38450D01*
X83150Y-38150D02*
X83375Y-38150D01*
X82850Y-38450D02*
X83150Y-38150D01*
X82450Y-38450D02*
X82050Y-38450D01*
X81950Y-40325D02*
X81925Y-40350D01*
X81950Y-38550D02*
X81950Y-40325D01*
X82050Y-38450D02*
X81950Y-38550D01*
X82450Y-39450D02*
X83475Y-39450D01*
X83475Y-39450D02*
X83750Y-39725D01*
X81966Y-37450D02*
X82450Y-37450D01*
X81581Y-37835D02*
X81966Y-37450D01*
X81581Y-40984D02*
X81581Y-37835D01*
X81660Y-41063D02*
X81581Y-40984D01*
X82250Y-41063D02*
X81660Y-41063D01*
X83589Y-39725D02*
X82250Y-41063D01*
G54D29*
X70790Y-41545D02*
X70790Y-40817D01*
X78175Y-35750D02*
X78175Y-35187D01*
X78175Y-35187D02*
X78156Y-35168D01*
G54D28*
X76672Y-33287D02*
X76520Y-33440D01*
X77604Y-33287D02*
X76672Y-33287D01*
X70820Y-30560D02*
X70820Y-31680D01*
X70820Y-30560D02*
X70880Y-30500D01*
G54D29*
X82450Y-37950D02*
X82690Y-37950D01*
X82690Y-37950D02*
X83070Y-37570D01*
G54D27*
X85584Y-40784D02*
X85584Y-40356D01*
X85190Y-40230D02*
X85226Y-40194D01*
X85226Y-40194D02*
X85338Y-40194D01*
X85338Y-40194D02*
X85380Y-40152D01*
X85190Y-40230D02*
X85190Y-40784D01*
X85584Y-40356D02*
X85380Y-40152D01*
G54D29*
X87795Y-35780D02*
X86952Y-35780D01*
X86952Y-35780D02*
X86900Y-35728D01*
X83290Y-27920D02*
X85365Y-27920D01*
X85625Y-28180D02*
X85515Y-28070D01*
X85625Y-28180D02*
X85625Y-29400D01*
X85365Y-27920D02*
X85515Y-28070D01*
X85200Y-30425D02*
X85200Y-29825D01*
X85200Y-29825D02*
X85625Y-29400D01*
X80015Y-30180D02*
X79550Y-30180D01*
X77604Y-32125D02*
X77604Y-33287D01*
X79550Y-30180D02*
X77604Y-32125D01*
X69140Y-42715D02*
X70045Y-42715D01*
X71435Y-43865D02*
X70800Y-43230D01*
X70800Y-43230D02*
X70800Y-43100D01*
X71900Y-43865D02*
X71435Y-43865D01*
X70790Y-43090D02*
X70790Y-41979D01*
X70790Y-43090D02*
X70800Y-43100D01*
X70430Y-43100D02*
X70800Y-43100D01*
X70045Y-42715D02*
X70430Y-43100D01*
X68100Y-42785D02*
X69070Y-42785D01*
X69070Y-42785D02*
X69140Y-42715D01*
X66885Y-42450D02*
X67160Y-42450D01*
X67495Y-42785D02*
X68100Y-42785D01*
X67160Y-42450D02*
X67495Y-42785D01*
X70790Y-40817D02*
X69803Y-40817D01*
X69803Y-40817D02*
X69680Y-40940D01*
X70800Y-36500D02*
X70800Y-35460D01*
X70800Y-35460D02*
X70820Y-35440D01*
X63300Y-27400D02*
X64090Y-27400D01*
X64090Y-27400D02*
X64130Y-27360D01*
G54D28*
X70800Y-38300D02*
X72160Y-38300D01*
X72320Y-38140D02*
X72320Y-37885D01*
X72160Y-38300D02*
X72320Y-38140D01*
X70820Y-33480D02*
X72375Y-33480D01*
X72375Y-33480D02*
X72430Y-33535D01*
X68065Y-28070D02*
X68065Y-27895D01*
X67570Y-27400D02*
X65100Y-27400D01*
X68065Y-27895D02*
X67570Y-27400D01*
X64335Y-42380D02*
X66065Y-42380D01*
X66065Y-42380D02*
X66135Y-42450D01*
X85065Y-43860D02*
X84460Y-43860D01*
X84460Y-43860D02*
X84440Y-43840D01*
X69140Y-41965D02*
X69140Y-40730D01*
X69140Y-40730D02*
X70010Y-39860D01*
X70010Y-39860D02*
X72600Y-39860D01*
X80560Y-37950D02*
X80250Y-37950D01*
X81030Y-39480D02*
X80950Y-39400D01*
X80950Y-39400D02*
X80950Y-38340D01*
X80950Y-38340D02*
X80560Y-37950D01*
G54D27*
X85190Y-42596D02*
X85190Y-43735D01*
X85190Y-43735D02*
X85065Y-43860D01*
G54D29*
X80250Y-37950D02*
X79666Y-37950D01*
X79666Y-37950D02*
X79276Y-37560D01*
X79276Y-37560D02*
X79276Y-36101D01*
X79276Y-36101D02*
X78925Y-35750D01*
X78354Y-33287D02*
X78354Y-34388D01*
X78925Y-34959D02*
X78925Y-35750D01*
X78354Y-34388D02*
X78925Y-34959D01*
X80765Y-30180D02*
X80765Y-30685D01*
X78354Y-33095D02*
X78354Y-33287D01*
X80765Y-30685D02*
X78354Y-33095D01*
G54D27*
X80765Y-30180D02*
X80765Y-29745D01*
X80765Y-29745D02*
X81090Y-29420D01*
X86375Y-29400D02*
X86375Y-27987D01*
X81658Y-29420D02*
X81090Y-29420D01*
X81708Y-29370D02*
X81658Y-29420D01*
X81708Y-28182D02*
X81708Y-29370D01*
X82412Y-27478D02*
X81708Y-28182D01*
X85866Y-27478D02*
X82412Y-27478D01*
X86375Y-27987D02*
X85866Y-27478D01*
G54D29*
X69140Y-41965D02*
X70185Y-41965D01*
X70185Y-41965D02*
X70199Y-41979D01*
X68100Y-42035D02*
X69070Y-42035D01*
X69070Y-42035D02*
X69140Y-41965D01*
X63585Y-42380D02*
X63585Y-41835D01*
X67555Y-41490D02*
X68100Y-42035D01*
X63930Y-41490D02*
X67555Y-41490D01*
X63585Y-41835D02*
X63930Y-41490D01*
X63000Y-39800D02*
X63000Y-41795D01*
X63000Y-41795D02*
X63585Y-42380D01*
G54D27*
X85190Y-42596D02*
X85190Y-42270D01*
X86710Y-42620D02*
X86710Y-42855D01*
X86300Y-42210D02*
X86710Y-42620D01*
X85249Y-42210D02*
X86300Y-42210D01*
X85190Y-42270D02*
X85249Y-42210D01*
X85190Y-42596D02*
X85190Y-42920D01*
G54D29*
X62330Y-38250D02*
X62330Y-35450D01*
X62330Y-35450D02*
X62990Y-34790D01*
X62990Y-34790D02*
X62990Y-33152D01*
X62990Y-33152D02*
X63122Y-33020D01*
X62990Y-37802D02*
X62777Y-37802D01*
X62330Y-39130D02*
X63000Y-39800D01*
X62330Y-38250D02*
X62330Y-39130D01*
X62777Y-37802D02*
X62330Y-38250D01*
X65210Y-37702D02*
X63090Y-37702D01*
X63090Y-37702D02*
X62990Y-37802D01*
X65210Y-36368D02*
X65210Y-37702D01*
X86375Y-29400D02*
X86375Y-30200D01*
X86375Y-30200D02*
X86600Y-30425D01*
X86600Y-30425D02*
X87305Y-30425D01*
X90096Y-34796D02*
X92400Y-34796D01*
X87910Y-32610D02*
X90096Y-34796D01*
X87910Y-31030D02*
X87910Y-32610D01*
X87305Y-30425D02*
X87910Y-31030D01*
G54D28*
X78175Y-36750D02*
X77850Y-36750D01*
X82064Y-31066D02*
X83732Y-31066D01*
X80266Y-32864D02*
X82064Y-31066D01*
X80266Y-33344D02*
X80266Y-32864D01*
X79470Y-34140D02*
X80266Y-33344D01*
X77206Y-36106D02*
X77206Y-35520D01*
X77850Y-36750D02*
X77206Y-36106D01*
G54D29*
X77406Y-38133D02*
X77406Y-37928D01*
X77584Y-37750D02*
X78175Y-37750D01*
X77406Y-37928D02*
X77584Y-37750D01*
G54D27*
X84993Y-42596D02*
X84993Y-43107D01*
G54D29*
X85790Y-38150D02*
X84125Y-38150D01*
X85996Y-38356D02*
X85790Y-38150D01*
G54D27*
X84993Y-43107D02*
X84870Y-43230D01*
G54D29*
X84125Y-38150D02*
X84125Y-37150D01*
X84125Y-37150D02*
X84325Y-36950D01*
X83290Y-29420D02*
X83290Y-30624D01*
X83290Y-30624D02*
X83732Y-31066D01*
X83732Y-31066D02*
X84946Y-32280D01*
X85186Y-36089D02*
X84325Y-36950D01*
X85186Y-34472D02*
X85186Y-36089D01*
X84946Y-34232D02*
X85186Y-34472D01*
X84946Y-32280D02*
X84946Y-34232D01*
X78175Y-36750D02*
X78175Y-37750D01*
X91056Y-41597D02*
X92223Y-41597D01*
X92127Y-31797D02*
X91056Y-31797D01*
X93170Y-32840D02*
X92127Y-31797D01*
X93170Y-40650D02*
X93170Y-32840D01*
X92223Y-41597D02*
X93170Y-40650D01*
X91056Y-31797D02*
X89091Y-31797D01*
X89091Y-31797D02*
X89073Y-31815D01*
X83290Y-28920D02*
X83890Y-28920D01*
X83830Y-29420D02*
X83290Y-29420D01*
X83940Y-29310D02*
X83830Y-29420D01*
X83940Y-28970D02*
X83940Y-29310D01*
X83890Y-28920D02*
X83940Y-28970D01*
G54D27*
X84993Y-42596D02*
X84993Y-42167D01*
X89073Y-41657D02*
X89073Y-41615D01*
X88690Y-42040D02*
X89073Y-41657D01*
X85120Y-42040D02*
X88690Y-42040D01*
X84993Y-42167D02*
X85120Y-42040D01*
G54D28*
X89073Y-41615D02*
X91038Y-41615D01*
X91038Y-41615D02*
X91056Y-41597D01*
G54D29*
X71900Y-43115D02*
X71900Y-42498D01*
X71900Y-42498D02*
X71381Y-41979D01*
X80000Y-45000D02*
X80000Y-43980D01*
X79135Y-43115D02*
X71900Y-43115D01*
X80000Y-43980D02*
X79135Y-43115D01*
M02*
