G04 (created by PCBNEW (2013-07-07 BZR 4022)-stable) date 12/24/2014 2:10:28 AM*
%MOIN*%
G04 Gerber Fmt 3.4, Leading zero omitted, Abs format*
%FSLAX34Y34*%
G01*
G70*
G90*
G04 APERTURE LIST*
%ADD10C,0.00590551*%
%ADD11C,0.0700787*%
%ADD12O,0.06X0.1*%
%ADD13C,0.0590551*%
%ADD14C,0.11811*%
G04 APERTURE END LIST*
G54D10*
G54D11*
X63000Y-39800D03*
X62990Y-38806D03*
X62990Y-37802D03*
X62990Y-36798D03*
X62990Y-35794D03*
X62990Y-34790D03*
X92400Y-35800D03*
X92400Y-34796D03*
G54D12*
X78400Y-26000D03*
X77400Y-26000D03*
X76400Y-26000D03*
X75400Y-26000D03*
X74400Y-26000D03*
X73400Y-26000D03*
X72400Y-26000D03*
X71400Y-26000D03*
X76000Y-45000D03*
X75000Y-45000D03*
X74000Y-45000D03*
X73000Y-45000D03*
X77000Y-45000D03*
X78000Y-45000D03*
X79000Y-45000D03*
X80000Y-45000D03*
X82000Y-45000D03*
X83000Y-45000D03*
X84000Y-45000D03*
X85000Y-45000D03*
X86000Y-45000D03*
X87000Y-45000D03*
X87000Y-26000D03*
X86000Y-26000D03*
X85000Y-26000D03*
X84000Y-26000D03*
X83000Y-26000D03*
X82000Y-26000D03*
X81000Y-26000D03*
X80000Y-26000D03*
G54D13*
X89054Y-30477D03*
X89073Y-31815D03*
G54D14*
X91078Y-29509D03*
X91056Y-31797D03*
G54D13*
X89054Y-40277D03*
X89073Y-41615D03*
G54D14*
X91078Y-39309D03*
X91056Y-41597D03*
G54D11*
X92640Y-27020D03*
X90940Y-34200D03*
X91040Y-36740D03*
X91080Y-43470D03*
M02*
