M48
;DRILL file {Pcbnew (2013-07-07 BZR 4022)-stable} date 12/24/2014 2:10:38 AM
;FORMAT={-:-/ absolute / inch / decimal}
FMAT,2
INCH,TZ
T1C0.025
T2C0.038
T3C0.039
T4C0.039
T5C0.040
T6C0.081
%
G90
G05
M72
T1
X6.413Y-2.736
X6.724Y-4.346
X6.9548Y-2.806
X7.028Y-3.968
X7.0994Y-3.1528
X7.136Y-4.346
X7.8555Y-2.967
X8.073Y-3.7185
X8.132Y-3.941
X8.1495Y-4.302
X8.244Y-3.652
X8.302Y-3.5448
X8.3132Y-3.7737
X8.4812Y-3.9933
X8.539Y-3.525
X8.5515Y-2.807
X8.649Y-3.849
X8.943Y-3.6075
X9.24Y-3.4796
T2
X8.9073Y-3.1815
X8.9073Y-4.1615
T3
X8.9054Y-3.0477
X8.9054Y-4.0277
T4
X6.299Y-3.479
X6.299Y-3.5794
X6.299Y-3.6798
X6.299Y-3.7802
X6.299Y-3.8806
X6.3Y-3.98
X9.094Y-3.42
X9.104Y-3.674
X9.108Y-4.347
X9.24Y-3.4796
X9.24Y-3.58
X9.264Y-2.702
T5
X7.14Y-2.6
X7.24Y-2.6
X7.3Y-4.5
X7.34Y-2.6
X7.4Y-4.5
X7.44Y-2.6
X7.5Y-4.5
X7.54Y-2.6
X7.6Y-4.5
X7.64Y-2.6
X7.7Y-4.5
X7.74Y-2.6
X7.8Y-4.5
X7.84Y-2.6
X7.9Y-4.5
X8.Y-2.6
X8.Y-4.5
X8.1Y-2.6
X8.2Y-2.6
X8.2Y-4.5
X8.3Y-2.6
X8.3Y-4.5
X8.4Y-2.6
X8.4Y-4.5
X8.5Y-2.6
X8.5Y-4.5
X8.6Y-2.6
X8.6Y-4.5
X8.7Y-2.6
X8.7Y-4.5
T6
X9.1056Y-3.1797
X9.1056Y-4.1597
X9.1078Y-2.9509
X9.1078Y-3.9309
T0
M30
