G04 (created by PCBNEW (2013-07-07 BZR 4022)-stable) date 12/24/2014 2:10:28 AM*
%MOIN*%
G04 Gerber Fmt 3.4, Leading zero omitted, Abs format*
%FSLAX34Y34*%
G01*
G70*
G90*
G04 APERTURE LIST*
%ADD10C,0.00590551*%
%ADD11C,0.0001*%
%ADD12R,0.05X0.025*%
%ADD13R,0.055X0.035*%
%ADD14R,0.035X0.055*%
%ADD15R,0.0118X0.0402*%
%ADD16C,0.0700787*%
%ADD17R,0.12X0.065*%
%ADD18R,0.24X0.24*%
%ADD19R,0.065X0.12*%
%ADD20O,0.06X0.1*%
%ADD21C,0.0590551*%
%ADD22C,0.11811*%
%ADD23R,0.0394X0.0591*%
%ADD24R,0.0787X0.1181*%
%ADD25R,0.06X0.08*%
%ADD26R,0.08X0.06*%
%ADD27C,0.035*%
%ADD28C,0.01*%
%ADD29C,0.007*%
%ADD30C,0.015*%
%ADD31C,0.024*%
G04 APERTURE END LIST*
G54D10*
G54D11*
G36*
X73216Y-36727D02*
X73009Y-36772D01*
X72895Y-36799D01*
X72827Y-36827D01*
X72785Y-36872D01*
X72748Y-36947D01*
X72738Y-36971D01*
X72675Y-37126D01*
X72793Y-37290D01*
X72911Y-37455D01*
X72750Y-37614D01*
X72588Y-37773D01*
X72446Y-37670D01*
X72320Y-37593D01*
X72225Y-37568D01*
X72167Y-37595D01*
X72164Y-37600D01*
X72139Y-37626D01*
X72112Y-37620D01*
X72078Y-37574D01*
X72033Y-37481D01*
X71970Y-37336D01*
X71947Y-37280D01*
X71803Y-36927D01*
X71907Y-36845D01*
X72007Y-36728D01*
X72056Y-36585D01*
X72053Y-36434D01*
X72000Y-36291D01*
X71910Y-36185D01*
X71785Y-36119D01*
X71638Y-36096D01*
X71495Y-36120D01*
X71401Y-36169D01*
X71284Y-36298D01*
X71226Y-36444D01*
X71227Y-36596D01*
X71287Y-36742D01*
X71398Y-36861D01*
X71484Y-36929D01*
X71344Y-37273D01*
X71287Y-37411D01*
X71240Y-37525D01*
X71208Y-37601D01*
X71196Y-37626D01*
X71164Y-37621D01*
X71103Y-37596D01*
X71029Y-37575D01*
X70961Y-37595D01*
X70923Y-37617D01*
X70811Y-37690D01*
X70738Y-37730D01*
X70687Y-37736D01*
X70639Y-37708D01*
X70576Y-37646D01*
X70540Y-37608D01*
X70386Y-37450D01*
X70498Y-37287D01*
X70609Y-37124D01*
X70549Y-36970D01*
X70512Y-36886D01*
X70474Y-36835D01*
X70414Y-36804D01*
X70313Y-36778D01*
X70283Y-36772D01*
X70077Y-36727D01*
X70087Y-36506D01*
X70097Y-36286D01*
X70230Y-36260D01*
X70335Y-36239D01*
X70422Y-36220D01*
X70434Y-36217D01*
X70499Y-36169D01*
X70558Y-36058D01*
X70562Y-36050D01*
X70619Y-35900D01*
X70495Y-35731D01*
X70371Y-35562D01*
X70516Y-35414D01*
X70596Y-35337D01*
X70659Y-35283D01*
X70688Y-35266D01*
X70729Y-35284D01*
X70806Y-35329D01*
X70885Y-35380D01*
X71054Y-35494D01*
X71192Y-35436D01*
X71266Y-35401D01*
X71312Y-35363D01*
X71341Y-35302D01*
X71367Y-35200D01*
X71377Y-35154D01*
X71424Y-34930D01*
X71642Y-34940D01*
X71860Y-34950D01*
X71912Y-35164D01*
X71943Y-35280D01*
X71973Y-35351D01*
X72017Y-35394D01*
X72087Y-35430D01*
X72101Y-35436D01*
X72239Y-35494D01*
X72399Y-35380D01*
X72491Y-35319D01*
X72564Y-35277D01*
X72596Y-35266D01*
X72637Y-35289D01*
X72707Y-35346D01*
X72773Y-35409D01*
X72913Y-35552D01*
X72793Y-35729D01*
X72674Y-35907D01*
X72730Y-36053D01*
X72761Y-36128D01*
X72794Y-36176D01*
X72846Y-36208D01*
X72932Y-36233D01*
X73064Y-36260D01*
X73197Y-36286D01*
X73207Y-36506D01*
X73216Y-36727D01*
X73216Y-36727D01*
X73216Y-36727D01*
G37*
G54D12*
X83290Y-29420D03*
X83290Y-28920D03*
X83290Y-28420D03*
X83290Y-27920D03*
X81090Y-27920D03*
X81090Y-28420D03*
X81090Y-28920D03*
X81090Y-29420D03*
G54D13*
X85785Y-37230D03*
X85785Y-37980D03*
G54D14*
X82940Y-34748D03*
X82190Y-34748D03*
X84919Y-36212D03*
X85669Y-36212D03*
X80945Y-34240D03*
X80195Y-34240D03*
G54D13*
X86985Y-36840D03*
X86985Y-37590D03*
X84851Y-38880D03*
X84851Y-38130D03*
G54D14*
X82025Y-40140D03*
X81275Y-40140D03*
X86375Y-29400D03*
X85625Y-29400D03*
G54D13*
X68460Y-42045D03*
X68460Y-42795D03*
X67280Y-42065D03*
X67280Y-42815D03*
X71380Y-42145D03*
X71380Y-42895D03*
X66100Y-42795D03*
X66100Y-42045D03*
X86600Y-30425D03*
X86600Y-31175D03*
X85600Y-31175D03*
X85600Y-30425D03*
G54D14*
X79035Y-35530D03*
X78285Y-35530D03*
X68791Y-27170D03*
X68041Y-27170D03*
G54D13*
X71402Y-27351D03*
X71402Y-28101D03*
X84126Y-43404D03*
X84126Y-42654D03*
X85722Y-42725D03*
X85722Y-41975D03*
G54D14*
X83038Y-43008D03*
X82288Y-43008D03*
X78985Y-37580D03*
X78235Y-37580D03*
X78265Y-38490D03*
X79015Y-38490D03*
X79005Y-36629D03*
X78255Y-36629D03*
X80945Y-32790D03*
X80195Y-32790D03*
G54D13*
X72570Y-27407D03*
X72570Y-28157D03*
G54D14*
X89025Y-36910D03*
X89775Y-36910D03*
G54D13*
X80415Y-31590D03*
X80415Y-30840D03*
G54D15*
X84216Y-39965D03*
X84019Y-39965D03*
X83822Y-39965D03*
X83625Y-39965D03*
X83428Y-39965D03*
X83428Y-41777D03*
X83625Y-41777D03*
X83822Y-41777D03*
X84019Y-41777D03*
X84216Y-41777D03*
G54D12*
X83809Y-38668D03*
X83809Y-38168D03*
X83809Y-37668D03*
X83809Y-37168D03*
X83809Y-36668D03*
X83809Y-36168D03*
X83809Y-35668D03*
X81609Y-35668D03*
X81609Y-36168D03*
X81609Y-36668D03*
X81609Y-37168D03*
X81609Y-37668D03*
X81609Y-38168D03*
X81609Y-38668D03*
G54D16*
X63000Y-39800D03*
X62990Y-38806D03*
X62990Y-37802D03*
X62990Y-36798D03*
X62990Y-35794D03*
X62990Y-34790D03*
X92400Y-35800D03*
X92400Y-34796D03*
G54D17*
X70550Y-34228D03*
G54D18*
X68050Y-33328D03*
G54D17*
X70550Y-32428D03*
X69752Y-30814D03*
G54D18*
X67252Y-29914D03*
G54D17*
X69752Y-29014D03*
G54D19*
X65100Y-27400D03*
G54D18*
X64200Y-29900D03*
G54D19*
X63300Y-27400D03*
G54D20*
X78400Y-26000D03*
X77400Y-26000D03*
X76400Y-26000D03*
X75400Y-26000D03*
X74400Y-26000D03*
X73400Y-26000D03*
X72400Y-26000D03*
X71400Y-26000D03*
X76000Y-45000D03*
X75000Y-45000D03*
X74000Y-45000D03*
X73000Y-45000D03*
X77000Y-45000D03*
X78000Y-45000D03*
X79000Y-45000D03*
X80000Y-45000D03*
X82000Y-45000D03*
X83000Y-45000D03*
X84000Y-45000D03*
X85000Y-45000D03*
X86000Y-45000D03*
X87000Y-45000D03*
X87000Y-26000D03*
X86000Y-26000D03*
X85000Y-26000D03*
X84000Y-26000D03*
X83000Y-26000D03*
X82000Y-26000D03*
X81000Y-26000D03*
X80000Y-26000D03*
G54D21*
X89054Y-30477D03*
X89073Y-31815D03*
G54D22*
X91078Y-29509D03*
X91056Y-31797D03*
G54D21*
X89054Y-40277D03*
X89073Y-41615D03*
G54D22*
X91078Y-39309D03*
X91056Y-41597D03*
G54D14*
X80037Y-29568D03*
X79287Y-29568D03*
G54D23*
X68869Y-40809D03*
X69460Y-40809D03*
X70051Y-40809D03*
G54D24*
X69460Y-39647D03*
G54D10*
G36*
X69854Y-40227D02*
X69657Y-40522D01*
X69263Y-40522D01*
X69066Y-40227D01*
X69854Y-40227D01*
X69854Y-40227D01*
G37*
G54D25*
X77580Y-34170D03*
X78880Y-34170D03*
X78810Y-32860D03*
X77510Y-32860D03*
X84688Y-33770D03*
X85988Y-33770D03*
X86076Y-35156D03*
X84776Y-35156D03*
X63790Y-41900D03*
X65090Y-41900D03*
G54D26*
X68260Y-35970D03*
X68260Y-37270D03*
X65320Y-35670D03*
X65320Y-36970D03*
X63780Y-32030D03*
X63780Y-33330D03*
G54D16*
X92640Y-27020D03*
X90940Y-34200D03*
X91040Y-36740D03*
X91080Y-43470D03*
G54D27*
X81320Y-39410D03*
X82440Y-36520D03*
X85390Y-35250D03*
X83020Y-35448D03*
X83132Y-37737D03*
X84812Y-39933D03*
X78555Y-29670D03*
X89430Y-36075D03*
X86490Y-38490D03*
X81495Y-43020D03*
X80730Y-37185D03*
X71360Y-43460D03*
X70280Y-39680D03*
X67240Y-43460D03*
X70994Y-31528D03*
X69548Y-28060D03*
X85515Y-28070D03*
X64130Y-27360D03*
X92400Y-34796D03*
G54D28*
X72570Y-27407D02*
X78287Y-27407D01*
X79694Y-26000D02*
X80000Y-26000D01*
X78287Y-27407D02*
X79694Y-26000D01*
X71402Y-27351D02*
X71402Y-27076D01*
X78400Y-26610D02*
X78400Y-26000D01*
X78062Y-26948D02*
X78400Y-26610D01*
X71530Y-26948D02*
X78062Y-26948D01*
X71402Y-27076D02*
X71530Y-26948D01*
X68791Y-27170D02*
X70160Y-27170D01*
X77400Y-26254D02*
X77400Y-26000D01*
X76906Y-26747D02*
X77400Y-26254D01*
X70582Y-26747D02*
X76906Y-26747D01*
X70160Y-27170D02*
X70582Y-26747D01*
X85722Y-41975D02*
X85285Y-41975D01*
X87000Y-44447D02*
X87000Y-45000D01*
X86485Y-43932D02*
X87000Y-44447D01*
X85918Y-43932D02*
X86485Y-43932D01*
X85176Y-43190D02*
X85918Y-43932D01*
X85176Y-42084D02*
X85176Y-43190D01*
X85285Y-41975D02*
X85176Y-42084D01*
G54D29*
X84216Y-41777D02*
X85524Y-41777D01*
X85524Y-41777D02*
X85722Y-41975D01*
X84019Y-41777D02*
X84019Y-42547D01*
X84019Y-42547D02*
X84126Y-42654D01*
G54D28*
X84126Y-42654D02*
X84297Y-42654D01*
X86000Y-44826D02*
X86000Y-45000D01*
X84966Y-43792D02*
X86000Y-44826D01*
X84966Y-43323D02*
X84966Y-43792D01*
X84297Y-42654D02*
X84966Y-43323D01*
G54D29*
X83428Y-39965D02*
X82200Y-39965D01*
X82200Y-39965D02*
X82025Y-40140D01*
G54D28*
X81609Y-38668D02*
X81609Y-39161D01*
X82025Y-39577D02*
X82025Y-40140D01*
X81609Y-39161D02*
X82025Y-39577D01*
X81609Y-38668D02*
X81151Y-38668D01*
X81091Y-38168D02*
X81609Y-38168D01*
X80983Y-38276D02*
X81091Y-38168D01*
X80983Y-38500D02*
X80983Y-38276D01*
X81151Y-38668D02*
X80983Y-38500D01*
X90200Y-36300D02*
X89875Y-36300D01*
X89775Y-36400D02*
X89775Y-36910D01*
X89875Y-36300D02*
X89775Y-36400D01*
X90700Y-35800D02*
X92400Y-35800D01*
X90200Y-36300D02*
X90700Y-35800D01*
G54D29*
X90664Y-40590D02*
X90373Y-40590D01*
X83428Y-41053D02*
X83428Y-41777D01*
X83650Y-40831D02*
X83428Y-41053D01*
X90132Y-40831D02*
X83650Y-40831D01*
X90373Y-40590D02*
X90132Y-40831D01*
X90569Y-40590D02*
X90664Y-40590D01*
X90664Y-40590D02*
X91650Y-40590D01*
X91650Y-40590D02*
X91616Y-40590D01*
G54D28*
X91650Y-40590D02*
X92400Y-39840D01*
X92400Y-35800D02*
X92400Y-39840D01*
X92380Y-35780D02*
X92400Y-35800D01*
G54D30*
X82922Y-40866D02*
X83174Y-40866D01*
X77046Y-40866D02*
X75210Y-39030D01*
X75210Y-39030D02*
X75210Y-30165D01*
X75210Y-30165D02*
X76805Y-28570D01*
X80330Y-28570D02*
X76805Y-28570D01*
X82922Y-40866D02*
X77046Y-40866D01*
X83625Y-40415D02*
X83202Y-40838D01*
G54D29*
X83625Y-40415D02*
X83625Y-39965D01*
G54D30*
X83174Y-40866D02*
X83202Y-40838D01*
G54D28*
X81090Y-28420D02*
X80480Y-28420D01*
X80480Y-28420D02*
X80330Y-28570D01*
X80490Y-28920D02*
X81090Y-28920D01*
X80330Y-28570D02*
X80330Y-28760D01*
X80330Y-28760D02*
X80490Y-28920D01*
X81275Y-39455D02*
X81275Y-40140D01*
X81320Y-39410D02*
X81275Y-39455D01*
X85988Y-33770D02*
X85988Y-33318D01*
X82550Y-36410D02*
X82440Y-36520D01*
X82550Y-33560D02*
X82550Y-36410D01*
X83120Y-32990D02*
X82550Y-33560D01*
X85660Y-32990D02*
X83120Y-32990D01*
X85988Y-33318D02*
X85660Y-32990D01*
X86076Y-35156D02*
X85484Y-35156D01*
X85484Y-35156D02*
X85390Y-35250D01*
X86076Y-35156D02*
X86076Y-33858D01*
X86076Y-33858D02*
X85988Y-33770D01*
X91078Y-39309D02*
X91078Y-36778D01*
X91078Y-36778D02*
X91040Y-36740D01*
X89054Y-40277D02*
X87587Y-40277D01*
X85271Y-38550D02*
X84851Y-38130D01*
X85860Y-38550D02*
X85271Y-38550D01*
X87587Y-40277D02*
X85860Y-38550D01*
X89054Y-40277D02*
X90110Y-40277D01*
X90110Y-40277D02*
X91078Y-39309D01*
X88997Y-40220D02*
X89054Y-40277D01*
X84851Y-38130D02*
X83847Y-38130D01*
X83847Y-38130D02*
X83809Y-38168D01*
X77510Y-32860D02*
X77510Y-34100D01*
X77510Y-34100D02*
X77580Y-34170D01*
X80195Y-32790D02*
X80195Y-32205D01*
X77510Y-32300D02*
X77510Y-32860D01*
X77730Y-32080D02*
X77510Y-32300D01*
X80070Y-32080D02*
X77730Y-32080D01*
X80195Y-32205D02*
X80070Y-32080D01*
X84919Y-36212D02*
X84919Y-35299D01*
X84919Y-35299D02*
X84776Y-35156D01*
X83809Y-36168D02*
X84875Y-36168D01*
X84875Y-36168D02*
X84919Y-36212D01*
X83809Y-36168D02*
X83476Y-36168D01*
X81976Y-37668D02*
X81609Y-37668D01*
X83476Y-36168D02*
X81976Y-37668D01*
X83809Y-35668D02*
X83809Y-34274D01*
X84313Y-33770D02*
X84688Y-33770D01*
X83809Y-34274D02*
X84313Y-33770D01*
X81609Y-36668D02*
X79044Y-36668D01*
X79044Y-36668D02*
X79005Y-36629D01*
X78985Y-37580D02*
X78985Y-38460D01*
X78985Y-38460D02*
X79015Y-38490D01*
X79005Y-36629D02*
X79005Y-37560D01*
X79005Y-37560D02*
X78985Y-37580D01*
X79035Y-35530D02*
X79050Y-35530D01*
X79688Y-36168D02*
X81609Y-36168D01*
X79050Y-35530D02*
X79688Y-36168D01*
X78880Y-34170D02*
X78880Y-35375D01*
X78880Y-35375D02*
X79035Y-35530D01*
X78880Y-34170D02*
X78880Y-32930D01*
X78880Y-32930D02*
X78810Y-32860D01*
X80195Y-34240D02*
X78950Y-34240D01*
X78950Y-34240D02*
X78880Y-34170D01*
G54D30*
X80415Y-31590D02*
X80415Y-31785D01*
X80945Y-32315D02*
X80945Y-32790D01*
X80415Y-31785D02*
X80945Y-32315D01*
G54D28*
X81609Y-35668D02*
X81609Y-35009D01*
X82098Y-34840D02*
X82190Y-34748D01*
X81778Y-34840D02*
X82098Y-34840D01*
X81609Y-35009D02*
X81778Y-34840D01*
X80945Y-34240D02*
X81841Y-34240D01*
X82349Y-34748D02*
X82190Y-34748D01*
X81841Y-34240D02*
X82349Y-34748D01*
X80945Y-32790D02*
X80945Y-34240D01*
G54D30*
X77145Y-38490D02*
X76680Y-38490D01*
X76875Y-30840D02*
X80415Y-30840D01*
X75915Y-31800D02*
X76875Y-30840D01*
X75915Y-37725D02*
X75915Y-31800D01*
X76680Y-38490D02*
X75915Y-37725D01*
X78265Y-38490D02*
X77145Y-38490D01*
G54D28*
X77145Y-38490D02*
X77080Y-38490D01*
X83290Y-28420D02*
X84420Y-28420D01*
X85225Y-31175D02*
X85000Y-30950D01*
X85000Y-30950D02*
X85000Y-29000D01*
X85000Y-29000D02*
X84420Y-28420D01*
X85225Y-31175D02*
X85600Y-31175D01*
X85600Y-31175D02*
X86600Y-31175D01*
X68260Y-35970D02*
X68260Y-33538D01*
X68260Y-33538D02*
X68050Y-33328D01*
X65210Y-39198D02*
X65864Y-39198D01*
X68050Y-34194D02*
X68050Y-33328D01*
X66506Y-35738D02*
X68050Y-34194D01*
X66506Y-38556D02*
X66506Y-35738D01*
X65864Y-39198D02*
X66506Y-38556D01*
X62990Y-38806D02*
X63066Y-38806D01*
X63458Y-39198D02*
X65210Y-39198D01*
X63066Y-38806D02*
X63458Y-39198D01*
X65210Y-34840D02*
X65210Y-35560D01*
X65210Y-35560D02*
X65320Y-35670D01*
X65210Y-34872D02*
X65210Y-34840D01*
X65210Y-34840D02*
X65210Y-33918D01*
X65782Y-31384D02*
X67252Y-29914D01*
X65782Y-33346D02*
X65782Y-31384D01*
X65210Y-33918D02*
X65782Y-33346D01*
X65210Y-34872D02*
X64538Y-34872D01*
X63501Y-36798D02*
X62990Y-36798D01*
X64100Y-36200D02*
X63501Y-36798D01*
X64100Y-35310D02*
X64100Y-36200D01*
X64538Y-34872D02*
X64100Y-35310D01*
X63780Y-32030D02*
X63780Y-30320D01*
X63780Y-30320D02*
X64200Y-29900D01*
X64618Y-33020D02*
X64618Y-30318D01*
X64618Y-30318D02*
X64200Y-29900D01*
X62990Y-35794D02*
X63395Y-35794D01*
X64618Y-34102D02*
X64618Y-33020D01*
X63840Y-34880D02*
X64618Y-34102D01*
X63840Y-35350D02*
X63840Y-34880D01*
X63395Y-35794D02*
X63840Y-35350D01*
X91078Y-29509D02*
X91078Y-28582D01*
X91078Y-28582D02*
X92640Y-27020D01*
X89054Y-30477D02*
X90110Y-30477D01*
X90110Y-30477D02*
X91078Y-29509D01*
X81090Y-27920D02*
X81090Y-27410D01*
X89054Y-29674D02*
X89054Y-30477D01*
X86640Y-27260D02*
X89054Y-29674D01*
X81240Y-27260D02*
X86640Y-27260D01*
X81090Y-27410D02*
X81240Y-27260D01*
X86985Y-37590D02*
X83887Y-37590D01*
X83887Y-37590D02*
X83809Y-37668D01*
X83809Y-37668D02*
X83201Y-37668D01*
X82940Y-35368D02*
X82940Y-34748D01*
X83020Y-35448D02*
X82940Y-35368D01*
X83201Y-37668D02*
X83132Y-37737D01*
X83809Y-38668D02*
X83384Y-38668D01*
X83452Y-36668D02*
X83809Y-36668D01*
X83314Y-36806D02*
X83452Y-36668D01*
X83314Y-37016D02*
X83314Y-36806D01*
X82796Y-37534D02*
X83314Y-37016D01*
X82796Y-38080D02*
X82796Y-37534D01*
X83384Y-38668D02*
X82796Y-38080D01*
X83809Y-38668D02*
X83976Y-38668D01*
X84188Y-38880D02*
X84851Y-38880D01*
X83976Y-38668D02*
X84188Y-38880D01*
G54D29*
X84216Y-39965D02*
X84780Y-39965D01*
X84780Y-39965D02*
X84812Y-39933D01*
X83822Y-39965D02*
X83822Y-39542D01*
X84216Y-39606D02*
X84216Y-39965D01*
X84150Y-39540D02*
X84216Y-39606D01*
X83824Y-39540D02*
X84150Y-39540D01*
X83822Y-39542D02*
X83824Y-39540D01*
G54D28*
X79287Y-29568D02*
X78657Y-29568D01*
X78657Y-29568D02*
X78555Y-29670D01*
X89025Y-36910D02*
X89025Y-36480D01*
X89025Y-36480D02*
X89430Y-36075D01*
X85785Y-37980D02*
X85980Y-37980D01*
X85980Y-37980D02*
X86490Y-38490D01*
X82288Y-43008D02*
X81507Y-43008D01*
X81507Y-43008D02*
X81495Y-43020D01*
X81609Y-37168D02*
X80747Y-37168D01*
X80747Y-37168D02*
X80730Y-37185D01*
G54D30*
X69460Y-40809D02*
X69460Y-40375D01*
X71380Y-42895D02*
X71380Y-43440D01*
X71380Y-43440D02*
X71360Y-43460D01*
X69460Y-39647D02*
X70247Y-39647D01*
X70247Y-39647D02*
X70280Y-39680D01*
X69460Y-40809D02*
X69460Y-39647D01*
X66100Y-42795D02*
X66100Y-43100D01*
X66460Y-43460D02*
X67240Y-43460D01*
X66100Y-43100D02*
X66460Y-43460D01*
X67240Y-43460D02*
X67700Y-43460D01*
X67280Y-43420D02*
X67240Y-43460D01*
X67280Y-42815D02*
X67280Y-43420D01*
X68365Y-42795D02*
X68460Y-42795D01*
X67700Y-43460D02*
X68365Y-42795D01*
X85600Y-30425D02*
X85600Y-29425D01*
X85600Y-29425D02*
X85625Y-29400D01*
G54D28*
X70550Y-32428D02*
X70550Y-31972D01*
X70550Y-31972D02*
X70994Y-31528D01*
X69752Y-29014D02*
X69752Y-28264D01*
X69752Y-28264D02*
X69548Y-28060D01*
G54D30*
X83290Y-27920D02*
X85365Y-27920D01*
X85625Y-28180D02*
X85515Y-28070D01*
X85625Y-28180D02*
X85625Y-29400D01*
X85365Y-27920D02*
X85515Y-28070D01*
X63300Y-27400D02*
X64090Y-27400D01*
X64090Y-27400D02*
X64130Y-27360D01*
G54D28*
X70550Y-34228D02*
X71410Y-34228D01*
X72570Y-28598D02*
X72570Y-28157D01*
X71662Y-29506D02*
X72570Y-28598D01*
X71662Y-33976D02*
X71662Y-29506D01*
X71410Y-34228D02*
X71662Y-33976D01*
X69752Y-30814D02*
X69752Y-30582D01*
X71402Y-28932D02*
X71402Y-28101D01*
X69752Y-30582D02*
X71402Y-28932D01*
X65100Y-27400D02*
X67811Y-27400D01*
X67811Y-27400D02*
X68041Y-27170D01*
X66100Y-42045D02*
X65235Y-42045D01*
X65235Y-42045D02*
X65090Y-41900D01*
G54D31*
X92400Y-34796D02*
X91703Y-34796D01*
X87746Y-37063D02*
X89220Y-35590D01*
X87746Y-37063D02*
X87740Y-37063D01*
X89566Y-35244D02*
X89220Y-35590D01*
X91256Y-35244D02*
X89566Y-35244D01*
X91703Y-34796D02*
X91256Y-35244D01*
X83809Y-37168D02*
X85723Y-37168D01*
X85723Y-37168D02*
X85785Y-37230D01*
G54D28*
X85785Y-37230D02*
X87573Y-37230D01*
G54D31*
X87573Y-37230D02*
X87740Y-37063D01*
X87740Y-37063D02*
X87795Y-37007D01*
X92400Y-34796D02*
X92411Y-34785D01*
X92411Y-34785D02*
X93510Y-34785D01*
X83038Y-43008D02*
X83038Y-43585D01*
X80948Y-44534D02*
X80948Y-46070D01*
X81501Y-43981D02*
X80948Y-44534D01*
X82642Y-43981D02*
X81501Y-43981D01*
X83038Y-43585D02*
X82642Y-43981D01*
X83038Y-43008D02*
X83038Y-42589D01*
G54D29*
X83822Y-42160D02*
X83822Y-41777D01*
X83736Y-42246D02*
X83822Y-42160D01*
G54D31*
X83381Y-42246D02*
X83736Y-42246D01*
X83038Y-42589D02*
X83381Y-42246D01*
X85722Y-42725D02*
X87056Y-42725D01*
X88774Y-44756D02*
X88760Y-44770D01*
X88774Y-44443D02*
X88774Y-44756D01*
X87056Y-42725D02*
X88774Y-44443D01*
X83038Y-43008D02*
X83038Y-43110D01*
X83332Y-43404D02*
X84126Y-43404D01*
X83038Y-43110D02*
X83332Y-43404D01*
X81090Y-29420D02*
X81770Y-29420D01*
X86340Y-29365D02*
X86375Y-29400D01*
X86340Y-28200D02*
X86340Y-29365D01*
X85690Y-27550D02*
X86340Y-28200D01*
X82290Y-27550D02*
X85690Y-27550D01*
X82030Y-27810D02*
X82290Y-27550D01*
X82030Y-29160D02*
X82030Y-27810D01*
X81770Y-29420D02*
X82030Y-29160D01*
X80037Y-29568D02*
X80942Y-29568D01*
X80942Y-29568D02*
X81090Y-29420D01*
X86600Y-30425D02*
X87875Y-30425D01*
X87875Y-30425D02*
X88560Y-31110D01*
X88560Y-31110D02*
X90285Y-31110D01*
X90285Y-31110D02*
X90585Y-30810D01*
X90585Y-30810D02*
X92190Y-30810D01*
X92190Y-30810D02*
X93510Y-32130D01*
X93510Y-34785D02*
X93510Y-32130D01*
X87460Y-46070D02*
X88760Y-44770D01*
X87330Y-46070D02*
X87460Y-46070D01*
X87330Y-46070D02*
X80948Y-46070D01*
X88760Y-44770D02*
X88950Y-44580D01*
X93510Y-41200D02*
X93510Y-34785D01*
X93550Y-41240D02*
X93510Y-41200D01*
X93550Y-43840D02*
X93550Y-41240D01*
X92810Y-44580D02*
X93550Y-43840D01*
X88950Y-44580D02*
X92810Y-44580D01*
X80948Y-46070D02*
X64064Y-46070D01*
X64064Y-46070D02*
X63822Y-46070D01*
X63822Y-46070D02*
X63000Y-45248D01*
X63000Y-45248D02*
X63000Y-45000D01*
X63000Y-45000D02*
X63000Y-41710D01*
X64050Y-46070D02*
X64064Y-46070D01*
X67280Y-41380D02*
X67280Y-39360D01*
X67280Y-39360D02*
X68260Y-38380D01*
X68260Y-38380D02*
X68260Y-37270D01*
X67280Y-42065D02*
X67280Y-41380D01*
X67280Y-41380D02*
X67280Y-41340D01*
X67280Y-41340D02*
X66840Y-40900D01*
X66840Y-40900D02*
X64220Y-40900D01*
X64220Y-40900D02*
X63790Y-41330D01*
X63790Y-41330D02*
X63790Y-41900D01*
X68460Y-42045D02*
X67300Y-42045D01*
X67300Y-42045D02*
X67280Y-42065D01*
X68869Y-40809D02*
X68869Y-41636D01*
X68869Y-41636D02*
X68460Y-42045D01*
X63000Y-41880D02*
X63770Y-41880D01*
X63000Y-41710D02*
X63000Y-41880D01*
X63770Y-41880D02*
X63790Y-41900D01*
X63000Y-39800D02*
X63000Y-41710D01*
X62990Y-37802D02*
X64457Y-37802D01*
X65290Y-36970D02*
X65320Y-36970D01*
X64457Y-37802D02*
X65290Y-36970D01*
X62990Y-34790D02*
X62990Y-34790D01*
X63780Y-34000D02*
X63780Y-33330D01*
X62990Y-34790D02*
X63780Y-34000D01*
X62330Y-38250D02*
X62330Y-35450D01*
X62330Y-35450D02*
X62990Y-34790D01*
X62990Y-37802D02*
X62777Y-37802D01*
X62330Y-39130D02*
X63000Y-39800D01*
X62330Y-38250D02*
X62330Y-39130D01*
X62777Y-37802D02*
X62330Y-38250D01*
X63090Y-37702D02*
X62990Y-37802D01*
X86375Y-29400D02*
X86375Y-30200D01*
X86375Y-30200D02*
X86600Y-30425D01*
X86985Y-36840D02*
X86985Y-36210D01*
X86985Y-36210D02*
X87135Y-36060D01*
G54D29*
X83657Y-41181D02*
X84406Y-41181D01*
G54D31*
X88221Y-41167D02*
X88543Y-41489D01*
X88543Y-41489D02*
X88947Y-41489D01*
X88947Y-41489D02*
X89073Y-41615D01*
X84420Y-41167D02*
X88221Y-41167D01*
X84406Y-41181D02*
X84420Y-41167D01*
G54D29*
X83625Y-41777D02*
X83625Y-41213D01*
X83625Y-41213D02*
X83657Y-41181D01*
X83657Y-41181D02*
X83671Y-41167D01*
G54D31*
X91056Y-41597D02*
X89091Y-41597D01*
X89091Y-41597D02*
X89073Y-41615D01*
X90940Y-34200D02*
X89805Y-34200D01*
X85821Y-36060D02*
X85669Y-36212D01*
X87945Y-36060D02*
X87135Y-36060D01*
X87135Y-36060D02*
X85821Y-36060D01*
X89805Y-34200D02*
X87945Y-36060D01*
G54D30*
X76755Y-31545D02*
X76755Y-31470D01*
X76755Y-31470D02*
X77010Y-31215D01*
X83610Y-31215D02*
X83826Y-30999D01*
X77010Y-31215D02*
X83610Y-31215D01*
G54D31*
X78255Y-36629D02*
X78255Y-37560D01*
X78255Y-37560D02*
X78235Y-37580D01*
X78285Y-35530D02*
X78285Y-36599D01*
X78285Y-36599D02*
X78255Y-36629D01*
X77395Y-35530D02*
X78285Y-35530D01*
X76755Y-34890D02*
X77395Y-35530D01*
X76755Y-31545D02*
X76755Y-34890D01*
X83826Y-29420D02*
X83826Y-30330D01*
X83826Y-30330D02*
X83826Y-30999D01*
X83826Y-30999D02*
X83826Y-31375D01*
X84266Y-31815D02*
X89073Y-31815D01*
X83826Y-31375D02*
X84266Y-31815D01*
X83290Y-29420D02*
X83826Y-29420D01*
X83905Y-28920D02*
X83290Y-28920D01*
X83937Y-28952D02*
X83905Y-28920D01*
X83937Y-29309D02*
X83937Y-28952D01*
X83826Y-29420D02*
X83937Y-29309D01*
G54D30*
X91056Y-41597D02*
X91056Y-42256D01*
X91056Y-42256D02*
X91080Y-43470D01*
X90940Y-34200D02*
X90940Y-31913D01*
X90940Y-31913D02*
X91056Y-31797D01*
G54D31*
X91056Y-31797D02*
X89091Y-31797D01*
X89091Y-31797D02*
X89073Y-31815D01*
G54D28*
X91038Y-41615D02*
X91056Y-41597D01*
G54D31*
X70051Y-40809D02*
X70051Y-41739D01*
X70457Y-42145D02*
X71380Y-42145D01*
X70051Y-41739D02*
X70457Y-42145D01*
X71380Y-42145D02*
X78445Y-42145D01*
X78445Y-42145D02*
X80000Y-43700D01*
X80000Y-43700D02*
X80000Y-45000D01*
G54D30*
X70040Y-40820D02*
X70051Y-40809D01*
M02*
