G04 (created by PCBNEW (2013-07-07 BZR 4022)-stable) date 12/24/2014 2:10:28 AM*
%MOIN*%
G04 Gerber Fmt 3.4, Leading zero omitted, Abs format*
%FSLAX34Y34*%
G01*
G70*
G90*
G04 APERTURE LIST*
%ADD10C,0.00590551*%
%ADD11C,0.0001*%
%ADD12R,0.05X0.025*%
%ADD13R,0.055X0.035*%
%ADD14R,0.035X0.055*%
%ADD15R,0.0118X0.0402*%
%ADD16C,0.0700787*%
%ADD17R,0.12X0.065*%
%ADD18R,0.24X0.24*%
%ADD19R,0.065X0.12*%
%ADD20O,0.06X0.1*%
%ADD21C,0.0590551*%
%ADD22C,0.11811*%
%ADD23R,0.0394X0.0591*%
%ADD24R,0.0787X0.1181*%
%ADD25R,0.06X0.08*%
%ADD26R,0.08X0.06*%
G04 APERTURE END LIST*
G54D10*
G54D11*
G36*
X73216Y-36747D02*
X73009Y-36792D01*
X72895Y-36819D01*
X72827Y-36847D01*
X72785Y-36892D01*
X72748Y-36967D01*
X72738Y-36991D01*
X72675Y-37146D01*
X72793Y-37310D01*
X72911Y-37475D01*
X72750Y-37634D01*
X72588Y-37793D01*
X72446Y-37690D01*
X72320Y-37613D01*
X72225Y-37588D01*
X72167Y-37615D01*
X72164Y-37620D01*
X72139Y-37646D01*
X72112Y-37640D01*
X72078Y-37594D01*
X72033Y-37501D01*
X71970Y-37356D01*
X71947Y-37300D01*
X71803Y-36947D01*
X71907Y-36865D01*
X72007Y-36748D01*
X72056Y-36605D01*
X72053Y-36454D01*
X72000Y-36311D01*
X71910Y-36205D01*
X71785Y-36139D01*
X71638Y-36116D01*
X71495Y-36140D01*
X71401Y-36189D01*
X71284Y-36318D01*
X71226Y-36464D01*
X71227Y-36616D01*
X71287Y-36762D01*
X71398Y-36881D01*
X71484Y-36949D01*
X71344Y-37293D01*
X71287Y-37431D01*
X71240Y-37545D01*
X71208Y-37621D01*
X71196Y-37646D01*
X71164Y-37641D01*
X71103Y-37616D01*
X71029Y-37595D01*
X70961Y-37615D01*
X70923Y-37637D01*
X70811Y-37710D01*
X70738Y-37750D01*
X70687Y-37756D01*
X70639Y-37728D01*
X70576Y-37666D01*
X70540Y-37628D01*
X70386Y-37470D01*
X70498Y-37307D01*
X70609Y-37144D01*
X70549Y-36990D01*
X70512Y-36906D01*
X70474Y-36855D01*
X70414Y-36824D01*
X70313Y-36798D01*
X70283Y-36792D01*
X70077Y-36747D01*
X70087Y-36526D01*
X70097Y-36306D01*
X70230Y-36280D01*
X70335Y-36259D01*
X70422Y-36240D01*
X70434Y-36237D01*
X70499Y-36189D01*
X70558Y-36078D01*
X70562Y-36070D01*
X70619Y-35920D01*
X70495Y-35751D01*
X70371Y-35582D01*
X70516Y-35434D01*
X70596Y-35357D01*
X70659Y-35303D01*
X70688Y-35286D01*
X70729Y-35304D01*
X70806Y-35349D01*
X70885Y-35400D01*
X71054Y-35514D01*
X71192Y-35456D01*
X71266Y-35421D01*
X71312Y-35383D01*
X71341Y-35322D01*
X71367Y-35220D01*
X71377Y-35174D01*
X71424Y-34950D01*
X71642Y-34960D01*
X71860Y-34970D01*
X71912Y-35184D01*
X71943Y-35300D01*
X71973Y-35371D01*
X72017Y-35414D01*
X72087Y-35450D01*
X72101Y-35456D01*
X72239Y-35514D01*
X72399Y-35400D01*
X72491Y-35339D01*
X72564Y-35297D01*
X72596Y-35286D01*
X72637Y-35309D01*
X72707Y-35366D01*
X72773Y-35429D01*
X72913Y-35572D01*
X72793Y-35749D01*
X72674Y-35927D01*
X72730Y-36073D01*
X72761Y-36148D01*
X72794Y-36196D01*
X72846Y-36228D01*
X72932Y-36253D01*
X73064Y-36280D01*
X73197Y-36306D01*
X73207Y-36526D01*
X73216Y-36747D01*
X73216Y-36747D01*
X73216Y-36747D01*
G37*
G54D12*
X83290Y-29420D03*
X83290Y-28920D03*
X83290Y-28420D03*
X83290Y-27920D03*
X81090Y-27920D03*
X81090Y-28420D03*
X81090Y-28920D03*
X81090Y-29420D03*
G54D13*
X85785Y-37230D03*
X85785Y-37980D03*
G54D14*
X82940Y-34748D03*
X82190Y-34748D03*
X84919Y-36212D03*
X85669Y-36212D03*
X80945Y-34240D03*
X80195Y-34240D03*
G54D13*
X86985Y-36840D03*
X86985Y-37590D03*
X84851Y-38880D03*
X84851Y-38130D03*
G54D14*
X82025Y-40140D03*
X81275Y-40140D03*
X86375Y-29400D03*
X85625Y-29400D03*
G54D13*
X68460Y-42045D03*
X68460Y-42795D03*
X67280Y-42065D03*
X67280Y-42815D03*
X71380Y-42145D03*
X71380Y-42895D03*
X66100Y-42795D03*
X66100Y-42045D03*
X86600Y-30425D03*
X86600Y-31175D03*
X85600Y-31175D03*
X85600Y-30425D03*
G54D14*
X79035Y-35530D03*
X78285Y-35530D03*
X68791Y-27170D03*
X68041Y-27170D03*
G54D13*
X71402Y-27351D03*
X71402Y-28101D03*
X84126Y-43404D03*
X84126Y-42654D03*
X85722Y-42725D03*
X85722Y-41975D03*
G54D14*
X83038Y-43008D03*
X82288Y-43008D03*
X78985Y-37580D03*
X78235Y-37580D03*
X78265Y-38490D03*
X79015Y-38490D03*
X79005Y-36629D03*
X78255Y-36629D03*
X80945Y-32790D03*
X80195Y-32790D03*
G54D13*
X72570Y-27407D03*
X72570Y-28157D03*
G54D14*
X89025Y-36910D03*
X89775Y-36910D03*
G54D13*
X80415Y-31590D03*
X80415Y-30840D03*
G54D15*
X84216Y-39965D03*
X84019Y-39965D03*
X83822Y-39965D03*
X83625Y-39965D03*
X83428Y-39965D03*
X83428Y-41777D03*
X83625Y-41777D03*
X83822Y-41777D03*
X84019Y-41777D03*
X84216Y-41777D03*
G54D12*
X83809Y-38668D03*
X83809Y-38168D03*
X83809Y-37668D03*
X83809Y-37168D03*
X83809Y-36668D03*
X83809Y-36168D03*
X83809Y-35668D03*
X81609Y-35668D03*
X81609Y-36168D03*
X81609Y-36668D03*
X81609Y-37168D03*
X81609Y-37668D03*
X81609Y-38168D03*
X81609Y-38668D03*
G54D16*
X63000Y-39800D03*
X62990Y-38806D03*
X62990Y-37802D03*
X62990Y-36798D03*
X62990Y-35794D03*
X62990Y-34790D03*
X92400Y-35800D03*
X92400Y-34796D03*
G54D17*
X70550Y-34228D03*
G54D18*
X68050Y-33328D03*
G54D17*
X70550Y-32428D03*
X69752Y-30814D03*
G54D18*
X67252Y-29914D03*
G54D17*
X69752Y-29014D03*
G54D19*
X65100Y-27400D03*
G54D18*
X64200Y-29900D03*
G54D19*
X63300Y-27400D03*
G54D20*
X78400Y-26000D03*
X77400Y-26000D03*
X76400Y-26000D03*
X75400Y-26000D03*
X74400Y-26000D03*
X73400Y-26000D03*
X72400Y-26000D03*
X71400Y-26000D03*
X76000Y-45000D03*
X75000Y-45000D03*
X74000Y-45000D03*
X73000Y-45000D03*
X77000Y-45000D03*
X78000Y-45000D03*
X79000Y-45000D03*
X80000Y-45000D03*
X82000Y-45000D03*
X83000Y-45000D03*
X84000Y-45000D03*
X85000Y-45000D03*
X86000Y-45000D03*
X87000Y-45000D03*
X87000Y-26000D03*
X86000Y-26000D03*
X85000Y-26000D03*
X84000Y-26000D03*
X83000Y-26000D03*
X82000Y-26000D03*
X81000Y-26000D03*
X80000Y-26000D03*
G54D21*
X89054Y-30477D03*
X89073Y-31815D03*
G54D22*
X91078Y-29509D03*
X91056Y-31797D03*
G54D21*
X89054Y-40277D03*
X89073Y-41615D03*
G54D22*
X91078Y-39309D03*
X91056Y-41597D03*
G54D14*
X80037Y-29568D03*
X79287Y-29568D03*
G54D23*
X68869Y-40809D03*
X69460Y-40809D03*
X70051Y-40809D03*
G54D24*
X69460Y-39647D03*
G54D10*
G36*
X69854Y-40227D02*
X69657Y-40522D01*
X69263Y-40522D01*
X69066Y-40227D01*
X69854Y-40227D01*
X69854Y-40227D01*
G37*
G54D25*
X77580Y-34170D03*
X78880Y-34170D03*
X78810Y-32860D03*
X77510Y-32860D03*
X84688Y-33770D03*
X85988Y-33770D03*
X86076Y-35156D03*
X84776Y-35156D03*
X63790Y-41900D03*
X65090Y-41900D03*
G54D26*
X68260Y-35970D03*
X68260Y-37270D03*
X65320Y-35670D03*
X65320Y-36970D03*
X63780Y-32030D03*
X63780Y-33330D03*
G54D16*
X92640Y-27020D03*
X90940Y-34200D03*
X91040Y-36740D03*
X91080Y-43470D03*
M02*
