G04 (created by PCBNEW (2013-07-07 BZR 4022)-stable) date 12/24/2014 2:10:28 AM*
%MOIN*%
G04 Gerber Fmt 3.4, Leading zero omitted, Abs format*
%FSLAX34Y34*%
G01*
G70*
G90*
G04 APERTURE LIST*
%ADD10C,0.00590551*%
%ADD11C,0.005*%
%ADD12C,0.0039*%
%ADD13C,0.015*%
%ADD14C,0.0001*%
%ADD15C,0.0059*%
%ADD16C,0.0043*%
%ADD17C,0.008*%
%ADD18C,0.012*%
%ADD19C,0.0025*%
G04 APERTURE END LIST*
G54D10*
G54D11*
X81410Y-29620D02*
X82970Y-29620D01*
X82970Y-29620D02*
X82970Y-27720D01*
X82970Y-27720D02*
X81410Y-27720D01*
X81410Y-27720D02*
X81410Y-29620D01*
X81410Y-29420D02*
X80980Y-29420D01*
X81410Y-28920D02*
X80980Y-28920D01*
X81410Y-28420D02*
X80980Y-28420D01*
X80980Y-27920D02*
X81410Y-27920D01*
X82970Y-27920D02*
X83400Y-27920D01*
X83400Y-28420D02*
X82970Y-28420D01*
X83400Y-28920D02*
X82970Y-28920D01*
X83400Y-29420D02*
X82970Y-29420D01*
X82866Y-29330D02*
G75*
G03X82866Y-29330I-186J0D01*
G74*
G01*
G54D12*
X85535Y-36955D02*
G75*
G03X85535Y-36955I-50J0D01*
G74*
G01*
X85485Y-37405D02*
X85485Y-37005D01*
X85485Y-37005D02*
X86085Y-37005D01*
X86085Y-37005D02*
X86085Y-37405D01*
X86085Y-37805D02*
X86085Y-38205D01*
X86085Y-38205D02*
X85485Y-38205D01*
X85485Y-38205D02*
X85485Y-37805D01*
X83265Y-34448D02*
G75*
G03X83265Y-34448I-50J0D01*
G74*
G01*
X82765Y-34448D02*
X83165Y-34448D01*
X83165Y-34448D02*
X83165Y-35048D01*
X83165Y-35048D02*
X82765Y-35048D01*
X82365Y-35048D02*
X81965Y-35048D01*
X81965Y-35048D02*
X81965Y-34448D01*
X81965Y-34448D02*
X82365Y-34448D01*
X84694Y-36512D02*
G75*
G03X84694Y-36512I-50J0D01*
G74*
G01*
X85094Y-36512D02*
X84694Y-36512D01*
X84694Y-36512D02*
X84694Y-35912D01*
X84694Y-35912D02*
X85094Y-35912D01*
X85494Y-35912D02*
X85894Y-35912D01*
X85894Y-35912D02*
X85894Y-36512D01*
X85894Y-36512D02*
X85494Y-36512D01*
X81270Y-33940D02*
G75*
G03X81270Y-33940I-50J0D01*
G74*
G01*
X80770Y-33940D02*
X81170Y-33940D01*
X81170Y-33940D02*
X81170Y-34540D01*
X81170Y-34540D02*
X80770Y-34540D01*
X80370Y-34540D02*
X79970Y-34540D01*
X79970Y-34540D02*
X79970Y-33940D01*
X79970Y-33940D02*
X80370Y-33940D01*
X86735Y-36565D02*
G75*
G03X86735Y-36565I-50J0D01*
G74*
G01*
X86685Y-37015D02*
X86685Y-36615D01*
X86685Y-36615D02*
X87285Y-36615D01*
X87285Y-36615D02*
X87285Y-37015D01*
X87285Y-37415D02*
X87285Y-37815D01*
X87285Y-37815D02*
X86685Y-37815D01*
X86685Y-37815D02*
X86685Y-37415D01*
X85201Y-39155D02*
G75*
G03X85201Y-39155I-50J0D01*
G74*
G01*
X85151Y-38705D02*
X85151Y-39105D01*
X85151Y-39105D02*
X84551Y-39105D01*
X84551Y-39105D02*
X84551Y-38705D01*
X84551Y-38305D02*
X84551Y-37905D01*
X84551Y-37905D02*
X85151Y-37905D01*
X85151Y-37905D02*
X85151Y-38305D01*
X82350Y-39840D02*
G75*
G03X82350Y-39840I-50J0D01*
G74*
G01*
X81850Y-39840D02*
X82250Y-39840D01*
X82250Y-39840D02*
X82250Y-40440D01*
X82250Y-40440D02*
X81850Y-40440D01*
X81450Y-40440D02*
X81050Y-40440D01*
X81050Y-40440D02*
X81050Y-39840D01*
X81050Y-39840D02*
X81450Y-39840D01*
X86700Y-29100D02*
G75*
G03X86700Y-29100I-50J0D01*
G74*
G01*
X86200Y-29100D02*
X86600Y-29100D01*
X86600Y-29100D02*
X86600Y-29700D01*
X86600Y-29700D02*
X86200Y-29700D01*
X85800Y-29700D02*
X85400Y-29700D01*
X85400Y-29700D02*
X85400Y-29100D01*
X85400Y-29100D02*
X85800Y-29100D01*
X68210Y-41770D02*
G75*
G03X68210Y-41770I-50J0D01*
G74*
G01*
X68160Y-42220D02*
X68160Y-41820D01*
X68160Y-41820D02*
X68760Y-41820D01*
X68760Y-41820D02*
X68760Y-42220D01*
X68760Y-42620D02*
X68760Y-43020D01*
X68760Y-43020D02*
X68160Y-43020D01*
X68160Y-43020D02*
X68160Y-42620D01*
X67030Y-41790D02*
G75*
G03X67030Y-41790I-50J0D01*
G74*
G01*
X66980Y-42240D02*
X66980Y-41840D01*
X66980Y-41840D02*
X67580Y-41840D01*
X67580Y-41840D02*
X67580Y-42240D01*
X67580Y-42640D02*
X67580Y-43040D01*
X67580Y-43040D02*
X66980Y-43040D01*
X66980Y-43040D02*
X66980Y-42640D01*
X71130Y-41870D02*
G75*
G03X71130Y-41870I-50J0D01*
G74*
G01*
X71080Y-42320D02*
X71080Y-41920D01*
X71080Y-41920D02*
X71680Y-41920D01*
X71680Y-41920D02*
X71680Y-42320D01*
X71680Y-42720D02*
X71680Y-43120D01*
X71680Y-43120D02*
X71080Y-43120D01*
X71080Y-43120D02*
X71080Y-42720D01*
X66450Y-43070D02*
G75*
G03X66450Y-43070I-50J0D01*
G74*
G01*
X66400Y-42620D02*
X66400Y-43020D01*
X66400Y-43020D02*
X65800Y-43020D01*
X65800Y-43020D02*
X65800Y-42620D01*
X65800Y-42220D02*
X65800Y-41820D01*
X65800Y-41820D02*
X66400Y-41820D01*
X66400Y-41820D02*
X66400Y-42220D01*
X86350Y-30150D02*
G75*
G03X86350Y-30150I-50J0D01*
G74*
G01*
X86300Y-30600D02*
X86300Y-30200D01*
X86300Y-30200D02*
X86900Y-30200D01*
X86900Y-30200D02*
X86900Y-30600D01*
X86900Y-31000D02*
X86900Y-31400D01*
X86900Y-31400D02*
X86300Y-31400D01*
X86300Y-31400D02*
X86300Y-31000D01*
X85950Y-31450D02*
G75*
G03X85950Y-31450I-50J0D01*
G74*
G01*
X85900Y-31000D02*
X85900Y-31400D01*
X85900Y-31400D02*
X85300Y-31400D01*
X85300Y-31400D02*
X85300Y-31000D01*
X85300Y-30600D02*
X85300Y-30200D01*
X85300Y-30200D02*
X85900Y-30200D01*
X85900Y-30200D02*
X85900Y-30600D01*
X79360Y-35230D02*
G75*
G03X79360Y-35230I-50J0D01*
G74*
G01*
X78860Y-35230D02*
X79260Y-35230D01*
X79260Y-35230D02*
X79260Y-35830D01*
X79260Y-35830D02*
X78860Y-35830D01*
X78460Y-35830D02*
X78060Y-35830D01*
X78060Y-35830D02*
X78060Y-35230D01*
X78060Y-35230D02*
X78460Y-35230D01*
X69116Y-26870D02*
G75*
G03X69116Y-26870I-50J0D01*
G74*
G01*
X68616Y-26870D02*
X69016Y-26870D01*
X69016Y-26870D02*
X69016Y-27470D01*
X69016Y-27470D02*
X68616Y-27470D01*
X68216Y-27470D02*
X67816Y-27470D01*
X67816Y-27470D02*
X67816Y-26870D01*
X67816Y-26870D02*
X68216Y-26870D01*
X71152Y-27076D02*
G75*
G03X71152Y-27076I-50J0D01*
G74*
G01*
X71102Y-27526D02*
X71102Y-27126D01*
X71102Y-27126D02*
X71702Y-27126D01*
X71702Y-27126D02*
X71702Y-27526D01*
X71702Y-27926D02*
X71702Y-28326D01*
X71702Y-28326D02*
X71102Y-28326D01*
X71102Y-28326D02*
X71102Y-27926D01*
X84476Y-43679D02*
G75*
G03X84476Y-43679I-50J0D01*
G74*
G01*
X84426Y-43229D02*
X84426Y-43629D01*
X84426Y-43629D02*
X83826Y-43629D01*
X83826Y-43629D02*
X83826Y-43229D01*
X83826Y-42829D02*
X83826Y-42429D01*
X83826Y-42429D02*
X84426Y-42429D01*
X84426Y-42429D02*
X84426Y-42829D01*
X86072Y-43000D02*
G75*
G03X86072Y-43000I-50J0D01*
G74*
G01*
X86022Y-42550D02*
X86022Y-42950D01*
X86022Y-42950D02*
X85422Y-42950D01*
X85422Y-42950D02*
X85422Y-42550D01*
X85422Y-42150D02*
X85422Y-41750D01*
X85422Y-41750D02*
X86022Y-41750D01*
X86022Y-41750D02*
X86022Y-42150D01*
X83363Y-42708D02*
G75*
G03X83363Y-42708I-50J0D01*
G74*
G01*
X82863Y-42708D02*
X83263Y-42708D01*
X83263Y-42708D02*
X83263Y-43308D01*
X83263Y-43308D02*
X82863Y-43308D01*
X82463Y-43308D02*
X82063Y-43308D01*
X82063Y-43308D02*
X82063Y-42708D01*
X82063Y-42708D02*
X82463Y-42708D01*
X79310Y-37280D02*
G75*
G03X79310Y-37280I-50J0D01*
G74*
G01*
X78810Y-37280D02*
X79210Y-37280D01*
X79210Y-37280D02*
X79210Y-37880D01*
X79210Y-37880D02*
X78810Y-37880D01*
X78410Y-37880D02*
X78010Y-37880D01*
X78010Y-37880D02*
X78010Y-37280D01*
X78010Y-37280D02*
X78410Y-37280D01*
X78040Y-38790D02*
G75*
G03X78040Y-38790I-50J0D01*
G74*
G01*
X78440Y-38790D02*
X78040Y-38790D01*
X78040Y-38790D02*
X78040Y-38190D01*
X78040Y-38190D02*
X78440Y-38190D01*
X78840Y-38190D02*
X79240Y-38190D01*
X79240Y-38190D02*
X79240Y-38790D01*
X79240Y-38790D02*
X78840Y-38790D01*
X79330Y-36329D02*
G75*
G03X79330Y-36329I-50J0D01*
G74*
G01*
X78830Y-36329D02*
X79230Y-36329D01*
X79230Y-36329D02*
X79230Y-36929D01*
X79230Y-36929D02*
X78830Y-36929D01*
X78430Y-36929D02*
X78030Y-36929D01*
X78030Y-36929D02*
X78030Y-36329D01*
X78030Y-36329D02*
X78430Y-36329D01*
X81270Y-32490D02*
G75*
G03X81270Y-32490I-50J0D01*
G74*
G01*
X80770Y-32490D02*
X81170Y-32490D01*
X81170Y-32490D02*
X81170Y-33090D01*
X81170Y-33090D02*
X80770Y-33090D01*
X80370Y-33090D02*
X79970Y-33090D01*
X79970Y-33090D02*
X79970Y-32490D01*
X79970Y-32490D02*
X80370Y-32490D01*
X72320Y-27132D02*
G75*
G03X72320Y-27132I-50J0D01*
G74*
G01*
X72270Y-27582D02*
X72270Y-27182D01*
X72270Y-27182D02*
X72870Y-27182D01*
X72870Y-27182D02*
X72870Y-27582D01*
X72870Y-27982D02*
X72870Y-28382D01*
X72870Y-28382D02*
X72270Y-28382D01*
X72270Y-28382D02*
X72270Y-27982D01*
X88800Y-37210D02*
G75*
G03X88800Y-37210I-50J0D01*
G74*
G01*
X89200Y-37210D02*
X88800Y-37210D01*
X88800Y-37210D02*
X88800Y-36610D01*
X88800Y-36610D02*
X89200Y-36610D01*
X89600Y-36610D02*
X90000Y-36610D01*
X90000Y-36610D02*
X90000Y-37210D01*
X90000Y-37210D02*
X89600Y-37210D01*
X80765Y-31865D02*
G75*
G03X80765Y-31865I-50J0D01*
G74*
G01*
X80715Y-31415D02*
X80715Y-31815D01*
X80715Y-31815D02*
X80115Y-31815D01*
X80115Y-31815D02*
X80115Y-31415D01*
X80115Y-31015D02*
X80115Y-30615D01*
X80115Y-30615D02*
X80715Y-30615D01*
X80715Y-30615D02*
X80715Y-31015D01*
G54D11*
X84222Y-41821D02*
X84222Y-41471D01*
X84022Y-41821D02*
X84022Y-41471D01*
X83822Y-41821D02*
X83822Y-41471D01*
X83632Y-41821D02*
X83632Y-41471D01*
X83422Y-41821D02*
X83422Y-41471D01*
X83422Y-39921D02*
X83422Y-40271D01*
X83622Y-39921D02*
X83622Y-40271D01*
X83822Y-39921D02*
X83822Y-40271D01*
X84022Y-39921D02*
X84022Y-40271D01*
X84212Y-39921D02*
X84212Y-40271D01*
X84287Y-40516D02*
G75*
G03X84287Y-40516I-111J0D01*
G74*
G01*
X83231Y-41462D02*
X84413Y-41462D01*
X84413Y-41462D02*
X84413Y-40280D01*
X84413Y-40280D02*
X83231Y-40280D01*
X83231Y-40280D02*
X83231Y-41462D01*
X81929Y-38868D02*
X83489Y-38868D01*
X83489Y-38868D02*
X83489Y-35468D01*
X83489Y-35468D02*
X81929Y-35468D01*
X81929Y-35468D02*
X81929Y-38868D01*
X81929Y-38168D02*
X81499Y-38168D01*
X81929Y-37668D02*
X81499Y-37668D01*
X81929Y-37168D02*
X81499Y-37168D01*
X81929Y-38668D02*
X81499Y-38668D01*
X81499Y-36668D02*
X81929Y-36668D01*
X81499Y-36168D02*
X81929Y-36168D01*
X81499Y-35668D02*
X81929Y-35668D01*
X83489Y-35668D02*
X83919Y-35668D01*
X83489Y-36168D02*
X83919Y-36168D01*
X83489Y-38668D02*
X83919Y-38668D01*
X83919Y-38168D02*
X83489Y-38168D01*
X83919Y-36668D02*
X83489Y-36668D01*
X83919Y-37168D02*
X83489Y-37168D01*
X83919Y-37668D02*
X83489Y-37668D01*
X83385Y-38578D02*
G75*
G03X83385Y-38578I-186J0D01*
G74*
G01*
G54D10*
X63377Y-40390D02*
X62393Y-40390D01*
X62393Y-40390D02*
X62393Y-40193D01*
X63377Y-40390D02*
X63574Y-40390D01*
X63574Y-40390D02*
X63574Y-40193D01*
X63377Y-34288D02*
X62393Y-34288D01*
X62393Y-40193D02*
X62393Y-34288D01*
X63574Y-40193D02*
X63574Y-34288D01*
X63574Y-34288D02*
X63377Y-34288D01*
X91907Y-36292D02*
X91907Y-34225D01*
X91907Y-34225D02*
X92892Y-34225D01*
X92892Y-34225D02*
X92892Y-36292D01*
X92892Y-36292D02*
X91907Y-36292D01*
G54D11*
X69950Y-32778D02*
X71200Y-32778D01*
X71200Y-32778D02*
X71200Y-32078D01*
X71200Y-32078D02*
X69950Y-32078D01*
X69950Y-34578D02*
X71200Y-34578D01*
X71200Y-34578D02*
X71200Y-33878D01*
X71200Y-33878D02*
X69950Y-33878D01*
X67550Y-31978D02*
X69950Y-31978D01*
X69950Y-31978D02*
X69950Y-34678D01*
X69950Y-34678D02*
X66850Y-34678D01*
X66800Y-34678D02*
X66800Y-31978D01*
X66850Y-31978D02*
X67550Y-31978D01*
X69152Y-29364D02*
X70402Y-29364D01*
X70402Y-29364D02*
X70402Y-28664D01*
X70402Y-28664D02*
X69152Y-28664D01*
X69152Y-31164D02*
X70402Y-31164D01*
X70402Y-31164D02*
X70402Y-30464D01*
X70402Y-30464D02*
X69152Y-30464D01*
X66752Y-28564D02*
X69152Y-28564D01*
X69152Y-28564D02*
X69152Y-31264D01*
X69152Y-31264D02*
X66052Y-31264D01*
X66002Y-31264D02*
X66002Y-28564D01*
X66052Y-28564D02*
X66752Y-28564D01*
X63650Y-28000D02*
X63650Y-26750D01*
X63650Y-26750D02*
X62950Y-26750D01*
X62950Y-26750D02*
X62950Y-28000D01*
X65450Y-28000D02*
X65450Y-26750D01*
X65450Y-26750D02*
X64750Y-26750D01*
X64750Y-26750D02*
X64750Y-28000D01*
X62850Y-30400D02*
X62850Y-28000D01*
X62850Y-28000D02*
X65550Y-28000D01*
X65550Y-28000D02*
X65550Y-31100D01*
X65550Y-31150D02*
X62850Y-31150D01*
X62850Y-31100D02*
X62850Y-30400D01*
G54D10*
X102010Y-32225D02*
X101890Y-32235D01*
X101890Y-32235D02*
X101900Y-32225D01*
X101920Y-28675D02*
X101890Y-28675D01*
X101890Y-28675D02*
X102010Y-28675D01*
X102029Y-32211D02*
X102029Y-28667D01*
X94062Y-32211D02*
X93826Y-32211D01*
X93984Y-28667D02*
X93826Y-28667D01*
X94102Y-28667D02*
X93866Y-28667D01*
X93905Y-32211D02*
X101897Y-32211D01*
X101858Y-28667D02*
X93984Y-28667D01*
X88039Y-33392D02*
X88039Y-27604D01*
X88039Y-27604D02*
X93787Y-27604D01*
X93826Y-27644D02*
X93826Y-33431D01*
X93787Y-33392D02*
X88039Y-33392D01*
X102010Y-42025D02*
X101890Y-42035D01*
X101890Y-42035D02*
X101900Y-42025D01*
X101920Y-38475D02*
X101890Y-38475D01*
X101890Y-38475D02*
X102010Y-38475D01*
X102029Y-42011D02*
X102029Y-38467D01*
X94062Y-42011D02*
X93826Y-42011D01*
X93984Y-38467D02*
X93826Y-38467D01*
X94102Y-38467D02*
X93866Y-38467D01*
X93905Y-42011D02*
X101897Y-42011D01*
X101858Y-38467D02*
X93984Y-38467D01*
X88039Y-43192D02*
X88039Y-37404D01*
X88039Y-37404D02*
X93787Y-37404D01*
X93826Y-37444D02*
X93826Y-43231D01*
X93787Y-43192D02*
X88039Y-43192D01*
G54D12*
X80362Y-29268D02*
G75*
G03X80362Y-29268I-50J0D01*
G74*
G01*
X79862Y-29268D02*
X80262Y-29268D01*
X80262Y-29268D02*
X80262Y-29868D01*
X80262Y-29868D02*
X79862Y-29868D01*
X79462Y-29868D02*
X79062Y-29868D01*
X79062Y-29868D02*
X79062Y-29268D01*
X79062Y-29268D02*
X79462Y-29268D01*
G54D13*
X68712Y-40159D02*
X68810Y-40041D01*
X68810Y-40041D02*
X68850Y-39982D01*
X68850Y-39982D02*
X68850Y-40316D01*
X68574Y-39568D02*
X68574Y-40277D01*
X68574Y-39568D02*
X68830Y-39568D01*
X70346Y-39568D02*
X70346Y-40277D01*
X70346Y-39568D02*
X70090Y-39568D01*
G54D11*
X77230Y-33720D02*
X77230Y-34620D01*
X77230Y-34620D02*
X77880Y-34620D01*
X78580Y-33720D02*
X79230Y-33720D01*
X79230Y-33720D02*
X79230Y-34620D01*
X79230Y-34620D02*
X78580Y-34620D01*
X77880Y-33720D02*
X77230Y-33720D01*
X79160Y-33310D02*
X79160Y-32410D01*
X79160Y-32410D02*
X78510Y-32410D01*
X77810Y-33310D02*
X77160Y-33310D01*
X77160Y-33310D02*
X77160Y-32410D01*
X77160Y-32410D02*
X77810Y-32410D01*
X78510Y-33310D02*
X79160Y-33310D01*
X84338Y-33320D02*
X84338Y-34220D01*
X84338Y-34220D02*
X84988Y-34220D01*
X85688Y-33320D02*
X86338Y-33320D01*
X86338Y-33320D02*
X86338Y-34220D01*
X86338Y-34220D02*
X85688Y-34220D01*
X84988Y-33320D02*
X84338Y-33320D01*
X86426Y-35606D02*
X86426Y-34706D01*
X86426Y-34706D02*
X85776Y-34706D01*
X85076Y-35606D02*
X84426Y-35606D01*
X84426Y-35606D02*
X84426Y-34706D01*
X84426Y-34706D02*
X85076Y-34706D01*
X85776Y-35606D02*
X86426Y-35606D01*
X63440Y-41450D02*
X63440Y-42350D01*
X63440Y-42350D02*
X64090Y-42350D01*
X64790Y-41450D02*
X65440Y-41450D01*
X65440Y-41450D02*
X65440Y-42350D01*
X65440Y-42350D02*
X64790Y-42350D01*
X64090Y-41450D02*
X63440Y-41450D01*
X68710Y-35620D02*
X67810Y-35620D01*
X67810Y-35620D02*
X67810Y-36270D01*
X68710Y-36970D02*
X68710Y-37620D01*
X68710Y-37620D02*
X67810Y-37620D01*
X67810Y-37620D02*
X67810Y-36970D01*
X68710Y-36270D02*
X68710Y-35620D01*
X65770Y-35320D02*
X64870Y-35320D01*
X64870Y-35320D02*
X64870Y-35970D01*
X65770Y-36670D02*
X65770Y-37320D01*
X65770Y-37320D02*
X64870Y-37320D01*
X64870Y-37320D02*
X64870Y-36670D01*
X65770Y-35970D02*
X65770Y-35320D01*
X64230Y-31680D02*
X63330Y-31680D01*
X63330Y-31680D02*
X63330Y-32330D01*
X64230Y-33030D02*
X64230Y-33680D01*
X64230Y-33680D02*
X63330Y-33680D01*
X63330Y-33680D02*
X63330Y-33030D01*
X64230Y-32330D02*
X64230Y-31680D01*
G54D14*
G36*
X74757Y-30953D02*
X74757Y-30976D01*
X74757Y-30998D01*
X74757Y-31019D01*
X74756Y-31038D01*
X74756Y-31055D01*
X74755Y-31067D01*
X74754Y-31076D01*
X74754Y-31080D01*
X74754Y-31080D01*
X74752Y-31084D01*
X74750Y-31091D01*
X74749Y-31102D01*
X74748Y-31105D01*
X74747Y-31116D01*
X74747Y-31118D01*
X74747Y-30957D01*
X74747Y-30940D01*
X74747Y-30923D01*
X74746Y-30908D01*
X74746Y-30895D01*
X74745Y-30887D01*
X74745Y-30882D01*
X74745Y-30882D01*
X74743Y-30879D01*
X74742Y-30871D01*
X74741Y-30860D01*
X74741Y-30847D01*
X74740Y-30845D01*
X74740Y-30832D01*
X74739Y-30820D01*
X74738Y-30811D01*
X74737Y-30807D01*
X74737Y-30807D01*
X74735Y-30802D01*
X74735Y-30795D01*
X74734Y-30788D01*
X74733Y-30783D01*
X74731Y-30779D01*
X74730Y-30771D01*
X74729Y-30761D01*
X74729Y-30757D01*
X74727Y-30747D01*
X74726Y-30739D01*
X74725Y-30734D01*
X74724Y-30734D01*
X74723Y-30732D01*
X74721Y-30725D01*
X74720Y-30720D01*
X74719Y-30712D01*
X74717Y-30706D01*
X74716Y-30704D01*
X74714Y-30701D01*
X74713Y-30694D01*
X74712Y-30687D01*
X74710Y-30679D01*
X74708Y-30673D01*
X74707Y-30672D01*
X74705Y-30670D01*
X74706Y-30668D01*
X74706Y-30663D01*
X74705Y-30662D01*
X74703Y-30659D01*
X74701Y-30652D01*
X74701Y-30647D01*
X74699Y-30639D01*
X74697Y-30634D01*
X74696Y-30633D01*
X74694Y-30630D01*
X74692Y-30624D01*
X74692Y-30623D01*
X74690Y-30613D01*
X74686Y-30605D01*
X74683Y-30598D01*
X74682Y-30592D01*
X74681Y-30588D01*
X74679Y-30587D01*
X74677Y-30585D01*
X74675Y-30579D01*
X74675Y-30578D01*
X74673Y-30571D01*
X74671Y-30566D01*
X74671Y-30566D01*
X74669Y-30563D01*
X74670Y-30561D01*
X74670Y-30557D01*
X74668Y-30556D01*
X74666Y-30554D01*
X74664Y-30548D01*
X74662Y-30543D01*
X74658Y-30534D01*
X74652Y-30522D01*
X74645Y-30508D01*
X74637Y-30492D01*
X74637Y-30490D01*
X74629Y-30474D01*
X74621Y-30460D01*
X74615Y-30448D01*
X74610Y-30438D01*
X74608Y-30433D01*
X74608Y-30433D01*
X74605Y-30428D01*
X74602Y-30427D01*
X74600Y-30425D01*
X74600Y-30424D01*
X74599Y-30420D01*
X74595Y-30414D01*
X74591Y-30407D01*
X74587Y-30402D01*
X74586Y-30401D01*
X74584Y-30398D01*
X74582Y-30394D01*
X74576Y-30383D01*
X74571Y-30376D01*
X74566Y-30369D01*
X74563Y-30364D01*
X74558Y-30358D01*
X74556Y-30353D01*
X74555Y-30352D01*
X74554Y-30349D01*
X74549Y-30343D01*
X74545Y-30338D01*
X74540Y-30331D01*
X74536Y-30325D01*
X74536Y-30323D01*
X74534Y-30320D01*
X74529Y-30315D01*
X74527Y-30314D01*
X74522Y-30309D01*
X74519Y-30305D01*
X74519Y-30305D01*
X74517Y-30301D01*
X74512Y-30295D01*
X74508Y-30290D01*
X74501Y-30282D01*
X74494Y-30274D01*
X74492Y-30270D01*
X74488Y-30266D01*
X74482Y-30259D01*
X74472Y-30249D01*
X74461Y-30237D01*
X74449Y-30224D01*
X74435Y-30211D01*
X74422Y-30197D01*
X74409Y-30184D01*
X74397Y-30172D01*
X74387Y-30162D01*
X74379Y-30154D01*
X74373Y-30149D01*
X74371Y-30148D01*
X74368Y-30146D01*
X74362Y-30142D01*
X74360Y-30140D01*
X74349Y-30130D01*
X74337Y-30120D01*
X74327Y-30111D01*
X74318Y-30104D01*
X74312Y-30099D01*
X74305Y-30094D01*
X74298Y-30089D01*
X74292Y-30085D01*
X74288Y-30083D01*
X74288Y-30083D01*
X74285Y-30081D01*
X74285Y-30080D01*
X74282Y-30077D01*
X74280Y-30075D01*
X74275Y-30073D01*
X74267Y-30068D01*
X74265Y-30066D01*
X74258Y-30061D01*
X74253Y-30058D01*
X74252Y-30058D01*
X74249Y-30056D01*
X74243Y-30052D01*
X74238Y-30048D01*
X74231Y-30043D01*
X74224Y-30038D01*
X74222Y-30037D01*
X74218Y-30034D01*
X74217Y-30033D01*
X74215Y-30030D01*
X74209Y-30028D01*
X74203Y-30026D01*
X74200Y-30024D01*
X74196Y-30021D01*
X74187Y-30016D01*
X74173Y-30009D01*
X74167Y-30006D01*
X74159Y-30001D01*
X74154Y-29998D01*
X74152Y-29996D01*
X74150Y-29993D01*
X74145Y-29991D01*
X74138Y-29989D01*
X74135Y-29988D01*
X74132Y-29985D01*
X74125Y-29982D01*
X74117Y-29977D01*
X74108Y-29974D01*
X74102Y-29971D01*
X74099Y-29970D01*
X74096Y-29968D01*
X74096Y-29968D01*
X74093Y-29965D01*
X74088Y-29963D01*
X74087Y-29963D01*
X74080Y-29961D01*
X74079Y-29960D01*
X74079Y-29908D01*
X74079Y-29894D01*
X74079Y-29879D01*
X74079Y-29866D01*
X74078Y-29855D01*
X74077Y-29847D01*
X74077Y-29847D01*
X74076Y-29837D01*
X74074Y-29830D01*
X74073Y-29828D01*
X74071Y-29822D01*
X74070Y-29813D01*
X74069Y-29809D01*
X74068Y-29801D01*
X74066Y-29796D01*
X74065Y-29796D01*
X74063Y-29793D01*
X74062Y-29787D01*
X74061Y-29783D01*
X74059Y-29773D01*
X74056Y-29764D01*
X74055Y-29763D01*
X74050Y-29752D01*
X74048Y-29745D01*
X74048Y-29741D01*
X74046Y-29739D01*
X74045Y-29739D01*
X74043Y-29737D01*
X74041Y-29731D01*
X74041Y-29731D01*
X74039Y-29725D01*
X74037Y-29722D01*
X74037Y-29722D01*
X74035Y-29720D01*
X74032Y-29714D01*
X74028Y-29707D01*
X74023Y-29698D01*
X74021Y-29695D01*
X74017Y-29688D01*
X74013Y-29682D01*
X74012Y-29680D01*
X74009Y-29675D01*
X74004Y-29669D01*
X73999Y-29664D01*
X73997Y-29661D01*
X73997Y-29661D01*
X73995Y-29657D01*
X73990Y-29651D01*
X73982Y-29642D01*
X73973Y-29631D01*
X73962Y-29620D01*
X73951Y-29609D01*
X73940Y-29598D01*
X73930Y-29589D01*
X73923Y-29582D01*
X73919Y-29580D01*
X73912Y-29575D01*
X73907Y-29572D01*
X73906Y-29572D01*
X73902Y-29569D01*
X73901Y-29567D01*
X73899Y-29564D01*
X73898Y-29564D01*
X73894Y-29563D01*
X73888Y-29559D01*
X73881Y-29554D01*
X73876Y-29549D01*
X73875Y-29548D01*
X73871Y-29545D01*
X73870Y-29545D01*
X73866Y-29543D01*
X73860Y-29539D01*
X73856Y-29536D01*
X73848Y-29531D01*
X73839Y-29527D01*
X73837Y-29526D01*
X73831Y-29524D01*
X73828Y-29522D01*
X73828Y-29522D01*
X73826Y-29520D01*
X73820Y-29518D01*
X73820Y-29518D01*
X73814Y-29516D01*
X73811Y-29513D01*
X73809Y-29511D01*
X73808Y-29511D01*
X73804Y-29510D01*
X73796Y-29507D01*
X73785Y-29502D01*
X73772Y-29496D01*
X73758Y-29490D01*
X73749Y-29485D01*
X73744Y-29484D01*
X73735Y-29482D01*
X73725Y-29480D01*
X73716Y-29478D01*
X73709Y-29476D01*
X73707Y-29474D01*
X73704Y-29473D01*
X73698Y-29471D01*
X73689Y-29470D01*
X73680Y-29468D01*
X73673Y-29467D01*
X73670Y-29465D01*
X73667Y-29464D01*
X73659Y-29463D01*
X73649Y-29462D01*
X73644Y-29461D01*
X73633Y-29460D01*
X73624Y-29459D01*
X73619Y-29457D01*
X73618Y-29457D01*
X73615Y-29456D01*
X73607Y-29456D01*
X73595Y-29455D01*
X73580Y-29455D01*
X73564Y-29455D01*
X73546Y-29455D01*
X73527Y-29455D01*
X73510Y-29455D01*
X73493Y-29455D01*
X73479Y-29455D01*
X73469Y-29456D01*
X73462Y-29456D01*
X73461Y-29457D01*
X73457Y-29458D01*
X73450Y-29460D01*
X73439Y-29461D01*
X73435Y-29461D01*
X73423Y-29462D01*
X73414Y-29464D01*
X73408Y-29465D01*
X73407Y-29465D01*
X73403Y-29467D01*
X73395Y-29469D01*
X73388Y-29470D01*
X73379Y-29471D01*
X73372Y-29473D01*
X73370Y-29474D01*
X73366Y-29476D01*
X73358Y-29478D01*
X73351Y-29480D01*
X73341Y-29482D01*
X73333Y-29484D01*
X73329Y-29485D01*
X73315Y-29492D01*
X73304Y-29497D01*
X73296Y-29499D01*
X73294Y-29500D01*
X73290Y-29501D01*
X73290Y-29502D01*
X73288Y-29505D01*
X73287Y-29505D01*
X73283Y-29506D01*
X73276Y-29509D01*
X73267Y-29513D01*
X73259Y-29518D01*
X73253Y-29521D01*
X73251Y-29523D01*
X73248Y-29524D01*
X73243Y-29525D01*
X73237Y-29527D01*
X73230Y-29531D01*
X73224Y-29535D01*
X73220Y-29536D01*
X73220Y-29536D01*
X73217Y-29538D01*
X73215Y-29540D01*
X73212Y-29544D01*
X73211Y-29545D01*
X73207Y-29546D01*
X73201Y-29551D01*
X73196Y-29554D01*
X73189Y-29560D01*
X73183Y-29564D01*
X73181Y-29564D01*
X73178Y-29566D01*
X73172Y-29570D01*
X73169Y-29573D01*
X73162Y-29578D01*
X73157Y-29581D01*
X73156Y-29581D01*
X73153Y-29583D01*
X73148Y-29588D01*
X73140Y-29596D01*
X73130Y-29605D01*
X73120Y-29615D01*
X73110Y-29626D01*
X73101Y-29635D01*
X73093Y-29643D01*
X73088Y-29648D01*
X73087Y-29651D01*
X73085Y-29654D01*
X73081Y-29660D01*
X73077Y-29665D01*
X73072Y-29672D01*
X73068Y-29678D01*
X73067Y-29680D01*
X73065Y-29684D01*
X73063Y-29685D01*
X73060Y-29688D01*
X73057Y-29694D01*
X73055Y-29701D01*
X73052Y-29704D01*
X73048Y-29708D01*
X73046Y-29714D01*
X73044Y-29720D01*
X73042Y-29722D01*
X73040Y-29725D01*
X73038Y-29731D01*
X73038Y-29731D01*
X73036Y-29737D01*
X73033Y-29739D01*
X73031Y-29742D01*
X73029Y-29748D01*
X73029Y-29749D01*
X73027Y-29755D01*
X73025Y-29759D01*
X73025Y-29759D01*
X73023Y-29761D01*
X73021Y-29767D01*
X73021Y-29769D01*
X73019Y-29776D01*
X73017Y-29780D01*
X73016Y-29780D01*
X73015Y-29784D01*
X73015Y-29786D01*
X73015Y-29791D01*
X73014Y-29794D01*
X73012Y-29799D01*
X73010Y-29807D01*
X73009Y-29811D01*
X73007Y-29820D01*
X73005Y-29827D01*
X73005Y-29829D01*
X73003Y-29833D01*
X73002Y-29841D01*
X73001Y-29853D01*
X73000Y-29866D01*
X72999Y-29881D01*
X72998Y-29892D01*
X72997Y-29898D01*
X72996Y-29900D01*
X72995Y-29901D01*
X72996Y-29903D01*
X72998Y-29908D01*
X72999Y-29917D01*
X73000Y-29926D01*
X73000Y-29935D01*
X73000Y-29942D01*
X73001Y-29945D01*
X73005Y-29944D01*
X73011Y-29941D01*
X73016Y-29939D01*
X73026Y-29934D01*
X73038Y-29929D01*
X73046Y-29925D01*
X73059Y-29919D01*
X73071Y-29915D01*
X73078Y-29913D01*
X73078Y-29913D01*
X73082Y-29911D01*
X73083Y-29911D01*
X73087Y-29909D01*
X73094Y-29907D01*
X73095Y-29907D01*
X73103Y-29905D01*
X73108Y-29903D01*
X73108Y-29903D01*
X73112Y-29901D01*
X73120Y-29899D01*
X73121Y-29898D01*
X73128Y-29896D01*
X73133Y-29894D01*
X73133Y-29894D01*
X73138Y-29892D01*
X73145Y-29890D01*
X73146Y-29890D01*
X73153Y-29888D01*
X73157Y-29886D01*
X73157Y-29886D01*
X73161Y-29884D01*
X73168Y-29882D01*
X73177Y-29880D01*
X73187Y-29878D01*
X73196Y-29876D01*
X73200Y-29874D01*
X73206Y-29872D01*
X73214Y-29871D01*
X73219Y-29870D01*
X73227Y-29869D01*
X73232Y-29867D01*
X73233Y-29866D01*
X73236Y-29864D01*
X73243Y-29863D01*
X73251Y-29862D01*
X73260Y-29860D01*
X73267Y-29859D01*
X73270Y-29857D01*
X73273Y-29856D01*
X73281Y-29855D01*
X73292Y-29853D01*
X73303Y-29852D01*
X73316Y-29850D01*
X73327Y-29849D01*
X73335Y-29847D01*
X73338Y-29846D01*
X73343Y-29845D01*
X73351Y-29844D01*
X73363Y-29842D01*
X73368Y-29842D01*
X73379Y-29841D01*
X73389Y-29839D01*
X73395Y-29837D01*
X73397Y-29837D01*
X73400Y-29836D01*
X73409Y-29835D01*
X73422Y-29835D01*
X73439Y-29834D01*
X73458Y-29834D01*
X73480Y-29834D01*
X73504Y-29833D01*
X73528Y-29833D01*
X73553Y-29833D01*
X73577Y-29833D01*
X73601Y-29834D01*
X73622Y-29834D01*
X73642Y-29834D01*
X73658Y-29835D01*
X73671Y-29835D01*
X73679Y-29836D01*
X73682Y-29837D01*
X73686Y-29838D01*
X73695Y-29840D01*
X73706Y-29842D01*
X73710Y-29842D01*
X73722Y-29843D01*
X73732Y-29844D01*
X73738Y-29846D01*
X73739Y-29846D01*
X73744Y-29847D01*
X73754Y-29849D01*
X73766Y-29851D01*
X73774Y-29852D01*
X73787Y-29853D01*
X73797Y-29855D01*
X73804Y-29856D01*
X73807Y-29857D01*
X73811Y-29859D01*
X73819Y-29861D01*
X73826Y-29862D01*
X73835Y-29863D01*
X73841Y-29865D01*
X73844Y-29866D01*
X73847Y-29867D01*
X73854Y-29869D01*
X73860Y-29870D01*
X73869Y-29872D01*
X73875Y-29873D01*
X73877Y-29874D01*
X73882Y-29876D01*
X73889Y-29878D01*
X73894Y-29878D01*
X73904Y-29880D01*
X73914Y-29883D01*
X73916Y-29884D01*
X73925Y-29888D01*
X73934Y-29890D01*
X73941Y-29892D01*
X73945Y-29894D01*
X73945Y-29894D01*
X73949Y-29896D01*
X73955Y-29898D01*
X73958Y-29898D01*
X73965Y-29900D01*
X73970Y-29902D01*
X73970Y-29903D01*
X73974Y-29905D01*
X73981Y-29906D01*
X73983Y-29907D01*
X73991Y-29909D01*
X73995Y-29911D01*
X73996Y-29911D01*
X73999Y-29913D01*
X74000Y-29912D01*
X74003Y-29913D01*
X74004Y-29914D01*
X74008Y-29916D01*
X74010Y-29917D01*
X74015Y-29918D01*
X74023Y-29921D01*
X74031Y-29925D01*
X74038Y-29928D01*
X74042Y-29931D01*
X74042Y-29931D01*
X74045Y-29933D01*
X74047Y-29934D01*
X74052Y-29935D01*
X74060Y-29938D01*
X74064Y-29940D01*
X74071Y-29943D01*
X74076Y-29944D01*
X74078Y-29944D01*
X74078Y-29941D01*
X74079Y-29933D01*
X74079Y-29922D01*
X74079Y-29908D01*
X74079Y-29960D01*
X74071Y-29957D01*
X74064Y-29953D01*
X74054Y-29949D01*
X74045Y-29945D01*
X74040Y-29944D01*
X74034Y-29942D01*
X74031Y-29939D01*
X74031Y-29939D01*
X74029Y-29937D01*
X74023Y-29935D01*
X74023Y-29935D01*
X74017Y-29933D01*
X74014Y-29931D01*
X74012Y-29929D01*
X74006Y-29927D01*
X74004Y-29927D01*
X73996Y-29925D01*
X73991Y-29923D01*
X73990Y-29922D01*
X73986Y-29921D01*
X73978Y-29918D01*
X73972Y-29917D01*
X73963Y-29914D01*
X73956Y-29912D01*
X73954Y-29911D01*
X73949Y-29909D01*
X73942Y-29907D01*
X73940Y-29907D01*
X73933Y-29905D01*
X73930Y-29903D01*
X73930Y-29903D01*
X73927Y-29901D01*
X73921Y-29899D01*
X73919Y-29898D01*
X73911Y-29896D01*
X73906Y-29894D01*
X73905Y-29894D01*
X73901Y-29892D01*
X73893Y-29890D01*
X73888Y-29890D01*
X73880Y-29888D01*
X73873Y-29886D01*
X73872Y-29886D01*
X73868Y-29884D01*
X73860Y-29882D01*
X73850Y-29880D01*
X73848Y-29880D01*
X73837Y-29878D01*
X73829Y-29876D01*
X73824Y-29875D01*
X73824Y-29874D01*
X73820Y-29873D01*
X73812Y-29871D01*
X73805Y-29870D01*
X73796Y-29869D01*
X73789Y-29867D01*
X73787Y-29866D01*
X73784Y-29865D01*
X73776Y-29863D01*
X73766Y-29862D01*
X73761Y-29862D01*
X73750Y-29861D01*
X73740Y-29859D01*
X73735Y-29858D01*
X73734Y-29858D01*
X73730Y-29856D01*
X73721Y-29855D01*
X73709Y-29853D01*
X73695Y-29852D01*
X73680Y-29851D01*
X73665Y-29850D01*
X73652Y-29849D01*
X73644Y-29849D01*
X73633Y-29849D01*
X73626Y-29848D01*
X73622Y-29846D01*
X73622Y-29846D01*
X73620Y-29845D01*
X73612Y-29844D01*
X73600Y-29844D01*
X73586Y-29843D01*
X73549Y-29843D01*
X73549Y-30954D01*
X73549Y-32064D01*
X73586Y-32064D01*
X73601Y-32064D01*
X73613Y-32063D01*
X73620Y-32063D01*
X73622Y-32062D01*
X73625Y-32060D01*
X73632Y-32059D01*
X73643Y-32059D01*
X73645Y-32059D01*
X73659Y-32058D01*
X73675Y-32057D01*
X73691Y-32056D01*
X73695Y-32056D01*
X73710Y-32054D01*
X73720Y-32053D01*
X73726Y-32052D01*
X73730Y-32051D01*
X73732Y-32051D01*
X73734Y-32050D01*
X73734Y-32050D01*
X73738Y-32049D01*
X73746Y-32048D01*
X73757Y-32046D01*
X73761Y-32046D01*
X73772Y-32045D01*
X73781Y-32043D01*
X73787Y-32042D01*
X73787Y-32042D01*
X73791Y-32040D01*
X73798Y-32038D01*
X73805Y-32037D01*
X73814Y-32036D01*
X73821Y-32034D01*
X73824Y-32033D01*
X73828Y-32032D01*
X73836Y-32030D01*
X73841Y-32029D01*
X73850Y-32027D01*
X73856Y-32026D01*
X73858Y-32025D01*
X73862Y-32023D01*
X73870Y-32021D01*
X73880Y-32020D01*
X73881Y-32019D01*
X73892Y-32018D01*
X73901Y-32016D01*
X73905Y-32014D01*
X73906Y-32014D01*
X73910Y-32012D01*
X73918Y-32010D01*
X73919Y-32009D01*
X73926Y-32007D01*
X73929Y-32006D01*
X73930Y-32005D01*
X73932Y-32003D01*
X73938Y-32001D01*
X73940Y-32001D01*
X73948Y-31999D01*
X73953Y-31997D01*
X73954Y-31997D01*
X73958Y-31995D01*
X73965Y-31993D01*
X73972Y-31991D01*
X73981Y-31989D01*
X73988Y-31986D01*
X73990Y-31985D01*
X73995Y-31983D01*
X74002Y-31981D01*
X74004Y-31981D01*
X74010Y-31979D01*
X74014Y-31977D01*
X74014Y-31977D01*
X74017Y-31975D01*
X74022Y-31973D01*
X74023Y-31973D01*
X74029Y-31971D01*
X74031Y-31969D01*
X74034Y-31966D01*
X74039Y-31964D01*
X74040Y-31964D01*
X74048Y-31962D01*
X74058Y-31958D01*
X74065Y-31954D01*
X74086Y-31944D01*
X74102Y-31936D01*
X74114Y-31931D01*
X74123Y-31927D01*
X74128Y-31924D01*
X74131Y-31923D01*
X74132Y-31923D01*
X74135Y-31922D01*
X74135Y-31921D01*
X74138Y-31918D01*
X74144Y-31916D01*
X74144Y-31916D01*
X74150Y-31914D01*
X74152Y-31912D01*
X74152Y-31912D01*
X74155Y-31909D01*
X74161Y-31906D01*
X74168Y-31902D01*
X74176Y-31898D01*
X74182Y-31894D01*
X74183Y-31892D01*
X74186Y-31890D01*
X74192Y-31888D01*
X74192Y-31888D01*
X74198Y-31886D01*
X74200Y-31884D01*
X74203Y-31882D01*
X74208Y-31880D01*
X74209Y-31880D01*
X74215Y-31878D01*
X74217Y-31875D01*
X74219Y-31872D01*
X74222Y-31871D01*
X74227Y-31868D01*
X74234Y-31863D01*
X74238Y-31859D01*
X74245Y-31854D01*
X74251Y-31851D01*
X74252Y-31850D01*
X74255Y-31848D01*
X74261Y-31844D01*
X74265Y-31842D01*
X74272Y-31837D01*
X74277Y-31834D01*
X74279Y-31833D01*
X74283Y-31831D01*
X74284Y-31829D01*
X74287Y-31825D01*
X74288Y-31825D01*
X74292Y-31823D01*
X74298Y-31819D01*
X74298Y-31819D01*
X74306Y-31813D01*
X74312Y-31808D01*
X74317Y-31805D01*
X74325Y-31798D01*
X74335Y-31790D01*
X74344Y-31782D01*
X74354Y-31773D01*
X74362Y-31766D01*
X74368Y-31762D01*
X74371Y-31760D01*
X74374Y-31758D01*
X74380Y-31753D01*
X74388Y-31744D01*
X74399Y-31734D01*
X74411Y-31722D01*
X74424Y-31709D01*
X74437Y-31696D01*
X74450Y-31683D01*
X74461Y-31672D01*
X74471Y-31661D01*
X74479Y-31653D01*
X74484Y-31648D01*
X74485Y-31646D01*
X74487Y-31642D01*
X74490Y-31637D01*
X74499Y-31628D01*
X74507Y-31618D01*
X74514Y-31611D01*
X74518Y-31605D01*
X74519Y-31603D01*
X74521Y-31600D01*
X74526Y-31595D01*
X74527Y-31594D01*
X74533Y-31589D01*
X74535Y-31585D01*
X74536Y-31584D01*
X74537Y-31581D01*
X74541Y-31575D01*
X74545Y-31570D01*
X74551Y-31563D01*
X74554Y-31558D01*
X74555Y-31556D01*
X74557Y-31552D01*
X74561Y-31546D01*
X74563Y-31543D01*
X74568Y-31536D01*
X74573Y-31529D01*
X74578Y-31520D01*
X74582Y-31513D01*
X74585Y-31508D01*
X74586Y-31506D01*
X74590Y-31502D01*
X74595Y-31495D01*
X74598Y-31489D01*
X74600Y-31484D01*
X74600Y-31484D01*
X74602Y-31481D01*
X74602Y-31481D01*
X74605Y-31479D01*
X74608Y-31475D01*
X74610Y-31470D01*
X74614Y-31462D01*
X74620Y-31450D01*
X74627Y-31436D01*
X74635Y-31420D01*
X74637Y-31418D01*
X74644Y-31402D01*
X74652Y-31387D01*
X74658Y-31375D01*
X74662Y-31365D01*
X74664Y-31360D01*
X74664Y-31359D01*
X74666Y-31354D01*
X74668Y-31351D01*
X74670Y-31349D01*
X74670Y-31347D01*
X74670Y-31343D01*
X74671Y-31341D01*
X74673Y-31338D01*
X74675Y-31331D01*
X74675Y-31330D01*
X74677Y-31324D01*
X74679Y-31320D01*
X74679Y-31320D01*
X74682Y-31318D01*
X74682Y-31315D01*
X74683Y-31309D01*
X74686Y-31302D01*
X74690Y-31294D01*
X74692Y-31285D01*
X74694Y-31278D01*
X74696Y-31275D01*
X74696Y-31275D01*
X74698Y-31273D01*
X74700Y-31266D01*
X74701Y-31261D01*
X74702Y-31253D01*
X74704Y-31247D01*
X74705Y-31245D01*
X74706Y-31242D01*
X74706Y-31240D01*
X74706Y-31236D01*
X74707Y-31236D01*
X74709Y-31233D01*
X74711Y-31227D01*
X74712Y-31220D01*
X74713Y-31211D01*
X74715Y-31205D01*
X74716Y-31203D01*
X74718Y-31200D01*
X74720Y-31193D01*
X74720Y-31188D01*
X74722Y-31180D01*
X74724Y-31175D01*
X74724Y-31174D01*
X74726Y-31171D01*
X74727Y-31164D01*
X74728Y-31154D01*
X74729Y-31150D01*
X74730Y-31139D01*
X74731Y-31130D01*
X74732Y-31125D01*
X74733Y-31124D01*
X74734Y-31120D01*
X74735Y-31113D01*
X74735Y-31106D01*
X74737Y-31101D01*
X74738Y-31097D01*
X74739Y-31089D01*
X74740Y-31077D01*
X74740Y-31064D01*
X74741Y-31050D01*
X74742Y-31039D01*
X74743Y-31032D01*
X74745Y-31028D01*
X74745Y-31025D01*
X74746Y-31017D01*
X74746Y-31006D01*
X74747Y-30991D01*
X74747Y-30975D01*
X74747Y-30957D01*
X74747Y-31118D01*
X74746Y-31125D01*
X74745Y-31130D01*
X74744Y-31130D01*
X74743Y-31133D01*
X74741Y-31141D01*
X74740Y-31151D01*
X74740Y-31154D01*
X74739Y-31165D01*
X74737Y-31173D01*
X74736Y-31178D01*
X74735Y-31178D01*
X74734Y-31182D01*
X74735Y-31187D01*
X74735Y-31192D01*
X74733Y-31193D01*
X74731Y-31196D01*
X74729Y-31202D01*
X74729Y-31207D01*
X74727Y-31215D01*
X74725Y-31221D01*
X74724Y-31223D01*
X74723Y-31227D01*
X74721Y-31235D01*
X74720Y-31237D01*
X74718Y-31245D01*
X74717Y-31250D01*
X74716Y-31251D01*
X74714Y-31256D01*
X74712Y-31263D01*
X74712Y-31265D01*
X74710Y-31273D01*
X74707Y-31279D01*
X74707Y-31280D01*
X74705Y-31284D01*
X74706Y-31286D01*
X74706Y-31290D01*
X74705Y-31290D01*
X74703Y-31294D01*
X74701Y-31301D01*
X74701Y-31302D01*
X74699Y-31308D01*
X74697Y-31312D01*
X74696Y-31312D01*
X74694Y-31314D01*
X74692Y-31320D01*
X74692Y-31322D01*
X74690Y-31328D01*
X74688Y-31331D01*
X74688Y-31331D01*
X74686Y-31334D01*
X74684Y-31340D01*
X74683Y-31344D01*
X74682Y-31352D01*
X74680Y-31356D01*
X74679Y-31357D01*
X74677Y-31359D01*
X74675Y-31365D01*
X74673Y-31369D01*
X74670Y-31378D01*
X74664Y-31391D01*
X74657Y-31405D01*
X74649Y-31421D01*
X74647Y-31424D01*
X74639Y-31440D01*
X74632Y-31454D01*
X74626Y-31466D01*
X74621Y-31475D01*
X74619Y-31480D01*
X74619Y-31481D01*
X74616Y-31485D01*
X74614Y-31487D01*
X74612Y-31489D01*
X74612Y-31490D01*
X74610Y-31494D01*
X74606Y-31500D01*
X74605Y-31502D01*
X74600Y-31509D01*
X74598Y-31514D01*
X74598Y-31515D01*
X74596Y-31517D01*
X74595Y-31518D01*
X74593Y-31520D01*
X74589Y-31526D01*
X74584Y-31534D01*
X74577Y-31546D01*
X74572Y-31554D01*
X74569Y-31559D01*
X74567Y-31562D01*
X74565Y-31563D01*
X74564Y-31563D01*
X74561Y-31567D01*
X74561Y-31569D01*
X74559Y-31572D01*
X74555Y-31579D01*
X74548Y-31586D01*
X74547Y-31588D01*
X74540Y-31596D01*
X74535Y-31602D01*
X74533Y-31606D01*
X74533Y-31606D01*
X74531Y-31609D01*
X74526Y-31615D01*
X74519Y-31623D01*
X74514Y-31629D01*
X74507Y-31638D01*
X74500Y-31645D01*
X74497Y-31650D01*
X74496Y-31651D01*
X74494Y-31654D01*
X74489Y-31659D01*
X74481Y-31668D01*
X74470Y-31679D01*
X74458Y-31691D01*
X74451Y-31698D01*
X74438Y-31711D01*
X74427Y-31723D01*
X74417Y-31733D01*
X74410Y-31741D01*
X74406Y-31746D01*
X74405Y-31747D01*
X74402Y-31751D01*
X74400Y-31751D01*
X74397Y-31753D01*
X74391Y-31758D01*
X74387Y-31763D01*
X74380Y-31769D01*
X74375Y-31773D01*
X74373Y-31774D01*
X74370Y-31776D01*
X74364Y-31781D01*
X74356Y-31788D01*
X74347Y-31796D01*
X74337Y-31805D01*
X74337Y-31805D01*
X74331Y-31810D01*
X74327Y-31813D01*
X74326Y-31813D01*
X74323Y-31815D01*
X74317Y-31820D01*
X74311Y-31825D01*
X74304Y-31831D01*
X74298Y-31835D01*
X74295Y-31836D01*
X74292Y-31838D01*
X74285Y-31842D01*
X74282Y-31844D01*
X74275Y-31849D01*
X74270Y-31852D01*
X74268Y-31853D01*
X74265Y-31855D01*
X74265Y-31856D01*
X74263Y-31859D01*
X74259Y-31862D01*
X74245Y-31868D01*
X74238Y-31875D01*
X74236Y-31877D01*
X74233Y-31880D01*
X74231Y-31881D01*
X74227Y-31883D01*
X74221Y-31886D01*
X74219Y-31888D01*
X74210Y-31893D01*
X74201Y-31898D01*
X74200Y-31898D01*
X74193Y-31901D01*
X74189Y-31904D01*
X74189Y-31904D01*
X74186Y-31906D01*
X74178Y-31911D01*
X74168Y-31917D01*
X74156Y-31923D01*
X74144Y-31930D01*
X74141Y-31931D01*
X74133Y-31935D01*
X74126Y-31939D01*
X74124Y-31941D01*
X74121Y-31943D01*
X74115Y-31945D01*
X74109Y-31947D01*
X74107Y-31949D01*
X74105Y-31951D01*
X74099Y-31953D01*
X74099Y-31953D01*
X74093Y-31955D01*
X74090Y-31958D01*
X74088Y-31960D01*
X74087Y-31960D01*
X74082Y-31960D01*
X74075Y-31963D01*
X74067Y-31966D01*
X74058Y-31970D01*
X74051Y-31973D01*
X74047Y-31974D01*
X74043Y-31975D01*
X74042Y-31976D01*
X74039Y-31979D01*
X74031Y-31983D01*
X74022Y-31987D01*
X74013Y-31990D01*
X74005Y-31993D01*
X74005Y-31993D01*
X73998Y-31994D01*
X73995Y-31996D01*
X73994Y-31997D01*
X73992Y-31999D01*
X73986Y-32000D01*
X73983Y-32001D01*
X73976Y-32003D01*
X73971Y-32005D01*
X73971Y-32005D01*
X73967Y-32007D01*
X73960Y-32009D01*
X73959Y-32009D01*
X73951Y-32011D01*
X73946Y-32013D01*
X73945Y-32013D01*
X73941Y-32015D01*
X73933Y-32018D01*
X73926Y-32019D01*
X73917Y-32022D01*
X73912Y-32024D01*
X73910Y-32025D01*
X73907Y-32027D01*
X73901Y-32028D01*
X73895Y-32029D01*
X73886Y-32031D01*
X73880Y-32032D01*
X73877Y-32033D01*
X73873Y-32035D01*
X73865Y-32037D01*
X73860Y-32037D01*
X73851Y-32039D01*
X73845Y-32041D01*
X73844Y-32042D01*
X73840Y-32043D01*
X73833Y-32045D01*
X73826Y-32046D01*
X73817Y-32048D01*
X73809Y-32049D01*
X73807Y-32051D01*
X73803Y-32052D01*
X73795Y-32053D01*
X73783Y-32055D01*
X73774Y-32056D01*
X73762Y-32058D01*
X73750Y-32059D01*
X73742Y-32061D01*
X73739Y-32062D01*
X73734Y-32063D01*
X73725Y-32064D01*
X73713Y-32066D01*
X73710Y-32066D01*
X73698Y-32067D01*
X73689Y-32069D01*
X73683Y-32070D01*
X73682Y-32071D01*
X73679Y-32071D01*
X73670Y-32072D01*
X73658Y-32072D01*
X73642Y-32073D01*
X73622Y-32073D01*
X73601Y-32074D01*
X73578Y-32074D01*
X73554Y-32074D01*
X73538Y-32074D01*
X73538Y-29843D01*
X73497Y-29843D01*
X73481Y-29844D01*
X73468Y-29844D01*
X73459Y-29845D01*
X73455Y-29846D01*
X73455Y-29846D01*
X73451Y-29848D01*
X73444Y-29849D01*
X73434Y-29849D01*
X73423Y-29849D01*
X73410Y-29850D01*
X73396Y-29851D01*
X73382Y-29852D01*
X73368Y-29854D01*
X73357Y-29855D01*
X73348Y-29856D01*
X73344Y-29857D01*
X73343Y-29858D01*
X73341Y-29859D01*
X73334Y-29860D01*
X73324Y-29861D01*
X73317Y-29862D01*
X73305Y-29863D01*
X73296Y-29864D01*
X73291Y-29865D01*
X73290Y-29866D01*
X73287Y-29867D01*
X73281Y-29869D01*
X73272Y-29870D01*
X73262Y-29872D01*
X73256Y-29873D01*
X73253Y-29874D01*
X73251Y-29876D01*
X73244Y-29877D01*
X73235Y-29879D01*
X73234Y-29880D01*
X73223Y-29882D01*
X73216Y-29883D01*
X73211Y-29884D01*
X73207Y-29886D01*
X73205Y-29886D01*
X73200Y-29888D01*
X73192Y-29889D01*
X73188Y-29890D01*
X73180Y-29891D01*
X73174Y-29893D01*
X73173Y-29894D01*
X73169Y-29896D01*
X73163Y-29898D01*
X73162Y-29898D01*
X73152Y-29901D01*
X73144Y-29904D01*
X73136Y-29907D01*
X73130Y-29908D01*
X73125Y-29909D01*
X73124Y-29911D01*
X73121Y-29912D01*
X73115Y-29915D01*
X73107Y-29917D01*
X73098Y-29919D01*
X73091Y-29921D01*
X73088Y-29922D01*
X73084Y-29924D01*
X73077Y-29926D01*
X73076Y-29926D01*
X73069Y-29929D01*
X73059Y-29933D01*
X73052Y-29936D01*
X73043Y-29941D01*
X73034Y-29945D01*
X73029Y-29946D01*
X73023Y-29948D01*
X73019Y-29950D01*
X73015Y-29953D01*
X73008Y-29957D01*
X73000Y-29960D01*
X72992Y-29963D01*
X72990Y-29963D01*
X72985Y-29965D01*
X72983Y-29968D01*
X72980Y-29970D01*
X72979Y-29970D01*
X72975Y-29971D01*
X72968Y-29975D01*
X72958Y-29979D01*
X72948Y-29984D01*
X72938Y-29989D01*
X72931Y-29993D01*
X72927Y-29996D01*
X72926Y-29996D01*
X72923Y-29998D01*
X72916Y-30003D01*
X72906Y-30008D01*
X72895Y-30015D01*
X72883Y-30021D01*
X72878Y-30023D01*
X72867Y-30029D01*
X72856Y-30036D01*
X72851Y-30040D01*
X72844Y-30045D01*
X72838Y-30048D01*
X72837Y-30049D01*
X72833Y-30051D01*
X72833Y-30051D01*
X72830Y-30054D01*
X72824Y-30059D01*
X72817Y-30063D01*
X72812Y-30066D01*
X72811Y-30066D01*
X72808Y-30068D01*
X72807Y-30070D01*
X72804Y-30074D01*
X72802Y-30075D01*
X72798Y-30076D01*
X72792Y-30080D01*
X72788Y-30083D01*
X72781Y-30088D01*
X72776Y-30091D01*
X72775Y-30091D01*
X72772Y-30093D01*
X72766Y-30098D01*
X72757Y-30105D01*
X72747Y-30114D01*
X72736Y-30124D01*
X72725Y-30133D01*
X72718Y-30139D01*
X72712Y-30144D01*
X72708Y-30147D01*
X72707Y-30148D01*
X72705Y-30150D01*
X72699Y-30155D01*
X72690Y-30164D01*
X72679Y-30175D01*
X72666Y-30188D01*
X72651Y-30202D01*
X72649Y-30205D01*
X72629Y-30225D01*
X72613Y-30241D01*
X72601Y-30254D01*
X72592Y-30264D01*
X72585Y-30271D01*
X72581Y-30276D01*
X72578Y-30279D01*
X72578Y-30280D01*
X72578Y-30280D01*
X72577Y-30282D01*
X72573Y-30287D01*
X72567Y-30295D01*
X72562Y-30301D01*
X72554Y-30310D01*
X72547Y-30317D01*
X72544Y-30323D01*
X72543Y-30324D01*
X72541Y-30328D01*
X72536Y-30333D01*
X72531Y-30338D01*
X72528Y-30342D01*
X72525Y-30347D01*
X72521Y-30354D01*
X72518Y-30359D01*
X72512Y-30367D01*
X72509Y-30374D01*
X72507Y-30377D01*
X72505Y-30381D01*
X72503Y-30382D01*
X72501Y-30384D01*
X72501Y-30385D01*
X72499Y-30389D01*
X72495Y-30395D01*
X72492Y-30399D01*
X72487Y-30405D01*
X72485Y-30409D01*
X72485Y-30410D01*
X72485Y-30412D01*
X72482Y-30417D01*
X72480Y-30419D01*
X72475Y-30426D01*
X72472Y-30432D01*
X72472Y-30433D01*
X72469Y-30437D01*
X72467Y-30438D01*
X72465Y-30440D01*
X72463Y-30446D01*
X72463Y-30446D01*
X72461Y-30452D01*
X72458Y-30455D01*
X72458Y-30455D01*
X72456Y-30457D01*
X72456Y-30458D01*
X72454Y-30462D01*
X72451Y-30469D01*
X72447Y-30478D01*
X72443Y-30486D01*
X72440Y-30492D01*
X72438Y-30495D01*
X72436Y-30498D01*
X72434Y-30504D01*
X72432Y-30509D01*
X72430Y-30511D01*
X72428Y-30514D01*
X72427Y-30515D01*
X72427Y-30517D01*
X72426Y-30521D01*
X72423Y-30527D01*
X72419Y-30537D01*
X72412Y-30551D01*
X72412Y-30552D01*
X72409Y-30561D01*
X72406Y-30568D01*
X72404Y-30576D01*
X72401Y-30583D01*
X72395Y-30595D01*
X72393Y-30603D01*
X72393Y-30605D01*
X72392Y-30607D01*
X72391Y-30607D01*
X72389Y-30610D01*
X72387Y-30616D01*
X72387Y-30620D01*
X72385Y-30627D01*
X72383Y-30632D01*
X72382Y-30633D01*
X72380Y-30635D01*
X72379Y-30642D01*
X72378Y-30647D01*
X72376Y-30655D01*
X72375Y-30660D01*
X72374Y-30661D01*
X72372Y-30663D01*
X72370Y-30670D01*
X72369Y-30674D01*
X72368Y-30683D01*
X72366Y-30689D01*
X72365Y-30691D01*
X72363Y-30697D01*
X72364Y-30699D01*
X72364Y-30703D01*
X72363Y-30704D01*
X72361Y-30708D01*
X72359Y-30715D01*
X72358Y-30719D01*
X72357Y-30727D01*
X72355Y-30732D01*
X72354Y-30733D01*
X72353Y-30736D01*
X72351Y-30743D01*
X72350Y-30754D01*
X72350Y-30758D01*
X72349Y-30769D01*
X72347Y-30777D01*
X72346Y-30781D01*
X72346Y-30782D01*
X72345Y-30785D01*
X72343Y-30791D01*
X72342Y-30801D01*
X72342Y-30805D01*
X72340Y-30816D01*
X72339Y-30826D01*
X72337Y-30832D01*
X72336Y-30832D01*
X72335Y-30835D01*
X72335Y-30842D01*
X72334Y-30852D01*
X72334Y-30867D01*
X72333Y-30887D01*
X72333Y-30911D01*
X72333Y-30940D01*
X72333Y-30954D01*
X72333Y-30986D01*
X72333Y-31012D01*
X72333Y-31033D01*
X72334Y-31050D01*
X72334Y-31062D01*
X72335Y-31070D01*
X72336Y-31075D01*
X72336Y-31075D01*
X72338Y-31080D01*
X72340Y-31088D01*
X72341Y-31099D01*
X72342Y-31103D01*
X72343Y-31113D01*
X72344Y-31121D01*
X72345Y-31125D01*
X72346Y-31126D01*
X72347Y-31128D01*
X72348Y-31135D01*
X72349Y-31145D01*
X72350Y-31150D01*
X72351Y-31161D01*
X72352Y-31169D01*
X72354Y-31174D01*
X72354Y-31175D01*
X72356Y-31178D01*
X72358Y-31185D01*
X72358Y-31189D01*
X72360Y-31197D01*
X72362Y-31202D01*
X72363Y-31203D01*
X72364Y-31207D01*
X72364Y-31209D01*
X72364Y-31215D01*
X72365Y-31217D01*
X72367Y-31221D01*
X72369Y-31229D01*
X72369Y-31234D01*
X72371Y-31241D01*
X72373Y-31246D01*
X72374Y-31247D01*
X72375Y-31249D01*
X72377Y-31256D01*
X72378Y-31261D01*
X72379Y-31269D01*
X72381Y-31274D01*
X72382Y-31275D01*
X72384Y-31278D01*
X72386Y-31284D01*
X72387Y-31288D01*
X72388Y-31295D01*
X72390Y-31300D01*
X72391Y-31301D01*
X72393Y-31302D01*
X72393Y-31303D01*
X72394Y-31308D01*
X72398Y-31318D01*
X72401Y-31324D01*
X72404Y-31333D01*
X72406Y-31340D01*
X72409Y-31348D01*
X72412Y-31356D01*
X72418Y-31370D01*
X72423Y-31380D01*
X72426Y-31386D01*
X72427Y-31391D01*
X72427Y-31393D01*
X72427Y-31393D01*
X72429Y-31396D01*
X72430Y-31396D01*
X72432Y-31399D01*
X72434Y-31404D01*
X72436Y-31410D01*
X72438Y-31413D01*
X72441Y-31417D01*
X72445Y-31424D01*
X72449Y-31432D01*
X72453Y-31440D01*
X72455Y-31447D01*
X72456Y-31449D01*
X72457Y-31452D01*
X72458Y-31453D01*
X72461Y-31455D01*
X72463Y-31461D01*
X72465Y-31467D01*
X72468Y-31471D01*
X72472Y-31474D01*
X72473Y-31476D01*
X72474Y-31480D01*
X72478Y-31486D01*
X72480Y-31488D01*
X72484Y-31494D01*
X72485Y-31497D01*
X72485Y-31498D01*
X72486Y-31500D01*
X72489Y-31505D01*
X72492Y-31509D01*
X72497Y-31516D01*
X72500Y-31521D01*
X72501Y-31523D01*
X72503Y-31526D01*
X72503Y-31526D01*
X72506Y-31528D01*
X72506Y-31529D01*
X72508Y-31533D01*
X72513Y-31541D01*
X72520Y-31552D01*
X72528Y-31564D01*
X72531Y-31567D01*
X72537Y-31575D01*
X72541Y-31581D01*
X72543Y-31584D01*
X72545Y-31587D01*
X72550Y-31593D01*
X72556Y-31602D01*
X72562Y-31608D01*
X72571Y-31618D01*
X72579Y-31628D01*
X72585Y-31635D01*
X72587Y-31638D01*
X72590Y-31642D01*
X72597Y-31649D01*
X72606Y-31659D01*
X72617Y-31671D01*
X72630Y-31683D01*
X72643Y-31697D01*
X72656Y-31711D01*
X72669Y-31724D01*
X72681Y-31736D01*
X72692Y-31746D01*
X72700Y-31754D01*
X72705Y-31758D01*
X72707Y-31760D01*
X72710Y-31762D01*
X72716Y-31766D01*
X72718Y-31768D01*
X72729Y-31778D01*
X72740Y-31787D01*
X72750Y-31797D01*
X72760Y-31805D01*
X72768Y-31811D01*
X72774Y-31815D01*
X72775Y-31816D01*
X72779Y-31818D01*
X72785Y-31822D01*
X72788Y-31825D01*
X72795Y-31830D01*
X72800Y-31833D01*
X72802Y-31833D01*
X72806Y-31835D01*
X72807Y-31837D01*
X72813Y-31842D01*
X72822Y-31848D01*
X72827Y-31850D01*
X72832Y-31853D01*
X72833Y-31856D01*
X72835Y-31858D01*
X72836Y-31859D01*
X72840Y-31860D01*
X72847Y-31864D01*
X72848Y-31866D01*
X72856Y-31871D01*
X72861Y-31875D01*
X72866Y-31878D01*
X72874Y-31882D01*
X72878Y-31885D01*
X72890Y-31891D01*
X72902Y-31897D01*
X72913Y-31903D01*
X72921Y-31908D01*
X72926Y-31911D01*
X72926Y-31912D01*
X72930Y-31914D01*
X72936Y-31918D01*
X72945Y-31922D01*
X72953Y-31926D01*
X72960Y-31928D01*
X72963Y-31929D01*
X72966Y-31931D01*
X72966Y-31932D01*
X72968Y-31934D01*
X72974Y-31936D01*
X72974Y-31936D01*
X72980Y-31938D01*
X72983Y-31940D01*
X72985Y-31942D01*
X72991Y-31944D01*
X72991Y-31944D01*
X72998Y-31947D01*
X73008Y-31951D01*
X73014Y-31954D01*
X73024Y-31959D01*
X73033Y-31963D01*
X73038Y-31964D01*
X73044Y-31966D01*
X73047Y-31968D01*
X73051Y-31971D01*
X73059Y-31975D01*
X73068Y-31978D01*
X73076Y-31981D01*
X73077Y-31981D01*
X73084Y-31983D01*
X73088Y-31985D01*
X73092Y-31987D01*
X73100Y-31989D01*
X73107Y-31991D01*
X73116Y-31993D01*
X73122Y-31995D01*
X73124Y-31997D01*
X73126Y-31998D01*
X73132Y-32000D01*
X73136Y-32001D01*
X73144Y-32002D01*
X73148Y-32004D01*
X73149Y-32005D01*
X73151Y-32007D01*
X73157Y-32009D01*
X73160Y-32009D01*
X73167Y-32011D01*
X73172Y-32013D01*
X73173Y-32014D01*
X73177Y-32015D01*
X73185Y-32017D01*
X73196Y-32019D01*
X73197Y-32019D01*
X73208Y-32021D01*
X73216Y-32023D01*
X73221Y-32025D01*
X73221Y-32025D01*
X73225Y-32027D01*
X73233Y-32028D01*
X73238Y-32029D01*
X73247Y-32031D01*
X73252Y-32032D01*
X73253Y-32033D01*
X73256Y-32035D01*
X73262Y-32036D01*
X73271Y-32037D01*
X73281Y-32039D01*
X73288Y-32040D01*
X73291Y-32042D01*
X73295Y-32043D01*
X73302Y-32044D01*
X73313Y-32046D01*
X73318Y-32046D01*
X73329Y-32047D01*
X73338Y-32048D01*
X73343Y-32050D01*
X73343Y-32050D01*
X73346Y-32052D01*
X73351Y-32052D01*
X73357Y-32053D01*
X73368Y-32054D01*
X73380Y-32055D01*
X73384Y-32056D01*
X73399Y-32057D01*
X73415Y-32058D01*
X73429Y-32059D01*
X73431Y-32059D01*
X73442Y-32059D01*
X73450Y-32060D01*
X73454Y-32061D01*
X73455Y-32062D01*
X73458Y-32063D01*
X73467Y-32063D01*
X73481Y-32064D01*
X73496Y-32064D01*
X73536Y-32063D01*
X73537Y-30953D01*
X73538Y-29843D01*
X73538Y-32074D01*
X73530Y-32074D01*
X73507Y-32075D01*
X73484Y-32075D01*
X73464Y-32074D01*
X73446Y-32074D01*
X73431Y-32074D01*
X73427Y-32074D01*
X73414Y-32073D01*
X73404Y-32072D01*
X73398Y-32071D01*
X73396Y-32070D01*
X73392Y-32069D01*
X73383Y-32068D01*
X73373Y-32066D01*
X73368Y-32066D01*
X73356Y-32065D01*
X73346Y-32063D01*
X73339Y-32062D01*
X73338Y-32061D01*
X73333Y-32060D01*
X73325Y-32059D01*
X73313Y-32057D01*
X73304Y-32056D01*
X73292Y-32055D01*
X73281Y-32053D01*
X73274Y-32051D01*
X73272Y-32051D01*
X73267Y-32049D01*
X73259Y-32047D01*
X73251Y-32046D01*
X73242Y-32045D01*
X73236Y-32043D01*
X73233Y-32042D01*
X73231Y-32040D01*
X73224Y-32039D01*
X73219Y-32038D01*
X73210Y-32036D01*
X73203Y-32034D01*
X73201Y-32034D01*
X73197Y-32032D01*
X73189Y-32030D01*
X73184Y-32029D01*
X73176Y-32028D01*
X73169Y-32026D01*
X73167Y-32025D01*
X73163Y-32023D01*
X73155Y-32020D01*
X73150Y-32019D01*
X73142Y-32017D01*
X73135Y-32014D01*
X73133Y-32013D01*
X73129Y-32012D01*
X73122Y-32010D01*
X73121Y-32009D01*
X73113Y-32007D01*
X73108Y-32005D01*
X73108Y-32005D01*
X73103Y-32003D01*
X73096Y-32001D01*
X73096Y-32001D01*
X73087Y-31998D01*
X73079Y-31995D01*
X73072Y-31992D01*
X73067Y-31991D01*
X73062Y-31990D01*
X73054Y-31987D01*
X73046Y-31983D01*
X73026Y-31973D01*
X73011Y-31966D01*
X73001Y-31962D01*
X72996Y-31960D01*
X72995Y-31960D01*
X72992Y-31959D01*
X72984Y-31956D01*
X72976Y-31952D01*
X72967Y-31947D01*
X72959Y-31943D01*
X72955Y-31940D01*
X72954Y-31940D01*
X72951Y-31938D01*
X72946Y-31936D01*
X72940Y-31934D01*
X72938Y-31932D01*
X72934Y-31929D01*
X72925Y-31924D01*
X72912Y-31918D01*
X72904Y-31914D01*
X72896Y-31909D01*
X72891Y-31906D01*
X72890Y-31904D01*
X72887Y-31901D01*
X72886Y-31901D01*
X72882Y-31900D01*
X72874Y-31897D01*
X72866Y-31892D01*
X72859Y-31888D01*
X72854Y-31885D01*
X72853Y-31883D01*
X72851Y-31881D01*
X72850Y-31881D01*
X72846Y-31879D01*
X72840Y-31875D01*
X72835Y-31871D01*
X72828Y-31866D01*
X72822Y-31862D01*
X72819Y-31861D01*
X72816Y-31859D01*
X72815Y-31857D01*
X72812Y-31853D01*
X72810Y-31853D01*
X72807Y-31851D01*
X72801Y-31848D01*
X72794Y-31843D01*
X72789Y-31840D01*
X72788Y-31839D01*
X72785Y-31837D01*
X72779Y-31833D01*
X72778Y-31833D01*
X72770Y-31828D01*
X72763Y-31821D01*
X72763Y-31821D01*
X72758Y-31816D01*
X72754Y-31814D01*
X72753Y-31813D01*
X72750Y-31812D01*
X72744Y-31807D01*
X72736Y-31800D01*
X72729Y-31794D01*
X72720Y-31786D01*
X72712Y-31779D01*
X72706Y-31775D01*
X72704Y-31774D01*
X72702Y-31772D01*
X72696Y-31767D01*
X72687Y-31758D01*
X72676Y-31748D01*
X72664Y-31736D01*
X72651Y-31722D01*
X72637Y-31709D01*
X72624Y-31695D01*
X72611Y-31682D01*
X72600Y-31671D01*
X72591Y-31661D01*
X72585Y-31654D01*
X72582Y-31651D01*
X72582Y-31650D01*
X72578Y-31645D01*
X72573Y-31639D01*
X72568Y-31635D01*
X72566Y-31631D01*
X72566Y-31631D01*
X72564Y-31628D01*
X72559Y-31622D01*
X72556Y-31619D01*
X72550Y-31613D01*
X72546Y-31608D01*
X72546Y-31606D01*
X72544Y-31603D01*
X72539Y-31597D01*
X72537Y-31596D01*
X72532Y-31591D01*
X72529Y-31587D01*
X72529Y-31586D01*
X72527Y-31582D01*
X72523Y-31578D01*
X72519Y-31573D01*
X72518Y-31569D01*
X72516Y-31566D01*
X72515Y-31565D01*
X72511Y-31563D01*
X72510Y-31561D01*
X72507Y-31555D01*
X72502Y-31548D01*
X72501Y-31546D01*
X72495Y-31538D01*
X72491Y-31530D01*
X72490Y-31529D01*
X72484Y-31517D01*
X72479Y-31510D01*
X72476Y-31507D01*
X72475Y-31506D01*
X72473Y-31504D01*
X72471Y-31501D01*
X72469Y-31496D01*
X72465Y-31488D01*
X72463Y-31485D01*
X72457Y-31476D01*
X72451Y-31465D01*
X72448Y-31458D01*
X72444Y-31450D01*
X72440Y-31444D01*
X72438Y-31441D01*
X72436Y-31438D01*
X72434Y-31432D01*
X72432Y-31427D01*
X72430Y-31424D01*
X72428Y-31422D01*
X72427Y-31421D01*
X72426Y-31417D01*
X72423Y-31410D01*
X72419Y-31401D01*
X72415Y-31393D01*
X72412Y-31387D01*
X72410Y-31385D01*
X72408Y-31382D01*
X72406Y-31377D01*
X72404Y-31369D01*
X72401Y-31361D01*
X72395Y-31349D01*
X72393Y-31341D01*
X72392Y-31339D01*
X72391Y-31334D01*
X72388Y-31328D01*
X72386Y-31321D01*
X72385Y-31316D01*
X72384Y-31312D01*
X72382Y-31312D01*
X72380Y-31309D01*
X72378Y-31303D01*
X72378Y-31302D01*
X72376Y-31295D01*
X72374Y-31291D01*
X72374Y-31291D01*
X72372Y-31287D01*
X72370Y-31280D01*
X72370Y-31278D01*
X72368Y-31271D01*
X72365Y-31267D01*
X72365Y-31267D01*
X72363Y-31264D01*
X72363Y-31260D01*
X72364Y-31254D01*
X72362Y-31251D01*
X72361Y-31248D01*
X72359Y-31241D01*
X72358Y-31238D01*
X72357Y-31230D01*
X72355Y-31224D01*
X72354Y-31223D01*
X72352Y-31219D01*
X72350Y-31211D01*
X72350Y-31209D01*
X72348Y-31201D01*
X72346Y-31195D01*
X72345Y-31194D01*
X72344Y-31190D01*
X72342Y-31182D01*
X72341Y-31173D01*
X72340Y-31163D01*
X72338Y-31156D01*
X72337Y-31154D01*
X72336Y-31151D01*
X72335Y-31144D01*
X72333Y-31135D01*
X72333Y-31131D01*
X72332Y-31120D01*
X72331Y-31111D01*
X72330Y-31105D01*
X72329Y-31105D01*
X72328Y-31100D01*
X72328Y-31094D01*
X72328Y-31086D01*
X72325Y-31081D01*
X72324Y-31078D01*
X72324Y-31069D01*
X72323Y-31056D01*
X72322Y-31039D01*
X72322Y-31020D01*
X72322Y-30998D01*
X72321Y-30975D01*
X72321Y-30952D01*
X72321Y-30928D01*
X72322Y-30906D01*
X72322Y-30885D01*
X72322Y-30866D01*
X72323Y-30850D01*
X72324Y-30837D01*
X72325Y-30829D01*
X72325Y-30826D01*
X72328Y-30820D01*
X72328Y-30814D01*
X72328Y-30807D01*
X72329Y-30803D01*
X72330Y-30799D01*
X72332Y-30791D01*
X72333Y-30780D01*
X72333Y-30777D01*
X72334Y-30766D01*
X72336Y-30758D01*
X72337Y-30754D01*
X72337Y-30754D01*
X72338Y-30751D01*
X72340Y-30744D01*
X72341Y-30735D01*
X72342Y-30725D01*
X72344Y-30717D01*
X72345Y-30713D01*
X72347Y-30709D01*
X72350Y-30701D01*
X72350Y-30699D01*
X72352Y-30691D01*
X72354Y-30685D01*
X72354Y-30685D01*
X72356Y-30681D01*
X72358Y-30673D01*
X72360Y-30663D01*
X72360Y-30661D01*
X72362Y-30652D01*
X72364Y-30644D01*
X72366Y-30641D01*
X72366Y-30641D01*
X72367Y-30639D01*
X72369Y-30632D01*
X72370Y-30630D01*
X72371Y-30622D01*
X72373Y-30618D01*
X72374Y-30617D01*
X72376Y-30614D01*
X72378Y-30607D01*
X72378Y-30606D01*
X72380Y-30599D01*
X72382Y-30596D01*
X72382Y-30596D01*
X72385Y-30594D01*
X72385Y-30592D01*
X72386Y-30586D01*
X72388Y-30580D01*
X72391Y-30573D01*
X72392Y-30569D01*
X72394Y-30562D01*
X72398Y-30551D01*
X72401Y-30547D01*
X72404Y-30538D01*
X72406Y-30531D01*
X72409Y-30525D01*
X72410Y-30523D01*
X72412Y-30519D01*
X72416Y-30512D01*
X72420Y-30504D01*
X72424Y-30495D01*
X72427Y-30489D01*
X72427Y-30486D01*
X72429Y-30483D01*
X72430Y-30483D01*
X72432Y-30481D01*
X72434Y-30475D01*
X72436Y-30469D01*
X72438Y-30466D01*
X72440Y-30463D01*
X72444Y-30457D01*
X72448Y-30449D01*
X72454Y-30439D01*
X72460Y-30428D01*
X72463Y-30423D01*
X72467Y-30415D01*
X72471Y-30408D01*
X72471Y-30406D01*
X72474Y-30402D01*
X72475Y-30401D01*
X72478Y-30400D01*
X72482Y-30394D01*
X72487Y-30384D01*
X72490Y-30379D01*
X72494Y-30372D01*
X72499Y-30364D01*
X72501Y-30362D01*
X72506Y-30355D01*
X72509Y-30349D01*
X72509Y-30348D01*
X72511Y-30344D01*
X72513Y-30343D01*
X72517Y-30340D01*
X72518Y-30338D01*
X72520Y-30334D01*
X72523Y-30330D01*
X72527Y-30325D01*
X72529Y-30321D01*
X72531Y-30318D01*
X72536Y-30313D01*
X72537Y-30311D01*
X72543Y-30306D01*
X72546Y-30302D01*
X72546Y-30301D01*
X72548Y-30298D01*
X72552Y-30292D01*
X72556Y-30289D01*
X72561Y-30283D01*
X72565Y-30278D01*
X72566Y-30277D01*
X72567Y-30273D01*
X72572Y-30269D01*
X72573Y-30268D01*
X72579Y-30263D01*
X72582Y-30257D01*
X72584Y-30254D01*
X72590Y-30247D01*
X72599Y-30238D01*
X72610Y-30227D01*
X72622Y-30214D01*
X72635Y-30201D01*
X72649Y-30187D01*
X72662Y-30173D01*
X72675Y-30161D01*
X72686Y-30150D01*
X72695Y-30142D01*
X72702Y-30136D01*
X72705Y-30134D01*
X72705Y-30134D01*
X72709Y-30132D01*
X72715Y-30127D01*
X72717Y-30124D01*
X72723Y-30118D01*
X72727Y-30114D01*
X72728Y-30114D01*
X72732Y-30112D01*
X72737Y-30107D01*
X72740Y-30104D01*
X72746Y-30098D01*
X72751Y-30095D01*
X72753Y-30094D01*
X72757Y-30092D01*
X72762Y-30087D01*
X72763Y-30086D01*
X72768Y-30080D01*
X72772Y-30078D01*
X72772Y-30077D01*
X72776Y-30076D01*
X72782Y-30072D01*
X72784Y-30070D01*
X72790Y-30066D01*
X72794Y-30063D01*
X72795Y-30063D01*
X72798Y-30062D01*
X72804Y-30058D01*
X72808Y-30055D01*
X72815Y-30050D01*
X72819Y-30047D01*
X72821Y-30046D01*
X72824Y-30045D01*
X72830Y-30040D01*
X72835Y-30036D01*
X72842Y-30031D01*
X72848Y-30027D01*
X72850Y-30027D01*
X72853Y-30025D01*
X72853Y-30024D01*
X72855Y-30022D01*
X72861Y-30018D01*
X72870Y-30013D01*
X72871Y-30013D01*
X72890Y-30003D01*
X72904Y-29995D01*
X72913Y-29990D01*
X72918Y-29987D01*
X72918Y-29987D01*
X72921Y-29984D01*
X72928Y-29980D01*
X72937Y-29976D01*
X72944Y-29972D01*
X72950Y-29970D01*
X72950Y-29970D01*
X72954Y-29969D01*
X72955Y-29968D01*
X72958Y-29966D01*
X72964Y-29962D01*
X72971Y-29959D01*
X72986Y-29951D01*
X72986Y-29927D01*
X72986Y-29916D01*
X72985Y-29907D01*
X72985Y-29901D01*
X72984Y-29901D01*
X72984Y-29897D01*
X72984Y-29896D01*
X72985Y-29892D01*
X72986Y-29884D01*
X72986Y-29874D01*
X72986Y-29870D01*
X72986Y-29859D01*
X72986Y-29850D01*
X72987Y-29846D01*
X72988Y-29845D01*
X72989Y-29842D01*
X72991Y-29834D01*
X72992Y-29824D01*
X72992Y-29824D01*
X72994Y-29814D01*
X72995Y-29807D01*
X72997Y-29804D01*
X72997Y-29804D01*
X72998Y-29801D01*
X73000Y-29795D01*
X73001Y-29791D01*
X73002Y-29782D01*
X73004Y-29775D01*
X73005Y-29773D01*
X73009Y-29764D01*
X73013Y-29756D01*
X73015Y-29750D01*
X73015Y-29749D01*
X73016Y-29745D01*
X73019Y-29738D01*
X73023Y-29729D01*
X73028Y-29721D01*
X73031Y-29714D01*
X73034Y-29711D01*
X73036Y-29707D01*
X73037Y-29705D01*
X73040Y-29700D01*
X73044Y-29693D01*
X73046Y-29690D01*
X73051Y-29681D01*
X73055Y-29674D01*
X73056Y-29672D01*
X73059Y-29667D01*
X73061Y-29666D01*
X73065Y-29663D01*
X73069Y-29657D01*
X73074Y-29647D01*
X73075Y-29646D01*
X73077Y-29642D01*
X73083Y-29636D01*
X73092Y-29627D01*
X73103Y-29617D01*
X73114Y-29606D01*
X73126Y-29594D01*
X73138Y-29584D01*
X73148Y-29575D01*
X73156Y-29567D01*
X73162Y-29563D01*
X73164Y-29562D01*
X73168Y-29560D01*
X73169Y-29559D01*
X73172Y-29556D01*
X73178Y-29552D01*
X73184Y-29548D01*
X73189Y-29545D01*
X73190Y-29545D01*
X73193Y-29543D01*
X73196Y-29539D01*
X73200Y-29535D01*
X73203Y-29533D01*
X73207Y-29532D01*
X73213Y-29528D01*
X73216Y-29525D01*
X73228Y-29517D01*
X73239Y-29512D01*
X73242Y-29511D01*
X73248Y-29508D01*
X73255Y-29506D01*
X73259Y-29505D01*
X73262Y-29503D01*
X73262Y-29503D01*
X73264Y-29500D01*
X73270Y-29498D01*
X73270Y-29498D01*
X73276Y-29496D01*
X73279Y-29494D01*
X73281Y-29492D01*
X73286Y-29490D01*
X73294Y-29487D01*
X73305Y-29483D01*
X73316Y-29478D01*
X73324Y-29474D01*
X73330Y-29472D01*
X73339Y-29470D01*
X73342Y-29470D01*
X73350Y-29468D01*
X73354Y-29466D01*
X73355Y-29466D01*
X73357Y-29464D01*
X73364Y-29462D01*
X73368Y-29461D01*
X73377Y-29460D01*
X73383Y-29458D01*
X73384Y-29457D01*
X73388Y-29456D01*
X73397Y-29454D01*
X73408Y-29452D01*
X73420Y-29451D01*
X73431Y-29449D01*
X73440Y-29449D01*
X73442Y-29449D01*
X73449Y-29448D01*
X73454Y-29447D01*
X73455Y-29446D01*
X73458Y-29445D01*
X73466Y-29445D01*
X73478Y-29444D01*
X73492Y-29444D01*
X73509Y-29443D01*
X73528Y-29443D01*
X73546Y-29443D01*
X73565Y-29443D01*
X73582Y-29443D01*
X73597Y-29444D01*
X73610Y-29444D01*
X73618Y-29445D01*
X73622Y-29446D01*
X73622Y-29446D01*
X73625Y-29448D01*
X73631Y-29449D01*
X73633Y-29449D01*
X73641Y-29449D01*
X73653Y-29450D01*
X73665Y-29452D01*
X73676Y-29453D01*
X73686Y-29455D01*
X73693Y-29457D01*
X73694Y-29457D01*
X73699Y-29459D01*
X73706Y-29461D01*
X73709Y-29461D01*
X73717Y-29463D01*
X73722Y-29465D01*
X73722Y-29466D01*
X73726Y-29467D01*
X73733Y-29469D01*
X73738Y-29470D01*
X73746Y-29472D01*
X73751Y-29473D01*
X73752Y-29474D01*
X73754Y-29477D01*
X73757Y-29477D01*
X73763Y-29478D01*
X73770Y-29481D01*
X73773Y-29482D01*
X73781Y-29486D01*
X73790Y-29489D01*
X73791Y-29490D01*
X73797Y-29492D01*
X73800Y-29494D01*
X73803Y-29496D01*
X73810Y-29499D01*
X73818Y-29504D01*
X73827Y-29507D01*
X73833Y-29510D01*
X73836Y-29511D01*
X73841Y-29512D01*
X73847Y-29515D01*
X73853Y-29519D01*
X73856Y-29522D01*
X73856Y-29522D01*
X73858Y-29525D01*
X73860Y-29525D01*
X73863Y-29527D01*
X73870Y-29531D01*
X73875Y-29535D01*
X73882Y-29540D01*
X73887Y-29544D01*
X73889Y-29545D01*
X73892Y-29546D01*
X73898Y-29550D01*
X73901Y-29553D01*
X73908Y-29558D01*
X73914Y-29561D01*
X73916Y-29562D01*
X73919Y-29564D01*
X73925Y-29569D01*
X73934Y-29577D01*
X73944Y-29587D01*
X73956Y-29598D01*
X73968Y-29610D01*
X73980Y-29622D01*
X73991Y-29634D01*
X74000Y-29643D01*
X74007Y-29651D01*
X74011Y-29656D01*
X74011Y-29657D01*
X74013Y-29661D01*
X74017Y-29668D01*
X74021Y-29672D01*
X74027Y-29681D01*
X74032Y-29688D01*
X74033Y-29691D01*
X74039Y-29702D01*
X74044Y-29709D01*
X74047Y-29712D01*
X74048Y-29714D01*
X74048Y-29714D01*
X74049Y-29717D01*
X74051Y-29724D01*
X74055Y-29733D01*
X74060Y-29743D01*
X74065Y-29753D01*
X74067Y-29756D01*
X74070Y-29764D01*
X74071Y-29770D01*
X74071Y-29775D01*
X74073Y-29776D01*
X74074Y-29778D01*
X74076Y-29785D01*
X74078Y-29795D01*
X74079Y-29798D01*
X74081Y-29808D01*
X74083Y-29817D01*
X74085Y-29822D01*
X74085Y-29823D01*
X74086Y-29827D01*
X74088Y-29835D01*
X74089Y-29847D01*
X74089Y-29859D01*
X74090Y-29873D01*
X74091Y-29884D01*
X74092Y-29892D01*
X74094Y-29896D01*
X74094Y-29900D01*
X74093Y-29901D01*
X74092Y-29905D01*
X74091Y-29913D01*
X74090Y-29924D01*
X74090Y-29928D01*
X74090Y-29953D01*
X74099Y-29955D01*
X74105Y-29957D01*
X74107Y-29959D01*
X74107Y-29959D01*
X74110Y-29961D01*
X74115Y-29963D01*
X74116Y-29963D01*
X74122Y-29965D01*
X74124Y-29967D01*
X74124Y-29967D01*
X74126Y-29969D01*
X74132Y-29972D01*
X74135Y-29973D01*
X74144Y-29977D01*
X74152Y-29982D01*
X74153Y-29982D01*
X74160Y-29987D01*
X74170Y-29992D01*
X74174Y-29995D01*
X74182Y-29999D01*
X74187Y-30003D01*
X74189Y-30004D01*
X74192Y-30006D01*
X74199Y-30009D01*
X74200Y-30010D01*
X74209Y-30014D01*
X74219Y-30020D01*
X74219Y-30020D01*
X74225Y-30024D01*
X74229Y-30026D01*
X74230Y-30027D01*
X74233Y-30028D01*
X74239Y-30032D01*
X74243Y-30036D01*
X74251Y-30042D01*
X74257Y-30046D01*
X74260Y-30047D01*
X74264Y-30050D01*
X74265Y-30052D01*
X74267Y-30055D01*
X74268Y-30055D01*
X74272Y-30056D01*
X74278Y-30060D01*
X74280Y-30062D01*
X74287Y-30066D01*
X74291Y-30069D01*
X74292Y-30069D01*
X74295Y-30071D01*
X74301Y-30075D01*
X74309Y-30082D01*
X74317Y-30088D01*
X74323Y-30092D01*
X74326Y-30094D01*
X74328Y-30096D01*
X74334Y-30101D01*
X74343Y-30108D01*
X74350Y-30114D01*
X74359Y-30122D01*
X74366Y-30129D01*
X74372Y-30133D01*
X74373Y-30134D01*
X74376Y-30136D01*
X74382Y-30140D01*
X74386Y-30144D01*
X74393Y-30151D01*
X74399Y-30156D01*
X74401Y-30157D01*
X74405Y-30160D01*
X74406Y-30162D01*
X74408Y-30164D01*
X74413Y-30170D01*
X74421Y-30179D01*
X74432Y-30190D01*
X74444Y-30203D01*
X74451Y-30209D01*
X74464Y-30223D01*
X74475Y-30234D01*
X74485Y-30244D01*
X74492Y-30252D01*
X74496Y-30256D01*
X74496Y-30257D01*
X74498Y-30259D01*
X74503Y-30265D01*
X74510Y-30273D01*
X74514Y-30279D01*
X74522Y-30288D01*
X74528Y-30295D01*
X74532Y-30300D01*
X74533Y-30301D01*
X74534Y-30304D01*
X74539Y-30310D01*
X74545Y-30318D01*
X74547Y-30320D01*
X74554Y-30328D01*
X74559Y-30335D01*
X74561Y-30339D01*
X74561Y-30339D01*
X74563Y-30343D01*
X74564Y-30344D01*
X74569Y-30348D01*
X74571Y-30352D01*
X74575Y-30358D01*
X74580Y-30367D01*
X74586Y-30376D01*
X74592Y-30386D01*
X74596Y-30392D01*
X74596Y-30393D01*
X74600Y-30398D01*
X74605Y-30405D01*
X74605Y-30406D01*
X74609Y-30413D01*
X74612Y-30417D01*
X74612Y-30418D01*
X74613Y-30421D01*
X74614Y-30421D01*
X74617Y-30423D01*
X74619Y-30427D01*
X74621Y-30431D01*
X74625Y-30439D01*
X74631Y-30451D01*
X74638Y-30465D01*
X74646Y-30481D01*
X74647Y-30484D01*
X74655Y-30500D01*
X74663Y-30515D01*
X74669Y-30527D01*
X74673Y-30537D01*
X74675Y-30543D01*
X74675Y-30543D01*
X74677Y-30549D01*
X74679Y-30551D01*
X74681Y-30553D01*
X74683Y-30560D01*
X74683Y-30564D01*
X74685Y-30571D01*
X74687Y-30576D01*
X74688Y-30576D01*
X74690Y-30579D01*
X74692Y-30585D01*
X74692Y-30586D01*
X74694Y-30593D01*
X74696Y-30596D01*
X74696Y-30596D01*
X74698Y-30598D01*
X74700Y-30604D01*
X74701Y-30606D01*
X74702Y-30613D01*
X74705Y-30617D01*
X74705Y-30617D01*
X74706Y-30621D01*
X74706Y-30622D01*
X74706Y-30626D01*
X74707Y-30628D01*
X74709Y-30633D01*
X74711Y-30640D01*
X74712Y-30642D01*
X74714Y-30650D01*
X74716Y-30656D01*
X74716Y-30657D01*
X74718Y-30661D01*
X74720Y-30668D01*
X74720Y-30671D01*
X74722Y-30678D01*
X74724Y-30684D01*
X74724Y-30685D01*
X74726Y-30689D01*
X74728Y-30697D01*
X74728Y-30699D01*
X74730Y-30707D01*
X74733Y-30713D01*
X74733Y-30713D01*
X74735Y-30719D01*
X74734Y-30723D01*
X74734Y-30727D01*
X74735Y-30728D01*
X74737Y-30731D01*
X74738Y-30738D01*
X74739Y-30748D01*
X74740Y-30752D01*
X74741Y-30763D01*
X74742Y-30772D01*
X74744Y-30777D01*
X74744Y-30778D01*
X74745Y-30781D01*
X74747Y-30788D01*
X74748Y-30799D01*
X74748Y-30802D01*
X74750Y-30813D01*
X74751Y-30822D01*
X74753Y-30827D01*
X74754Y-30828D01*
X74754Y-30831D01*
X74755Y-30839D01*
X74756Y-30851D01*
X74756Y-30867D01*
X74757Y-30886D01*
X74757Y-30907D01*
X74757Y-30929D01*
X74757Y-30953D01*
X74757Y-30953D01*
X74757Y-30953D01*
G37*
G36*
X73300Y-31363D02*
X73300Y-31378D01*
X73299Y-31392D01*
X73298Y-31403D01*
X73298Y-31410D01*
X73297Y-31412D01*
X73295Y-31418D01*
X73295Y-31421D01*
X73294Y-31424D01*
X73293Y-31424D01*
X73290Y-31427D01*
X73290Y-31430D01*
X73289Y-31435D01*
X73287Y-31437D01*
X73285Y-31440D01*
X73281Y-31447D01*
X73278Y-31452D01*
X73273Y-31462D01*
X73265Y-31472D01*
X73263Y-31474D01*
X73257Y-31480D01*
X73254Y-31484D01*
X73253Y-31485D01*
X73251Y-31488D01*
X73246Y-31493D01*
X73239Y-31499D01*
X73233Y-31504D01*
X73227Y-31508D01*
X73227Y-31508D01*
X73216Y-31514D01*
X73204Y-31520D01*
X73193Y-31525D01*
X73185Y-31528D01*
X73181Y-31529D01*
X73174Y-31531D01*
X73172Y-31532D01*
X73168Y-31533D01*
X73160Y-31535D01*
X73148Y-31535D01*
X73135Y-31536D01*
X73120Y-31537D01*
X73106Y-31537D01*
X73094Y-31537D01*
X73085Y-31536D01*
X73080Y-31535D01*
X73074Y-31533D01*
X73072Y-31531D01*
X73067Y-31529D01*
X73063Y-31529D01*
X73058Y-31528D01*
X73050Y-31524D01*
X73040Y-31520D01*
X73029Y-31515D01*
X73020Y-31510D01*
X73018Y-31508D01*
X73012Y-31504D01*
X73006Y-31498D01*
X73005Y-31497D01*
X72999Y-31492D01*
X72995Y-31489D01*
X72994Y-31489D01*
X72991Y-31487D01*
X72991Y-31487D01*
X72989Y-31483D01*
X72985Y-31477D01*
X72981Y-31474D01*
X72974Y-31465D01*
X72967Y-31455D01*
X72966Y-31452D01*
X72962Y-31444D01*
X72958Y-31437D01*
X72957Y-31436D01*
X72954Y-31428D01*
X72952Y-31421D01*
X72951Y-31418D01*
X72950Y-31414D01*
X72948Y-31413D01*
X72947Y-31411D01*
X72946Y-31405D01*
X72945Y-31396D01*
X72945Y-31382D01*
X72945Y-31364D01*
X72945Y-31363D01*
X72945Y-31345D01*
X72945Y-31332D01*
X72946Y-31322D01*
X72947Y-31315D01*
X72948Y-31311D01*
X72949Y-31308D01*
X72953Y-31300D01*
X72954Y-31293D01*
X72954Y-31293D01*
X72956Y-31287D01*
X72958Y-31285D01*
X72962Y-31281D01*
X72964Y-31275D01*
X72966Y-31269D01*
X72969Y-31267D01*
X72971Y-31264D01*
X72971Y-31263D01*
X72973Y-31259D01*
X72978Y-31253D01*
X72986Y-31245D01*
X72994Y-31237D01*
X73003Y-31229D01*
X73010Y-31222D01*
X73016Y-31217D01*
X73017Y-31217D01*
X73025Y-31213D01*
X73031Y-31210D01*
X73037Y-31207D01*
X73039Y-31204D01*
X73041Y-31202D01*
X73047Y-31201D01*
X73047Y-31200D01*
X73053Y-31198D01*
X73056Y-31196D01*
X73056Y-31196D01*
X73058Y-31195D01*
X73065Y-31193D01*
X73070Y-31192D01*
X73078Y-31191D01*
X73084Y-31189D01*
X73086Y-31188D01*
X73089Y-31187D01*
X73096Y-31186D01*
X73107Y-31185D01*
X73119Y-31185D01*
X73131Y-31185D01*
X73143Y-31185D01*
X73152Y-31186D01*
X73158Y-31187D01*
X73160Y-31188D01*
X73163Y-31189D01*
X73169Y-31191D01*
X73172Y-31192D01*
X73181Y-31194D01*
X73191Y-31197D01*
X73200Y-31201D01*
X73205Y-31205D01*
X73205Y-31205D01*
X73209Y-31207D01*
X73214Y-31209D01*
X73220Y-31211D01*
X73222Y-31214D01*
X73224Y-31216D01*
X73228Y-31218D01*
X73233Y-31221D01*
X73240Y-31227D01*
X73248Y-31235D01*
X73256Y-31243D01*
X73264Y-31251D01*
X73270Y-31258D01*
X73273Y-31262D01*
X73273Y-31263D01*
X73274Y-31266D01*
X73276Y-31267D01*
X73278Y-31269D01*
X73280Y-31275D01*
X73282Y-31281D01*
X73286Y-31285D01*
X73289Y-31288D01*
X73290Y-31293D01*
X73291Y-31299D01*
X73293Y-31301D01*
X73295Y-31303D01*
X73295Y-31304D01*
X73296Y-31309D01*
X73297Y-31313D01*
X73298Y-31318D01*
X73299Y-31327D01*
X73299Y-31340D01*
X73300Y-31354D01*
X73300Y-31363D01*
X73300Y-31363D01*
X73300Y-31363D01*
G37*
G36*
X73046Y-30470D02*
X73046Y-30484D01*
X73046Y-30497D01*
X73045Y-30508D01*
X73044Y-30515D01*
X73043Y-30517D01*
X73040Y-30523D01*
X73038Y-30530D01*
X73038Y-30531D01*
X73034Y-30540D01*
X73029Y-30549D01*
X73029Y-30550D01*
X73024Y-30556D01*
X73022Y-30561D01*
X73022Y-30562D01*
X73020Y-30565D01*
X73016Y-30572D01*
X73011Y-30577D01*
X73005Y-30584D01*
X73001Y-30590D01*
X73000Y-30593D01*
X72997Y-30596D01*
X72996Y-30596D01*
X72993Y-30598D01*
X72987Y-30602D01*
X72979Y-30608D01*
X72970Y-30615D01*
X72961Y-30621D01*
X72955Y-30624D01*
X72948Y-30627D01*
X72943Y-30630D01*
X72943Y-30630D01*
X72939Y-30632D01*
X72932Y-30634D01*
X72930Y-30635D01*
X72923Y-30636D01*
X72918Y-30639D01*
X72917Y-30639D01*
X72914Y-30640D01*
X72906Y-30641D01*
X72895Y-30642D01*
X72882Y-30643D01*
X72867Y-30643D01*
X72853Y-30643D01*
X72840Y-30643D01*
X72830Y-30643D01*
X72823Y-30642D01*
X72823Y-30642D01*
X72818Y-30640D01*
X72816Y-30638D01*
X72814Y-30636D01*
X72809Y-30635D01*
X72803Y-30634D01*
X72794Y-30631D01*
X72789Y-30628D01*
X72781Y-30624D01*
X72775Y-30622D01*
X72773Y-30621D01*
X72769Y-30619D01*
X72767Y-30617D01*
X72764Y-30613D01*
X72762Y-30613D01*
X72758Y-30611D01*
X72752Y-30606D01*
X72744Y-30598D01*
X72738Y-30592D01*
X72725Y-30577D01*
X72713Y-30561D01*
X72703Y-30544D01*
X72696Y-30528D01*
X72694Y-30518D01*
X72692Y-30511D01*
X72689Y-30507D01*
X72689Y-30507D01*
X72688Y-30504D01*
X72687Y-30496D01*
X72687Y-30486D01*
X72687Y-30474D01*
X72687Y-30461D01*
X72687Y-30449D01*
X72688Y-30439D01*
X72688Y-30432D01*
X72689Y-30430D01*
X72691Y-30427D01*
X72693Y-30421D01*
X72694Y-30419D01*
X72696Y-30411D01*
X72698Y-30406D01*
X72698Y-30405D01*
X72700Y-30401D01*
X72700Y-30399D01*
X72700Y-30395D01*
X72702Y-30393D01*
X72706Y-30388D01*
X72706Y-30386D01*
X72708Y-30382D01*
X72709Y-30382D01*
X72712Y-30379D01*
X72712Y-30377D01*
X72714Y-30373D01*
X72719Y-30367D01*
X72725Y-30359D01*
X72731Y-30352D01*
X72735Y-30347D01*
X72735Y-30344D01*
X72736Y-30342D01*
X72737Y-30342D01*
X72741Y-30340D01*
X72748Y-30336D01*
X72753Y-30331D01*
X72764Y-30323D01*
X72777Y-30315D01*
X72792Y-30308D01*
X72806Y-30302D01*
X72817Y-30298D01*
X72824Y-30297D01*
X72829Y-30294D01*
X72829Y-30294D01*
X72833Y-30293D01*
X72840Y-30292D01*
X72851Y-30292D01*
X72863Y-30292D01*
X72876Y-30292D01*
X72888Y-30292D01*
X72897Y-30293D01*
X72904Y-30294D01*
X72905Y-30294D01*
X72909Y-30296D01*
X72916Y-30298D01*
X72920Y-30299D01*
X72928Y-30300D01*
X72934Y-30302D01*
X72935Y-30303D01*
X72938Y-30305D01*
X72944Y-30308D01*
X72952Y-30312D01*
X72964Y-30319D01*
X72972Y-30323D01*
X72978Y-30327D01*
X72983Y-30331D01*
X72987Y-30335D01*
X72992Y-30340D01*
X72996Y-30342D01*
X72997Y-30342D01*
X72999Y-30344D01*
X73000Y-30345D01*
X73001Y-30348D01*
X73006Y-30354D01*
X73009Y-30357D01*
X73016Y-30364D01*
X73020Y-30372D01*
X73021Y-30374D01*
X73023Y-30380D01*
X73025Y-30382D01*
X73027Y-30384D01*
X73028Y-30386D01*
X73030Y-30391D01*
X73032Y-30393D01*
X73035Y-30398D01*
X73037Y-30405D01*
X73038Y-30407D01*
X73040Y-30414D01*
X73042Y-30419D01*
X73043Y-30419D01*
X73044Y-30422D01*
X73045Y-30430D01*
X73046Y-30442D01*
X73046Y-30455D01*
X73046Y-30470D01*
X73046Y-30470D01*
X73046Y-30470D01*
G37*
G36*
X74134Y-31363D02*
X74134Y-31378D01*
X74133Y-31391D01*
X74133Y-31401D01*
X74132Y-31409D01*
X74131Y-31411D01*
X74128Y-31416D01*
X74126Y-31424D01*
X74125Y-31425D01*
X74123Y-31433D01*
X74120Y-31438D01*
X74120Y-31439D01*
X74116Y-31444D01*
X74116Y-31446D01*
X74114Y-31450D01*
X74113Y-31450D01*
X74111Y-31452D01*
X74111Y-31452D01*
X74110Y-31456D01*
X74106Y-31462D01*
X74100Y-31469D01*
X74094Y-31477D01*
X74089Y-31483D01*
X74087Y-31486D01*
X74085Y-31489D01*
X74084Y-31489D01*
X74081Y-31491D01*
X74074Y-31496D01*
X74069Y-31501D01*
X74059Y-31508D01*
X74048Y-31515D01*
X74036Y-31521D01*
X74026Y-31526D01*
X74017Y-31529D01*
X74015Y-31529D01*
X74009Y-31531D01*
X74006Y-31532D01*
X74002Y-31533D01*
X73994Y-31535D01*
X73982Y-31535D01*
X73969Y-31536D01*
X73954Y-31537D01*
X73940Y-31537D01*
X73927Y-31536D01*
X73917Y-31536D01*
X73912Y-31535D01*
X73906Y-31534D01*
X73904Y-31531D01*
X73902Y-31529D01*
X73898Y-31529D01*
X73892Y-31528D01*
X73884Y-31526D01*
X73877Y-31523D01*
X73873Y-31521D01*
X73873Y-31520D01*
X73871Y-31518D01*
X73865Y-31516D01*
X73865Y-31516D01*
X73859Y-31514D01*
X73856Y-31512D01*
X73854Y-31509D01*
X73850Y-31507D01*
X73845Y-31503D01*
X73836Y-31496D01*
X73827Y-31487D01*
X73817Y-31477D01*
X73809Y-31467D01*
X73803Y-31458D01*
X73800Y-31453D01*
X73796Y-31445D01*
X73793Y-31440D01*
X73792Y-31439D01*
X73789Y-31433D01*
X73789Y-31430D01*
X73788Y-31426D01*
X73786Y-31424D01*
X73784Y-31422D01*
X73782Y-31416D01*
X73782Y-31413D01*
X73780Y-31406D01*
X73778Y-31401D01*
X73777Y-31400D01*
X73776Y-31397D01*
X73775Y-31389D01*
X73775Y-31379D01*
X73775Y-31366D01*
X73775Y-31354D01*
X73775Y-31342D01*
X73776Y-31332D01*
X73776Y-31326D01*
X73777Y-31325D01*
X73779Y-31321D01*
X73781Y-31314D01*
X73781Y-31313D01*
X73784Y-31303D01*
X73788Y-31294D01*
X73792Y-31286D01*
X73795Y-31281D01*
X73798Y-31274D01*
X73800Y-31271D01*
X73804Y-31264D01*
X73812Y-31255D01*
X73821Y-31244D01*
X73832Y-31233D01*
X73842Y-31224D01*
X73850Y-31217D01*
X73851Y-31217D01*
X73861Y-31211D01*
X73873Y-31204D01*
X73886Y-31198D01*
X73897Y-31194D01*
X73905Y-31192D01*
X73912Y-31190D01*
X73917Y-31188D01*
X73917Y-31188D01*
X73920Y-31187D01*
X73928Y-31186D01*
X73939Y-31185D01*
X73953Y-31185D01*
X73955Y-31185D01*
X73969Y-31185D01*
X73980Y-31186D01*
X73989Y-31186D01*
X73993Y-31187D01*
X73993Y-31188D01*
X73996Y-31190D01*
X74003Y-31192D01*
X74006Y-31192D01*
X74015Y-31195D01*
X74028Y-31200D01*
X74043Y-31207D01*
X74060Y-31216D01*
X74061Y-31217D01*
X74068Y-31222D01*
X74074Y-31228D01*
X74075Y-31228D01*
X74080Y-31233D01*
X74084Y-31236D01*
X74084Y-31236D01*
X74087Y-31238D01*
X74087Y-31239D01*
X74089Y-31243D01*
X74094Y-31248D01*
X74096Y-31250D01*
X74102Y-31256D01*
X74108Y-31266D01*
X74111Y-31271D01*
X74116Y-31280D01*
X74119Y-31286D01*
X74121Y-31288D01*
X74123Y-31291D01*
X74125Y-31298D01*
X74125Y-31300D01*
X74128Y-31307D01*
X74130Y-31312D01*
X74131Y-31312D01*
X74132Y-31316D01*
X74133Y-31324D01*
X74134Y-31335D01*
X74134Y-31349D01*
X74134Y-31363D01*
X74134Y-31363D01*
X74134Y-31363D01*
G37*
G36*
X74392Y-30465D02*
X74392Y-30478D01*
X74391Y-30490D01*
X74391Y-30499D01*
X74390Y-30506D01*
X74389Y-30507D01*
X74387Y-30511D01*
X74385Y-30518D01*
X74385Y-30520D01*
X74383Y-30527D01*
X74381Y-30531D01*
X74380Y-30531D01*
X74378Y-30533D01*
X74378Y-30537D01*
X74376Y-30543D01*
X74374Y-30546D01*
X74371Y-30551D01*
X74367Y-30558D01*
X74365Y-30561D01*
X74359Y-30570D01*
X74352Y-30579D01*
X74350Y-30581D01*
X74345Y-30587D01*
X74341Y-30592D01*
X74341Y-30593D01*
X74340Y-30596D01*
X74339Y-30596D01*
X74336Y-30598D01*
X74330Y-30602D01*
X74328Y-30604D01*
X74321Y-30610D01*
X74315Y-30614D01*
X74314Y-30615D01*
X74306Y-30620D01*
X74296Y-30625D01*
X74286Y-30629D01*
X74276Y-30633D01*
X74270Y-30635D01*
X74268Y-30635D01*
X74262Y-30637D01*
X74260Y-30639D01*
X74256Y-30640D01*
X74248Y-30641D01*
X74236Y-30642D01*
X74223Y-30643D01*
X74208Y-30643D01*
X74194Y-30643D01*
X74182Y-30643D01*
X74173Y-30643D01*
X74168Y-30642D01*
X74162Y-30640D01*
X74159Y-30638D01*
X74155Y-30636D01*
X74152Y-30635D01*
X74147Y-30634D01*
X74138Y-30631D01*
X74128Y-30627D01*
X74118Y-30622D01*
X74109Y-30617D01*
X74106Y-30615D01*
X74100Y-30610D01*
X74094Y-30604D01*
X74094Y-30604D01*
X74088Y-30599D01*
X74083Y-30596D01*
X74083Y-30596D01*
X74079Y-30594D01*
X74079Y-30592D01*
X74077Y-30588D01*
X74072Y-30583D01*
X74071Y-30581D01*
X74064Y-30574D01*
X74058Y-30565D01*
X74055Y-30561D01*
X74051Y-30552D01*
X74047Y-30546D01*
X74045Y-30544D01*
X74043Y-30539D01*
X74041Y-30532D01*
X74041Y-30531D01*
X74039Y-30524D01*
X74036Y-30519D01*
X74036Y-30519D01*
X74034Y-30516D01*
X74033Y-30507D01*
X74033Y-30492D01*
X74032Y-30473D01*
X74032Y-30470D01*
X74032Y-30452D01*
X74033Y-30438D01*
X74033Y-30429D01*
X74034Y-30422D01*
X74036Y-30417D01*
X74037Y-30414D01*
X74041Y-30407D01*
X74042Y-30400D01*
X74042Y-30400D01*
X74044Y-30394D01*
X74046Y-30392D01*
X74050Y-30388D01*
X74052Y-30382D01*
X74054Y-30376D01*
X74057Y-30373D01*
X74057Y-30373D01*
X74059Y-30371D01*
X74059Y-30370D01*
X74061Y-30366D01*
X74066Y-30360D01*
X74074Y-30352D01*
X74082Y-30343D01*
X74091Y-30335D01*
X74098Y-30328D01*
X74104Y-30324D01*
X74104Y-30324D01*
X74112Y-30319D01*
X74119Y-30316D01*
X74125Y-30313D01*
X74127Y-30311D01*
X74129Y-30309D01*
X74135Y-30307D01*
X74135Y-30307D01*
X74141Y-30305D01*
X74144Y-30303D01*
X74144Y-30303D01*
X74146Y-30301D01*
X74153Y-30300D01*
X74158Y-30299D01*
X74166Y-30297D01*
X74171Y-30295D01*
X74172Y-30294D01*
X74175Y-30293D01*
X74182Y-30292D01*
X74192Y-30292D01*
X74204Y-30292D01*
X74216Y-30292D01*
X74229Y-30292D01*
X74239Y-30292D01*
X74246Y-30293D01*
X74249Y-30294D01*
X74253Y-30296D01*
X74260Y-30298D01*
X74261Y-30298D01*
X74269Y-30300D01*
X74278Y-30304D01*
X74288Y-30309D01*
X74298Y-30313D01*
X74307Y-30318D01*
X74312Y-30321D01*
X74313Y-30323D01*
X74315Y-30325D01*
X74317Y-30325D01*
X74320Y-30327D01*
X74326Y-30332D01*
X74334Y-30340D01*
X74343Y-30348D01*
X74350Y-30356D01*
X74357Y-30363D01*
X74360Y-30368D01*
X74361Y-30370D01*
X74362Y-30373D01*
X74363Y-30373D01*
X74366Y-30376D01*
X74369Y-30381D01*
X74372Y-30388D01*
X74374Y-30393D01*
X74380Y-30404D01*
X74384Y-30415D01*
X74385Y-30419D01*
X74387Y-30427D01*
X74389Y-30431D01*
X74389Y-30431D01*
X74390Y-30435D01*
X74391Y-30442D01*
X74392Y-30453D01*
X74392Y-30465D01*
X74392Y-30465D01*
X74392Y-30465D01*
G37*
G54D15*
X80915Y-29804D02*
X80915Y-30043D01*
X80929Y-30071D01*
X80943Y-30085D01*
X80971Y-30099D01*
X81027Y-30099D01*
X81055Y-30085D01*
X81069Y-30071D01*
X81083Y-30043D01*
X81083Y-29804D01*
X81210Y-29832D02*
X81224Y-29818D01*
X81252Y-29804D01*
X81322Y-29804D01*
X81350Y-29818D01*
X81364Y-29832D01*
X81378Y-29860D01*
X81378Y-29888D01*
X81364Y-29930D01*
X81196Y-30099D01*
X81378Y-30099D01*
X81644Y-30119D02*
X81644Y-29824D01*
X81743Y-30035D01*
X81841Y-29824D01*
X81841Y-30119D01*
X82150Y-30091D02*
X82136Y-30105D01*
X82094Y-30119D01*
X82066Y-30119D01*
X82024Y-30105D01*
X81995Y-30077D01*
X81981Y-30049D01*
X81967Y-29992D01*
X81967Y-29950D01*
X81981Y-29894D01*
X81995Y-29866D01*
X82024Y-29838D01*
X82066Y-29824D01*
X82094Y-29824D01*
X82136Y-29838D01*
X82150Y-29852D01*
X82276Y-30119D02*
X82276Y-29824D01*
X82389Y-29824D01*
X82417Y-29838D01*
X82431Y-29852D01*
X82445Y-29880D01*
X82445Y-29922D01*
X82431Y-29950D01*
X82417Y-29964D01*
X82389Y-29978D01*
X82276Y-29978D01*
X82698Y-29824D02*
X82642Y-29824D01*
X82614Y-29838D01*
X82600Y-29852D01*
X82571Y-29894D01*
X82557Y-29950D01*
X82557Y-30063D01*
X82571Y-30091D01*
X82585Y-30105D01*
X82614Y-30119D01*
X82670Y-30119D01*
X82698Y-30105D01*
X82712Y-30091D01*
X82726Y-30063D01*
X82726Y-29992D01*
X82712Y-29964D01*
X82698Y-29950D01*
X82670Y-29936D01*
X82614Y-29936D01*
X82585Y-29950D01*
X82571Y-29964D01*
X82557Y-29992D01*
X82838Y-29852D02*
X82852Y-29838D01*
X82880Y-29824D01*
X82951Y-29824D01*
X82979Y-29838D01*
X82993Y-29852D01*
X83007Y-29880D01*
X83007Y-29908D01*
X82993Y-29950D01*
X82824Y-30119D01*
X83007Y-30119D01*
X83260Y-29922D02*
X83260Y-30119D01*
X83190Y-29810D02*
X83119Y-30021D01*
X83302Y-30021D01*
X83400Y-29852D02*
X83414Y-29838D01*
X83442Y-29824D01*
X83513Y-29824D01*
X83541Y-29838D01*
X83555Y-29852D01*
X83569Y-29880D01*
X83569Y-29908D01*
X83555Y-29950D01*
X83386Y-30119D01*
X83569Y-30119D01*
G54D16*
X86475Y-37267D02*
X86485Y-37277D01*
X86494Y-37305D01*
X86494Y-37324D01*
X86485Y-37352D01*
X86466Y-37371D01*
X86447Y-37380D01*
X86410Y-37389D01*
X86382Y-37389D01*
X86344Y-37380D01*
X86325Y-37371D01*
X86307Y-37352D01*
X86297Y-37324D01*
X86297Y-37305D01*
X86307Y-37277D01*
X86316Y-37267D01*
X86382Y-37155D02*
X86372Y-37174D01*
X86363Y-37183D01*
X86344Y-37192D01*
X86335Y-37192D01*
X86316Y-37183D01*
X86307Y-37174D01*
X86297Y-37155D01*
X86297Y-37117D01*
X86307Y-37098D01*
X86316Y-37089D01*
X86335Y-37080D01*
X86344Y-37080D01*
X86363Y-37089D01*
X86372Y-37098D01*
X86382Y-37117D01*
X86382Y-37155D01*
X86391Y-37174D01*
X86400Y-37183D01*
X86419Y-37192D01*
X86457Y-37192D01*
X86475Y-37183D01*
X86485Y-37174D01*
X86494Y-37155D01*
X86494Y-37117D01*
X86485Y-37098D01*
X86475Y-37089D01*
X86457Y-37080D01*
X86419Y-37080D01*
X86400Y-37089D01*
X86391Y-37098D01*
X86382Y-37117D01*
X86535Y-38077D02*
X86545Y-38068D01*
X86554Y-38077D01*
X86545Y-38087D01*
X86535Y-38077D01*
X86554Y-38077D01*
X86554Y-37880D02*
X86554Y-37993D01*
X86554Y-37937D02*
X86357Y-37937D01*
X86385Y-37955D01*
X86404Y-37974D01*
X86414Y-37993D01*
X86423Y-37712D02*
X86554Y-37712D01*
X86423Y-37796D02*
X86526Y-37796D01*
X86545Y-37787D01*
X86554Y-37768D01*
X86554Y-37740D01*
X86545Y-37721D01*
X86535Y-37712D01*
X82858Y-35307D02*
X82792Y-35213D01*
X82745Y-35307D02*
X82745Y-35110D01*
X82820Y-35110D01*
X82839Y-35120D01*
X82848Y-35129D01*
X82858Y-35148D01*
X82858Y-35176D01*
X82848Y-35195D01*
X82839Y-35204D01*
X82820Y-35213D01*
X82745Y-35213D01*
X83045Y-35307D02*
X82933Y-35307D01*
X82989Y-35307D02*
X82989Y-35110D01*
X82970Y-35138D01*
X82952Y-35157D01*
X82933Y-35167D01*
X83111Y-35110D02*
X83233Y-35110D01*
X83167Y-35185D01*
X83196Y-35185D01*
X83214Y-35195D01*
X83224Y-35204D01*
X83233Y-35223D01*
X83233Y-35270D01*
X83224Y-35288D01*
X83214Y-35298D01*
X83196Y-35307D01*
X83139Y-35307D01*
X83121Y-35298D01*
X83111Y-35288D01*
X81915Y-35347D02*
X81802Y-35347D01*
X81858Y-35347D02*
X81858Y-35150D01*
X81840Y-35178D01*
X81821Y-35197D01*
X81802Y-35207D01*
X82037Y-35150D02*
X82055Y-35150D01*
X82074Y-35160D01*
X82084Y-35169D01*
X82093Y-35188D01*
X82102Y-35225D01*
X82102Y-35272D01*
X82093Y-35310D01*
X82084Y-35328D01*
X82074Y-35338D01*
X82055Y-35347D01*
X82037Y-35347D01*
X82018Y-35338D01*
X82008Y-35328D01*
X81999Y-35310D01*
X81990Y-35272D01*
X81990Y-35225D01*
X81999Y-35188D01*
X82008Y-35169D01*
X82018Y-35160D01*
X82037Y-35150D01*
X82224Y-35150D02*
X82243Y-35150D01*
X82262Y-35160D01*
X82271Y-35169D01*
X82281Y-35188D01*
X82290Y-35225D01*
X82290Y-35272D01*
X82281Y-35310D01*
X82271Y-35328D01*
X82262Y-35338D01*
X82243Y-35347D01*
X82224Y-35347D01*
X82205Y-35338D01*
X82196Y-35328D01*
X82187Y-35310D01*
X82177Y-35272D01*
X82177Y-35225D01*
X82187Y-35188D01*
X82196Y-35169D01*
X82205Y-35160D01*
X82224Y-35150D01*
X82374Y-35347D02*
X82374Y-35150D01*
X82487Y-35347D02*
X82402Y-35235D01*
X82487Y-35150D02*
X82374Y-35263D01*
X85621Y-35622D02*
X85611Y-35632D01*
X85583Y-35641D01*
X85564Y-35641D01*
X85536Y-35632D01*
X85517Y-35613D01*
X85508Y-35594D01*
X85499Y-35557D01*
X85499Y-35529D01*
X85508Y-35491D01*
X85517Y-35472D01*
X85536Y-35454D01*
X85564Y-35444D01*
X85583Y-35444D01*
X85611Y-35454D01*
X85621Y-35463D01*
X85686Y-35444D02*
X85808Y-35444D01*
X85743Y-35519D01*
X85771Y-35519D01*
X85790Y-35529D01*
X85799Y-35538D01*
X85808Y-35557D01*
X85808Y-35604D01*
X85799Y-35622D01*
X85790Y-35632D01*
X85771Y-35641D01*
X85714Y-35641D01*
X85696Y-35632D01*
X85686Y-35622D01*
X85101Y-35641D02*
X84988Y-35641D01*
X85044Y-35641D02*
X85044Y-35444D01*
X85026Y-35472D01*
X85007Y-35491D01*
X84988Y-35501D01*
X85270Y-35510D02*
X85270Y-35641D01*
X85185Y-35510D02*
X85185Y-35613D01*
X85194Y-35632D01*
X85213Y-35641D01*
X85241Y-35641D01*
X85260Y-35632D01*
X85270Y-35622D01*
X79767Y-34979D02*
X79701Y-34885D01*
X79654Y-34979D02*
X79654Y-34782D01*
X79729Y-34782D01*
X79748Y-34792D01*
X79757Y-34801D01*
X79767Y-34820D01*
X79767Y-34848D01*
X79757Y-34867D01*
X79748Y-34876D01*
X79729Y-34885D01*
X79654Y-34885D01*
X79936Y-34848D02*
X79936Y-34979D01*
X79889Y-34773D02*
X79842Y-34914D01*
X79964Y-34914D01*
X80151Y-34781D02*
X80160Y-34772D01*
X80179Y-34762D01*
X80226Y-34762D01*
X80245Y-34772D01*
X80254Y-34781D01*
X80263Y-34800D01*
X80263Y-34819D01*
X80254Y-34847D01*
X80142Y-34959D01*
X80263Y-34959D01*
X80339Y-34781D02*
X80348Y-34772D01*
X80367Y-34762D01*
X80414Y-34762D01*
X80432Y-34772D01*
X80442Y-34781D01*
X80451Y-34800D01*
X80451Y-34819D01*
X80442Y-34847D01*
X80329Y-34959D01*
X80451Y-34959D01*
X80536Y-34959D02*
X80536Y-34762D01*
X80648Y-34959D02*
X80564Y-34847D01*
X80648Y-34762D02*
X80536Y-34875D01*
X86424Y-37817D02*
X86330Y-37883D01*
X86424Y-37930D02*
X86227Y-37930D01*
X86227Y-37855D01*
X86237Y-37836D01*
X86246Y-37827D01*
X86265Y-37817D01*
X86293Y-37817D01*
X86312Y-37827D01*
X86321Y-37836D01*
X86330Y-37855D01*
X86330Y-37930D01*
X86227Y-37752D02*
X86227Y-37630D01*
X86302Y-37695D01*
X86302Y-37667D01*
X86312Y-37648D01*
X86321Y-37639D01*
X86340Y-37630D01*
X86387Y-37630D01*
X86405Y-37639D01*
X86415Y-37648D01*
X86424Y-37667D01*
X86424Y-37724D01*
X86415Y-37742D01*
X86405Y-37752D01*
X86206Y-37333D02*
X86197Y-37324D01*
X86187Y-37305D01*
X86187Y-37258D01*
X86197Y-37239D01*
X86206Y-37230D01*
X86225Y-37221D01*
X86244Y-37221D01*
X86272Y-37230D01*
X86384Y-37342D01*
X86384Y-37221D01*
X86206Y-37145D02*
X86197Y-37136D01*
X86187Y-37117D01*
X86187Y-37070D01*
X86197Y-37052D01*
X86206Y-37042D01*
X86225Y-37033D01*
X86244Y-37033D01*
X86272Y-37042D01*
X86384Y-37155D01*
X86384Y-37033D01*
X86384Y-36948D02*
X86187Y-36948D01*
X86384Y-36836D02*
X86272Y-36920D01*
X86187Y-36836D02*
X86300Y-36948D01*
X84315Y-38857D02*
X84221Y-38923D01*
X84315Y-38970D02*
X84118Y-38970D01*
X84118Y-38895D01*
X84128Y-38876D01*
X84137Y-38867D01*
X84156Y-38857D01*
X84184Y-38857D01*
X84203Y-38867D01*
X84212Y-38876D01*
X84221Y-38895D01*
X84221Y-38970D01*
X84137Y-38782D02*
X84128Y-38773D01*
X84118Y-38754D01*
X84118Y-38707D01*
X84128Y-38688D01*
X84137Y-38679D01*
X84156Y-38670D01*
X84175Y-38670D01*
X84203Y-38679D01*
X84315Y-38792D01*
X84315Y-38670D01*
X84275Y-38255D02*
X84275Y-38368D01*
X84275Y-38311D02*
X84078Y-38311D01*
X84106Y-38330D01*
X84125Y-38349D01*
X84135Y-38368D01*
X84275Y-38171D02*
X84078Y-38171D01*
X84275Y-38058D02*
X84163Y-38142D01*
X84078Y-38058D02*
X84191Y-38171D01*
X84256Y-37824D02*
X84266Y-37814D01*
X84275Y-37824D01*
X84266Y-37833D01*
X84256Y-37824D01*
X84275Y-37824D01*
X84078Y-37636D02*
X84078Y-37730D01*
X84172Y-37739D01*
X84163Y-37730D01*
X84153Y-37711D01*
X84153Y-37664D01*
X84163Y-37645D01*
X84172Y-37636D01*
X84191Y-37627D01*
X84238Y-37627D01*
X84256Y-37636D01*
X84266Y-37645D01*
X84275Y-37664D01*
X84275Y-37711D01*
X84266Y-37730D01*
X84256Y-37739D01*
X84275Y-37551D02*
X84078Y-37401D01*
X84078Y-37523D02*
X84088Y-37505D01*
X84106Y-37495D01*
X84125Y-37505D01*
X84135Y-37523D01*
X84125Y-37542D01*
X84106Y-37551D01*
X84088Y-37542D01*
X84078Y-37523D01*
X84266Y-37411D02*
X84247Y-37401D01*
X84228Y-37411D01*
X84219Y-37430D01*
X84228Y-37448D01*
X84247Y-37458D01*
X84266Y-37448D01*
X84275Y-37430D01*
X84266Y-37411D01*
X81137Y-40889D02*
X81071Y-40795D01*
X81024Y-40889D02*
X81024Y-40692D01*
X81099Y-40692D01*
X81118Y-40702D01*
X81127Y-40711D01*
X81137Y-40730D01*
X81137Y-40758D01*
X81127Y-40777D01*
X81118Y-40786D01*
X81099Y-40795D01*
X81024Y-40795D01*
X81324Y-40889D02*
X81212Y-40889D01*
X81268Y-40889D02*
X81268Y-40692D01*
X81249Y-40720D01*
X81231Y-40739D01*
X81212Y-40749D01*
X81400Y-40711D02*
X81409Y-40702D01*
X81428Y-40692D01*
X81475Y-40692D01*
X81493Y-40702D01*
X81503Y-40711D01*
X81512Y-40730D01*
X81512Y-40749D01*
X81503Y-40777D01*
X81390Y-40889D01*
X81512Y-40889D01*
X81901Y-40909D02*
X81789Y-40909D01*
X81845Y-40909D02*
X81845Y-40712D01*
X81826Y-40740D01*
X81807Y-40759D01*
X81789Y-40769D01*
X81986Y-40909D02*
X81986Y-40712D01*
X82098Y-40909D02*
X82014Y-40797D01*
X82098Y-40712D02*
X81986Y-40825D01*
X85467Y-28820D02*
X85457Y-28830D01*
X85429Y-28839D01*
X85410Y-28839D01*
X85382Y-28830D01*
X85363Y-28811D01*
X85354Y-28792D01*
X85345Y-28755D01*
X85345Y-28727D01*
X85354Y-28689D01*
X85363Y-28670D01*
X85382Y-28652D01*
X85410Y-28642D01*
X85429Y-28642D01*
X85457Y-28652D01*
X85467Y-28661D01*
X85636Y-28708D02*
X85636Y-28839D01*
X85589Y-28633D02*
X85542Y-28774D01*
X85664Y-28774D01*
X85977Y-28820D02*
X85986Y-28830D01*
X85977Y-28839D01*
X85967Y-28830D01*
X85977Y-28820D01*
X85977Y-28839D01*
X86174Y-28839D02*
X86061Y-28839D01*
X86117Y-28839D02*
X86117Y-28642D01*
X86099Y-28670D01*
X86080Y-28689D01*
X86061Y-28699D01*
X86342Y-28708D02*
X86342Y-28839D01*
X86258Y-28708D02*
X86258Y-28811D01*
X86267Y-28830D01*
X86286Y-28839D01*
X86314Y-28839D01*
X86333Y-28830D01*
X86342Y-28820D01*
X69160Y-43126D02*
X69170Y-43136D01*
X69179Y-43164D01*
X69179Y-43182D01*
X69170Y-43211D01*
X69151Y-43229D01*
X69132Y-43239D01*
X69095Y-43248D01*
X69067Y-43248D01*
X69029Y-43239D01*
X69010Y-43229D01*
X68992Y-43211D01*
X68982Y-43182D01*
X68982Y-43164D01*
X68992Y-43136D01*
X69001Y-43126D01*
X69179Y-42939D02*
X69179Y-43051D01*
X69179Y-42995D02*
X68982Y-42995D01*
X69010Y-43014D01*
X69029Y-43032D01*
X69039Y-43051D01*
X69001Y-42863D02*
X68992Y-42854D01*
X68982Y-42835D01*
X68982Y-42788D01*
X68992Y-42770D01*
X69001Y-42760D01*
X69020Y-42751D01*
X69039Y-42751D01*
X69067Y-42760D01*
X69179Y-42873D01*
X69179Y-42751D01*
X69119Y-42306D02*
X69119Y-42419D01*
X69119Y-42362D02*
X68922Y-42362D01*
X68950Y-42381D01*
X68969Y-42400D01*
X68979Y-42419D01*
X68922Y-42184D02*
X68922Y-42165D01*
X68932Y-42147D01*
X68941Y-42137D01*
X68960Y-42128D01*
X68997Y-42119D01*
X69044Y-42119D01*
X69082Y-42128D01*
X69100Y-42137D01*
X69110Y-42147D01*
X69119Y-42165D01*
X69119Y-42184D01*
X69110Y-42203D01*
X69100Y-42212D01*
X69082Y-42222D01*
X69044Y-42231D01*
X68997Y-42231D01*
X68960Y-42222D01*
X68941Y-42212D01*
X68932Y-42203D01*
X68922Y-42184D01*
X68988Y-41950D02*
X69119Y-41950D01*
X68988Y-42034D02*
X69091Y-42034D01*
X69110Y-42025D01*
X69119Y-42006D01*
X69119Y-41978D01*
X69110Y-41959D01*
X69100Y-41950D01*
X66840Y-42966D02*
X66850Y-42976D01*
X66859Y-43004D01*
X66859Y-43022D01*
X66850Y-43051D01*
X66831Y-43069D01*
X66812Y-43079D01*
X66775Y-43088D01*
X66747Y-43088D01*
X66709Y-43079D01*
X66690Y-43069D01*
X66672Y-43051D01*
X66662Y-43022D01*
X66662Y-43004D01*
X66672Y-42976D01*
X66681Y-42966D01*
X66859Y-42779D02*
X66859Y-42891D01*
X66859Y-42835D02*
X66662Y-42835D01*
X66690Y-42854D01*
X66709Y-42872D01*
X66719Y-42891D01*
X66662Y-42713D02*
X66662Y-42591D01*
X66737Y-42657D01*
X66737Y-42628D01*
X66747Y-42610D01*
X66756Y-42600D01*
X66775Y-42591D01*
X66822Y-42591D01*
X66840Y-42600D01*
X66850Y-42610D01*
X66859Y-42628D01*
X66859Y-42685D01*
X66850Y-42703D01*
X66840Y-42713D01*
X66800Y-42182D02*
X66810Y-42173D01*
X66819Y-42182D01*
X66810Y-42192D01*
X66800Y-42182D01*
X66819Y-42182D01*
X66819Y-41985D02*
X66819Y-42098D01*
X66819Y-42042D02*
X66622Y-42042D01*
X66650Y-42060D01*
X66669Y-42079D01*
X66679Y-42098D01*
X66688Y-41817D02*
X66819Y-41817D01*
X66688Y-41901D02*
X66791Y-41901D01*
X66810Y-41892D01*
X66819Y-41873D01*
X66819Y-41845D01*
X66810Y-41826D01*
X66800Y-41817D01*
X70900Y-43366D02*
X70910Y-43376D01*
X70919Y-43404D01*
X70919Y-43422D01*
X70910Y-43451D01*
X70891Y-43469D01*
X70872Y-43479D01*
X70835Y-43488D01*
X70807Y-43488D01*
X70769Y-43479D01*
X70750Y-43469D01*
X70732Y-43451D01*
X70722Y-43422D01*
X70722Y-43404D01*
X70732Y-43376D01*
X70741Y-43366D01*
X70919Y-43179D02*
X70919Y-43291D01*
X70919Y-43235D02*
X70722Y-43235D01*
X70750Y-43254D01*
X70769Y-43272D01*
X70779Y-43291D01*
X70919Y-42991D02*
X70919Y-43103D01*
X70919Y-43047D02*
X70722Y-43047D01*
X70750Y-43066D01*
X70769Y-43085D01*
X70779Y-43103D01*
X70899Y-42612D02*
X70899Y-42725D01*
X70899Y-42669D02*
X70702Y-42669D01*
X70730Y-42687D01*
X70749Y-42706D01*
X70759Y-42725D01*
X70768Y-42443D02*
X70899Y-42443D01*
X70768Y-42528D02*
X70871Y-42528D01*
X70890Y-42519D01*
X70899Y-42500D01*
X70899Y-42472D01*
X70890Y-42453D01*
X70880Y-42443D01*
X65659Y-43032D02*
X65565Y-43098D01*
X65659Y-43145D02*
X65462Y-43145D01*
X65462Y-43070D01*
X65472Y-43051D01*
X65481Y-43042D01*
X65500Y-43032D01*
X65528Y-43032D01*
X65547Y-43042D01*
X65556Y-43051D01*
X65565Y-43070D01*
X65565Y-43145D01*
X65462Y-42854D02*
X65462Y-42948D01*
X65556Y-42957D01*
X65547Y-42948D01*
X65537Y-42929D01*
X65537Y-42882D01*
X65547Y-42863D01*
X65556Y-42854D01*
X65575Y-42845D01*
X65622Y-42845D01*
X65640Y-42854D01*
X65650Y-42863D01*
X65659Y-42882D01*
X65659Y-42929D01*
X65650Y-42948D01*
X65640Y-42957D01*
X65699Y-42482D02*
X65699Y-42594D01*
X65699Y-42538D02*
X65502Y-42538D01*
X65530Y-42557D01*
X65549Y-42576D01*
X65559Y-42594D01*
X65699Y-42397D02*
X65502Y-42397D01*
X65699Y-42285D02*
X65587Y-42369D01*
X65502Y-42285D02*
X65615Y-42397D01*
X87359Y-31292D02*
X87265Y-31358D01*
X87359Y-31405D02*
X87162Y-31405D01*
X87162Y-31330D01*
X87172Y-31311D01*
X87181Y-31302D01*
X87200Y-31292D01*
X87228Y-31292D01*
X87247Y-31302D01*
X87256Y-31311D01*
X87265Y-31330D01*
X87265Y-31405D01*
X87247Y-31180D02*
X87237Y-31199D01*
X87228Y-31208D01*
X87209Y-31217D01*
X87200Y-31217D01*
X87181Y-31208D01*
X87172Y-31199D01*
X87162Y-31180D01*
X87162Y-31142D01*
X87172Y-31123D01*
X87181Y-31114D01*
X87200Y-31105D01*
X87209Y-31105D01*
X87228Y-31114D01*
X87237Y-31123D01*
X87247Y-31142D01*
X87247Y-31180D01*
X87256Y-31199D01*
X87265Y-31208D01*
X87284Y-31217D01*
X87322Y-31217D01*
X87340Y-31208D01*
X87350Y-31199D01*
X87359Y-31180D01*
X87359Y-31142D01*
X87350Y-31123D01*
X87340Y-31114D01*
X87322Y-31105D01*
X87284Y-31105D01*
X87265Y-31114D01*
X87256Y-31123D01*
X87247Y-31142D01*
X87339Y-30722D02*
X87339Y-30834D01*
X87339Y-30778D02*
X87142Y-30778D01*
X87170Y-30797D01*
X87189Y-30816D01*
X87199Y-30834D01*
X87339Y-30637D02*
X87142Y-30637D01*
X87339Y-30525D02*
X87227Y-30609D01*
X87142Y-30525D02*
X87255Y-30637D01*
X85139Y-31132D02*
X85045Y-31198D01*
X85139Y-31245D02*
X84942Y-31245D01*
X84942Y-31170D01*
X84952Y-31151D01*
X84961Y-31142D01*
X84980Y-31132D01*
X85008Y-31132D01*
X85027Y-31142D01*
X85036Y-31151D01*
X85045Y-31170D01*
X85045Y-31245D01*
X85139Y-31039D02*
X85139Y-31001D01*
X85130Y-30982D01*
X85120Y-30973D01*
X85092Y-30954D01*
X85055Y-30945D01*
X84980Y-30945D01*
X84961Y-30954D01*
X84952Y-30963D01*
X84942Y-30982D01*
X84942Y-31020D01*
X84952Y-31039D01*
X84961Y-31048D01*
X84980Y-31057D01*
X85027Y-31057D01*
X85045Y-31048D01*
X85055Y-31039D01*
X85064Y-31020D01*
X85064Y-30982D01*
X85055Y-30963D01*
X85045Y-30954D01*
X85027Y-30945D01*
X85139Y-30422D02*
X85139Y-30534D01*
X85139Y-30478D02*
X84942Y-30478D01*
X84970Y-30497D01*
X84989Y-30516D01*
X84999Y-30534D01*
X85139Y-30337D02*
X84942Y-30337D01*
X85139Y-30225D02*
X85027Y-30309D01*
X84942Y-30225D02*
X85055Y-30337D01*
X78503Y-36129D02*
X78437Y-36035D01*
X78390Y-36129D02*
X78390Y-35932D01*
X78465Y-35932D01*
X78484Y-35942D01*
X78493Y-35951D01*
X78503Y-35970D01*
X78503Y-35998D01*
X78493Y-36017D01*
X78484Y-36026D01*
X78465Y-36035D01*
X78390Y-36035D01*
X78690Y-36129D02*
X78578Y-36129D01*
X78634Y-36129D02*
X78634Y-35932D01*
X78615Y-35960D01*
X78597Y-35979D01*
X78578Y-35989D01*
X78859Y-35932D02*
X78822Y-35932D01*
X78803Y-35942D01*
X78794Y-35951D01*
X78775Y-35979D01*
X78766Y-36017D01*
X78766Y-36092D01*
X78775Y-36110D01*
X78784Y-36120D01*
X78803Y-36129D01*
X78841Y-36129D01*
X78859Y-36120D01*
X78869Y-36110D01*
X78878Y-36092D01*
X78878Y-36045D01*
X78869Y-36026D01*
X78859Y-36017D01*
X78841Y-36007D01*
X78803Y-36007D01*
X78784Y-36017D01*
X78775Y-36026D01*
X78766Y-36045D01*
X77673Y-36129D02*
X77561Y-36129D01*
X77617Y-36129D02*
X77617Y-35932D01*
X77598Y-35960D01*
X77580Y-35979D01*
X77561Y-35989D01*
X77795Y-35932D02*
X77814Y-35932D01*
X77833Y-35942D01*
X77842Y-35951D01*
X77852Y-35970D01*
X77861Y-36007D01*
X77861Y-36054D01*
X77852Y-36092D01*
X77842Y-36110D01*
X77833Y-36120D01*
X77814Y-36129D01*
X77795Y-36129D01*
X77777Y-36120D01*
X77767Y-36110D01*
X77758Y-36092D01*
X77749Y-36054D01*
X77749Y-36007D01*
X77758Y-35970D01*
X77767Y-35951D01*
X77777Y-35942D01*
X77795Y-35932D01*
X77946Y-36129D02*
X77946Y-35932D01*
X78058Y-36129D02*
X77974Y-36017D01*
X78058Y-35932D02*
X77946Y-36045D01*
X68613Y-27919D02*
X68547Y-27825D01*
X68500Y-27919D02*
X68500Y-27722D01*
X68575Y-27722D01*
X68594Y-27732D01*
X68603Y-27741D01*
X68613Y-27760D01*
X68613Y-27788D01*
X68603Y-27807D01*
X68594Y-27816D01*
X68575Y-27825D01*
X68500Y-27825D01*
X68800Y-27919D02*
X68688Y-27919D01*
X68744Y-27919D02*
X68744Y-27722D01*
X68725Y-27750D01*
X68707Y-27769D01*
X68688Y-27779D01*
X68922Y-27722D02*
X68941Y-27722D01*
X68960Y-27732D01*
X68969Y-27741D01*
X68979Y-27760D01*
X68988Y-27797D01*
X68988Y-27844D01*
X68979Y-27882D01*
X68969Y-27900D01*
X68960Y-27910D01*
X68941Y-27919D01*
X68922Y-27919D01*
X68904Y-27910D01*
X68894Y-27900D01*
X68885Y-27882D01*
X68876Y-27844D01*
X68876Y-27797D01*
X68885Y-27760D01*
X68894Y-27741D01*
X68904Y-27732D01*
X68922Y-27722D01*
X67604Y-27741D02*
X67613Y-27732D01*
X67632Y-27722D01*
X67679Y-27722D01*
X67698Y-27732D01*
X67707Y-27741D01*
X67717Y-27760D01*
X67717Y-27779D01*
X67707Y-27807D01*
X67595Y-27919D01*
X67717Y-27919D01*
X67801Y-27900D02*
X67810Y-27910D01*
X67801Y-27919D01*
X67792Y-27910D01*
X67801Y-27900D01*
X67801Y-27919D01*
X67885Y-27741D02*
X67895Y-27732D01*
X67914Y-27722D01*
X67960Y-27722D01*
X67979Y-27732D01*
X67989Y-27741D01*
X67998Y-27760D01*
X67998Y-27779D01*
X67989Y-27807D01*
X67876Y-27919D01*
X67998Y-27919D01*
X68082Y-27919D02*
X68082Y-27722D01*
X68195Y-27919D02*
X68111Y-27807D01*
X68195Y-27722D02*
X68082Y-27835D01*
X70879Y-27446D02*
X70785Y-27512D01*
X70879Y-27559D02*
X70682Y-27559D01*
X70682Y-27484D01*
X70692Y-27465D01*
X70701Y-27456D01*
X70720Y-27446D01*
X70748Y-27446D01*
X70767Y-27456D01*
X70776Y-27465D01*
X70785Y-27484D01*
X70785Y-27559D01*
X70879Y-27259D02*
X70879Y-27371D01*
X70879Y-27315D02*
X70682Y-27315D01*
X70710Y-27334D01*
X70729Y-27352D01*
X70739Y-27371D01*
X70879Y-27071D02*
X70879Y-27183D01*
X70879Y-27127D02*
X70682Y-27127D01*
X70710Y-27146D01*
X70729Y-27165D01*
X70739Y-27183D01*
X70721Y-28435D02*
X70712Y-28426D01*
X70702Y-28407D01*
X70702Y-28360D01*
X70712Y-28341D01*
X70721Y-28332D01*
X70740Y-28322D01*
X70759Y-28322D01*
X70787Y-28332D01*
X70899Y-28444D01*
X70899Y-28322D01*
X70880Y-28238D02*
X70890Y-28229D01*
X70899Y-28238D01*
X70890Y-28247D01*
X70880Y-28238D01*
X70899Y-28238D01*
X70721Y-28154D02*
X70712Y-28144D01*
X70702Y-28125D01*
X70702Y-28079D01*
X70712Y-28060D01*
X70721Y-28050D01*
X70740Y-28041D01*
X70759Y-28041D01*
X70787Y-28050D01*
X70899Y-28163D01*
X70899Y-28041D01*
X70899Y-27957D02*
X70702Y-27957D01*
X70899Y-27844D02*
X70787Y-27928D01*
X70702Y-27844D02*
X70815Y-27957D01*
X84809Y-43533D02*
X84715Y-43599D01*
X84809Y-43646D02*
X84612Y-43646D01*
X84612Y-43571D01*
X84622Y-43552D01*
X84631Y-43543D01*
X84650Y-43533D01*
X84678Y-43533D01*
X84697Y-43543D01*
X84706Y-43552D01*
X84715Y-43571D01*
X84715Y-43646D01*
X84612Y-43364D02*
X84612Y-43402D01*
X84622Y-43421D01*
X84631Y-43430D01*
X84659Y-43449D01*
X84697Y-43458D01*
X84772Y-43458D01*
X84790Y-43449D01*
X84800Y-43440D01*
X84809Y-43421D01*
X84809Y-43383D01*
X84800Y-43364D01*
X84790Y-43355D01*
X84772Y-43346D01*
X84725Y-43346D01*
X84706Y-43355D01*
X84697Y-43364D01*
X84687Y-43383D01*
X84687Y-43421D01*
X84697Y-43440D01*
X84706Y-43449D01*
X84725Y-43458D01*
X84789Y-42977D02*
X84789Y-43089D01*
X84789Y-43033D02*
X84592Y-43033D01*
X84620Y-43052D01*
X84639Y-43070D01*
X84649Y-43089D01*
X84592Y-42855D02*
X84592Y-42836D01*
X84602Y-42817D01*
X84611Y-42808D01*
X84630Y-42798D01*
X84667Y-42789D01*
X84714Y-42789D01*
X84752Y-42798D01*
X84770Y-42808D01*
X84780Y-42817D01*
X84789Y-42836D01*
X84789Y-42855D01*
X84780Y-42873D01*
X84770Y-42883D01*
X84752Y-42892D01*
X84714Y-42901D01*
X84667Y-42901D01*
X84630Y-42892D01*
X84611Y-42883D01*
X84602Y-42873D01*
X84592Y-42855D01*
X84789Y-42704D02*
X84592Y-42704D01*
X84789Y-42592D02*
X84677Y-42676D01*
X84592Y-42592D02*
X84705Y-42704D01*
X85249Y-42777D02*
X85155Y-42843D01*
X85249Y-42890D02*
X85052Y-42890D01*
X85052Y-42815D01*
X85062Y-42796D01*
X85071Y-42787D01*
X85090Y-42777D01*
X85118Y-42777D01*
X85137Y-42787D01*
X85146Y-42796D01*
X85155Y-42815D01*
X85155Y-42890D01*
X85052Y-42712D02*
X85052Y-42580D01*
X85249Y-42665D01*
X85229Y-42281D02*
X85229Y-42393D01*
X85229Y-42337D02*
X85032Y-42337D01*
X85060Y-42356D01*
X85079Y-42374D01*
X85089Y-42393D01*
X85032Y-42159D02*
X85032Y-42140D01*
X85042Y-42121D01*
X85051Y-42112D01*
X85070Y-42102D01*
X85107Y-42093D01*
X85154Y-42093D01*
X85192Y-42102D01*
X85210Y-42112D01*
X85220Y-42121D01*
X85229Y-42140D01*
X85229Y-42159D01*
X85220Y-42177D01*
X85210Y-42187D01*
X85192Y-42196D01*
X85154Y-42205D01*
X85107Y-42205D01*
X85070Y-42196D01*
X85051Y-42187D01*
X85042Y-42177D01*
X85032Y-42159D01*
X85229Y-42008D02*
X85032Y-42008D01*
X85229Y-41896D02*
X85117Y-41980D01*
X85032Y-41896D02*
X85145Y-42008D01*
X82889Y-42530D02*
X82879Y-42540D01*
X82851Y-42549D01*
X82832Y-42549D01*
X82804Y-42540D01*
X82785Y-42521D01*
X82776Y-42502D01*
X82767Y-42465D01*
X82767Y-42437D01*
X82776Y-42399D01*
X82785Y-42380D01*
X82804Y-42362D01*
X82832Y-42352D01*
X82851Y-42352D01*
X82879Y-42362D01*
X82889Y-42371D01*
X83076Y-42549D02*
X82964Y-42549D01*
X83020Y-42549D02*
X83020Y-42352D01*
X83001Y-42380D01*
X82982Y-42399D01*
X82964Y-42409D01*
X82119Y-42530D02*
X82128Y-42540D01*
X82119Y-42549D01*
X82109Y-42540D01*
X82119Y-42530D01*
X82119Y-42549D01*
X82316Y-42549D02*
X82203Y-42549D01*
X82259Y-42549D02*
X82259Y-42352D01*
X82241Y-42380D01*
X82222Y-42399D01*
X82203Y-42409D01*
X82484Y-42418D02*
X82484Y-42549D01*
X82400Y-42418D02*
X82400Y-42521D01*
X82409Y-42540D01*
X82428Y-42549D01*
X82456Y-42549D01*
X82475Y-42540D01*
X82484Y-42530D01*
X78933Y-36979D02*
X78867Y-36885D01*
X78820Y-36979D02*
X78820Y-36782D01*
X78895Y-36782D01*
X78914Y-36792D01*
X78923Y-36801D01*
X78933Y-36820D01*
X78933Y-36848D01*
X78923Y-36867D01*
X78914Y-36876D01*
X78895Y-36885D01*
X78820Y-36885D01*
X79120Y-36979D02*
X79008Y-36979D01*
X79064Y-36979D02*
X79064Y-36782D01*
X79045Y-36810D01*
X79027Y-36829D01*
X79008Y-36839D01*
X79214Y-36979D02*
X79252Y-36979D01*
X79271Y-36970D01*
X79280Y-36960D01*
X79299Y-36932D01*
X79308Y-36895D01*
X79308Y-36820D01*
X79299Y-36801D01*
X79289Y-36792D01*
X79271Y-36782D01*
X79233Y-36782D01*
X79214Y-36792D01*
X79205Y-36801D01*
X79196Y-36820D01*
X79196Y-36867D01*
X79205Y-36885D01*
X79214Y-36895D01*
X79233Y-36904D01*
X79271Y-36904D01*
X79289Y-36895D01*
X79299Y-36885D01*
X79308Y-36867D01*
X78297Y-36999D02*
X78185Y-36999D01*
X78241Y-36999D02*
X78241Y-36802D01*
X78222Y-36830D01*
X78203Y-36849D01*
X78185Y-36859D01*
X78382Y-36999D02*
X78382Y-36802D01*
X78494Y-36999D02*
X78410Y-36887D01*
X78494Y-36802D02*
X78382Y-36915D01*
X77543Y-38809D02*
X77477Y-38715D01*
X77430Y-38809D02*
X77430Y-38612D01*
X77505Y-38612D01*
X77524Y-38622D01*
X77533Y-38631D01*
X77543Y-38650D01*
X77543Y-38678D01*
X77533Y-38697D01*
X77524Y-38706D01*
X77505Y-38715D01*
X77430Y-38715D01*
X77730Y-38809D02*
X77618Y-38809D01*
X77674Y-38809D02*
X77674Y-38612D01*
X77655Y-38640D01*
X77637Y-38659D01*
X77618Y-38669D01*
X77899Y-38678D02*
X77899Y-38809D01*
X77852Y-38603D02*
X77806Y-38744D01*
X77927Y-38744D01*
X77667Y-38349D02*
X77555Y-38349D01*
X77611Y-38349D02*
X77611Y-38152D01*
X77592Y-38180D01*
X77573Y-38199D01*
X77555Y-38209D01*
X77752Y-38349D02*
X77752Y-38152D01*
X77864Y-38349D02*
X77780Y-38237D01*
X77864Y-38152D02*
X77752Y-38265D01*
X77687Y-36889D02*
X77677Y-36899D01*
X77649Y-36908D01*
X77630Y-36908D01*
X77602Y-36899D01*
X77583Y-36880D01*
X77574Y-36861D01*
X77565Y-36824D01*
X77565Y-36796D01*
X77574Y-36758D01*
X77583Y-36739D01*
X77602Y-36721D01*
X77630Y-36711D01*
X77649Y-36711D01*
X77677Y-36721D01*
X77687Y-36730D01*
X77752Y-36711D02*
X77884Y-36711D01*
X77799Y-36908D01*
X77459Y-36488D02*
X77346Y-36488D01*
X77403Y-36488D02*
X77403Y-36291D01*
X77384Y-36319D01*
X77365Y-36338D01*
X77346Y-36348D01*
X77581Y-36291D02*
X77600Y-36291D01*
X77619Y-36301D01*
X77628Y-36310D01*
X77637Y-36329D01*
X77647Y-36366D01*
X77647Y-36413D01*
X77637Y-36451D01*
X77628Y-36469D01*
X77619Y-36479D01*
X77600Y-36488D01*
X77581Y-36488D01*
X77562Y-36479D01*
X77553Y-36469D01*
X77543Y-36451D01*
X77534Y-36413D01*
X77534Y-36366D01*
X77543Y-36329D01*
X77553Y-36310D01*
X77562Y-36301D01*
X77581Y-36291D01*
X77769Y-36291D02*
X77787Y-36291D01*
X77806Y-36301D01*
X77816Y-36310D01*
X77825Y-36329D01*
X77834Y-36366D01*
X77834Y-36413D01*
X77825Y-36451D01*
X77816Y-36469D01*
X77806Y-36479D01*
X77787Y-36488D01*
X77769Y-36488D01*
X77750Y-36479D01*
X77740Y-36469D01*
X77731Y-36451D01*
X77722Y-36413D01*
X77722Y-36366D01*
X77731Y-36329D01*
X77740Y-36310D01*
X77750Y-36301D01*
X77769Y-36291D01*
X77919Y-36357D02*
X77919Y-36488D01*
X77919Y-36376D02*
X77928Y-36366D01*
X77947Y-36357D01*
X77975Y-36357D01*
X77994Y-36366D01*
X78003Y-36385D01*
X78003Y-36488D01*
X80977Y-33410D02*
X80967Y-33420D01*
X80939Y-33429D01*
X80920Y-33429D01*
X80892Y-33420D01*
X80873Y-33401D01*
X80864Y-33382D01*
X80855Y-33345D01*
X80855Y-33317D01*
X80864Y-33279D01*
X80873Y-33260D01*
X80892Y-33242D01*
X80920Y-33232D01*
X80939Y-33232D01*
X80967Y-33242D01*
X80977Y-33251D01*
X81146Y-33232D02*
X81108Y-33232D01*
X81089Y-33242D01*
X81080Y-33251D01*
X81061Y-33279D01*
X81052Y-33317D01*
X81052Y-33392D01*
X81061Y-33410D01*
X81070Y-33420D01*
X81089Y-33429D01*
X81127Y-33429D01*
X81146Y-33420D01*
X81155Y-33410D01*
X81164Y-33392D01*
X81164Y-33345D01*
X81155Y-33326D01*
X81146Y-33317D01*
X81127Y-33307D01*
X81089Y-33307D01*
X81070Y-33317D01*
X81061Y-33326D01*
X81052Y-33345D01*
X80029Y-33469D02*
X79916Y-33469D01*
X79973Y-33469D02*
X79973Y-33272D01*
X79954Y-33300D01*
X79935Y-33319D01*
X79916Y-33329D01*
X80151Y-33272D02*
X80170Y-33272D01*
X80189Y-33282D01*
X80198Y-33291D01*
X80207Y-33310D01*
X80217Y-33347D01*
X80217Y-33394D01*
X80207Y-33432D01*
X80198Y-33450D01*
X80189Y-33460D01*
X80170Y-33469D01*
X80151Y-33469D01*
X80132Y-33460D01*
X80123Y-33450D01*
X80113Y-33432D01*
X80104Y-33394D01*
X80104Y-33347D01*
X80113Y-33310D01*
X80123Y-33291D01*
X80132Y-33282D01*
X80151Y-33272D01*
X80339Y-33272D02*
X80357Y-33272D01*
X80376Y-33282D01*
X80386Y-33291D01*
X80395Y-33310D01*
X80404Y-33347D01*
X80404Y-33394D01*
X80395Y-33432D01*
X80386Y-33450D01*
X80376Y-33460D01*
X80357Y-33469D01*
X80339Y-33469D01*
X80320Y-33460D01*
X80310Y-33450D01*
X80301Y-33432D01*
X80292Y-33394D01*
X80292Y-33347D01*
X80301Y-33310D01*
X80310Y-33291D01*
X80320Y-33282D01*
X80339Y-33272D01*
X80489Y-33338D02*
X80489Y-33469D01*
X80489Y-33357D02*
X80498Y-33347D01*
X80517Y-33338D01*
X80545Y-33338D01*
X80564Y-33347D01*
X80573Y-33366D01*
X80573Y-33469D01*
X72099Y-27532D02*
X72005Y-27598D01*
X72099Y-27645D02*
X71902Y-27645D01*
X71902Y-27570D01*
X71912Y-27551D01*
X71921Y-27542D01*
X71940Y-27532D01*
X71968Y-27532D01*
X71987Y-27542D01*
X71996Y-27551D01*
X72005Y-27570D01*
X72005Y-27645D01*
X72099Y-27345D02*
X72099Y-27457D01*
X72099Y-27401D02*
X71902Y-27401D01*
X71930Y-27420D01*
X71949Y-27439D01*
X71959Y-27457D01*
X71901Y-28575D02*
X71892Y-28566D01*
X71882Y-28547D01*
X71882Y-28500D01*
X71892Y-28481D01*
X71901Y-28472D01*
X71920Y-28462D01*
X71939Y-28462D01*
X71967Y-28472D01*
X72079Y-28584D01*
X72079Y-28462D01*
X72060Y-28378D02*
X72070Y-28369D01*
X72079Y-28378D01*
X72070Y-28387D01*
X72060Y-28378D01*
X72079Y-28378D01*
X71901Y-28294D02*
X71892Y-28284D01*
X71882Y-28265D01*
X71882Y-28219D01*
X71892Y-28200D01*
X71901Y-28190D01*
X71920Y-28181D01*
X71939Y-28181D01*
X71967Y-28190D01*
X72079Y-28303D01*
X72079Y-28181D01*
X72079Y-28097D02*
X71882Y-28097D01*
X72079Y-27984D02*
X71967Y-28068D01*
X71882Y-27984D02*
X71995Y-28097D01*
X88743Y-36389D02*
X88677Y-36295D01*
X88630Y-36389D02*
X88630Y-36192D01*
X88705Y-36192D01*
X88724Y-36202D01*
X88733Y-36211D01*
X88743Y-36230D01*
X88743Y-36258D01*
X88733Y-36277D01*
X88724Y-36286D01*
X88705Y-36295D01*
X88630Y-36295D01*
X88930Y-36389D02*
X88818Y-36389D01*
X88874Y-36389D02*
X88874Y-36192D01*
X88855Y-36220D01*
X88837Y-36239D01*
X88818Y-36249D01*
X89109Y-36192D02*
X89015Y-36192D01*
X89006Y-36286D01*
X89015Y-36277D01*
X89034Y-36267D01*
X89081Y-36267D01*
X89099Y-36277D01*
X89109Y-36286D01*
X89118Y-36305D01*
X89118Y-36352D01*
X89109Y-36370D01*
X89099Y-36380D01*
X89081Y-36389D01*
X89034Y-36389D01*
X89015Y-36380D01*
X89006Y-36370D01*
X89464Y-36369D02*
X89351Y-36369D01*
X89408Y-36369D02*
X89408Y-36172D01*
X89389Y-36200D01*
X89370Y-36219D01*
X89351Y-36229D01*
X89548Y-36369D02*
X89548Y-36172D01*
X89661Y-36369D02*
X89576Y-36257D01*
X89661Y-36172D02*
X89548Y-36285D01*
X90046Y-36350D02*
X90055Y-36360D01*
X90046Y-36369D01*
X90036Y-36360D01*
X90046Y-36350D01*
X90046Y-36369D01*
X90233Y-36172D02*
X90139Y-36172D01*
X90130Y-36266D01*
X90139Y-36257D01*
X90158Y-36247D01*
X90205Y-36247D01*
X90224Y-36257D01*
X90233Y-36266D01*
X90243Y-36285D01*
X90243Y-36332D01*
X90233Y-36350D01*
X90224Y-36360D01*
X90205Y-36369D01*
X90158Y-36369D01*
X90139Y-36360D01*
X90130Y-36350D01*
X90318Y-36369D02*
X90468Y-36172D01*
X90346Y-36172D02*
X90364Y-36182D01*
X90374Y-36200D01*
X90364Y-36219D01*
X90346Y-36229D01*
X90327Y-36219D01*
X90318Y-36200D01*
X90327Y-36182D01*
X90346Y-36172D01*
X90458Y-36360D02*
X90468Y-36341D01*
X90458Y-36322D01*
X90440Y-36313D01*
X90421Y-36322D01*
X90411Y-36341D01*
X90421Y-36360D01*
X90440Y-36369D01*
X90458Y-36360D01*
X79827Y-31137D02*
X79837Y-31147D01*
X79846Y-31175D01*
X79846Y-31194D01*
X79837Y-31222D01*
X79818Y-31241D01*
X79799Y-31250D01*
X79762Y-31259D01*
X79734Y-31259D01*
X79696Y-31250D01*
X79677Y-31241D01*
X79659Y-31222D01*
X79649Y-31194D01*
X79649Y-31175D01*
X79659Y-31147D01*
X79668Y-31137D01*
X79649Y-30959D02*
X79649Y-31053D01*
X79743Y-31062D01*
X79734Y-31053D01*
X79724Y-31034D01*
X79724Y-30987D01*
X79734Y-30968D01*
X79743Y-30959D01*
X79762Y-30950D01*
X79809Y-30950D01*
X79827Y-30959D01*
X79837Y-30968D01*
X79846Y-30987D01*
X79846Y-31034D01*
X79837Y-31053D01*
X79827Y-31062D01*
X79846Y-30725D02*
X79846Y-30838D01*
X79846Y-30781D02*
X79649Y-30781D01*
X79677Y-30800D01*
X79696Y-30819D01*
X79706Y-30838D01*
X79649Y-30603D02*
X79649Y-30584D01*
X79659Y-30565D01*
X79668Y-30556D01*
X79687Y-30547D01*
X79724Y-30537D01*
X79771Y-30537D01*
X79809Y-30547D01*
X79827Y-30556D01*
X79837Y-30565D01*
X79846Y-30584D01*
X79846Y-30603D01*
X79837Y-30622D01*
X79827Y-30631D01*
X79809Y-30641D01*
X79771Y-30650D01*
X79724Y-30650D01*
X79687Y-30641D01*
X79668Y-30631D01*
X79659Y-30622D01*
X79649Y-30603D01*
X79649Y-30415D02*
X79649Y-30397D01*
X79659Y-30378D01*
X79668Y-30368D01*
X79687Y-30359D01*
X79724Y-30350D01*
X79771Y-30350D01*
X79809Y-30359D01*
X79827Y-30368D01*
X79837Y-30378D01*
X79846Y-30397D01*
X79846Y-30415D01*
X79837Y-30434D01*
X79827Y-30444D01*
X79809Y-30453D01*
X79771Y-30462D01*
X79724Y-30462D01*
X79687Y-30453D01*
X79668Y-30444D01*
X79659Y-30434D01*
X79649Y-30415D01*
X79715Y-30265D02*
X79846Y-30265D01*
X79734Y-30265D02*
X79724Y-30256D01*
X79715Y-30237D01*
X79715Y-30209D01*
X79724Y-30190D01*
X79743Y-30181D01*
X79846Y-30181D01*
G54D12*
X82772Y-40266D02*
X82772Y-40426D01*
X82779Y-40444D01*
X82787Y-40454D01*
X82802Y-40463D01*
X82832Y-40463D01*
X82847Y-40454D01*
X82854Y-40444D01*
X82862Y-40426D01*
X82862Y-40266D01*
X83004Y-40332D02*
X83004Y-40463D01*
X82966Y-40257D02*
X82929Y-40398D01*
X83026Y-40398D01*
X82795Y-42018D02*
X82795Y-41924D01*
X82851Y-42037D02*
X82654Y-41971D01*
X82851Y-41905D01*
X82851Y-41840D02*
X82654Y-41840D01*
X82654Y-41793D01*
X82664Y-41765D01*
X82682Y-41746D01*
X82701Y-41737D01*
X82739Y-41727D01*
X82767Y-41727D01*
X82804Y-41737D01*
X82823Y-41746D01*
X82842Y-41765D01*
X82851Y-41793D01*
X82851Y-41840D01*
X82842Y-41652D02*
X82851Y-41624D01*
X82851Y-41577D01*
X82842Y-41558D01*
X82832Y-41549D01*
X82814Y-41540D01*
X82795Y-41540D01*
X82776Y-41549D01*
X82767Y-41558D01*
X82757Y-41577D01*
X82748Y-41615D01*
X82739Y-41633D01*
X82729Y-41643D01*
X82711Y-41652D01*
X82692Y-41652D01*
X82673Y-41643D01*
X82664Y-41633D01*
X82654Y-41615D01*
X82654Y-41568D01*
X82664Y-41540D01*
X82851Y-41352D02*
X82851Y-41464D01*
X82851Y-41408D02*
X82654Y-41408D01*
X82682Y-41427D01*
X82701Y-41446D01*
X82711Y-41464D01*
X82654Y-41230D02*
X82654Y-41211D01*
X82664Y-41192D01*
X82673Y-41183D01*
X82692Y-41174D01*
X82729Y-41164D01*
X82776Y-41164D01*
X82814Y-41174D01*
X82832Y-41183D01*
X82842Y-41192D01*
X82851Y-41211D01*
X82851Y-41230D01*
X82842Y-41249D01*
X82832Y-41258D01*
X82814Y-41267D01*
X82776Y-41277D01*
X82729Y-41277D01*
X82692Y-41267D01*
X82673Y-41258D01*
X82664Y-41249D01*
X82654Y-41230D01*
X82851Y-40977D02*
X82851Y-41089D01*
X82851Y-41033D02*
X82654Y-41033D01*
X82682Y-41052D01*
X82701Y-41070D01*
X82711Y-41089D01*
X82654Y-40798D02*
X82654Y-40892D01*
X82748Y-40902D01*
X82739Y-40892D01*
X82729Y-40873D01*
X82729Y-40827D01*
X82739Y-40808D01*
X82748Y-40798D01*
X82767Y-40789D01*
X82814Y-40789D01*
X82832Y-40798D01*
X82842Y-40808D01*
X82851Y-40827D01*
X82851Y-40873D01*
X82842Y-40892D01*
X82832Y-40902D01*
G54D15*
X83086Y-39004D02*
X83086Y-39243D01*
X83100Y-39271D01*
X83114Y-39285D01*
X83142Y-39299D01*
X83198Y-39299D01*
X83226Y-39285D01*
X83240Y-39271D01*
X83254Y-39243D01*
X83254Y-39004D01*
X83549Y-39299D02*
X83381Y-39299D01*
X83465Y-39299D02*
X83465Y-39004D01*
X83437Y-39046D01*
X83409Y-39074D01*
X83381Y-39088D01*
X83795Y-39339D02*
X83795Y-39044D01*
X83894Y-39255D01*
X83992Y-39044D01*
X83992Y-39339D01*
X84301Y-39311D02*
X84287Y-39325D01*
X84245Y-39339D01*
X84217Y-39339D01*
X84175Y-39325D01*
X84146Y-39297D01*
X84132Y-39269D01*
X84118Y-39212D01*
X84118Y-39170D01*
X84132Y-39114D01*
X84146Y-39086D01*
X84175Y-39058D01*
X84217Y-39044D01*
X84245Y-39044D01*
X84287Y-39058D01*
X84301Y-39072D01*
X84427Y-39339D02*
X84427Y-39044D01*
X84540Y-39044D01*
X84568Y-39058D01*
X84582Y-39072D01*
X84596Y-39100D01*
X84596Y-39142D01*
X84582Y-39170D01*
X84568Y-39184D01*
X84540Y-39198D01*
X84427Y-39198D01*
X84849Y-39044D02*
X84793Y-39044D01*
X84765Y-39058D01*
X84751Y-39072D01*
X84722Y-39114D01*
X84708Y-39170D01*
X84708Y-39283D01*
X84722Y-39311D01*
X84736Y-39325D01*
X84765Y-39339D01*
X84821Y-39339D01*
X84849Y-39325D01*
X84863Y-39311D01*
X84877Y-39283D01*
X84877Y-39212D01*
X84863Y-39184D01*
X84849Y-39170D01*
X84821Y-39156D01*
X84765Y-39156D01*
X84736Y-39170D01*
X84722Y-39184D01*
X84708Y-39212D01*
X84989Y-39072D02*
X85003Y-39058D01*
X85031Y-39044D01*
X85102Y-39044D01*
X85130Y-39058D01*
X85144Y-39072D01*
X85158Y-39100D01*
X85158Y-39128D01*
X85144Y-39170D01*
X84975Y-39339D01*
X85158Y-39339D01*
X85411Y-39142D02*
X85411Y-39339D01*
X85341Y-39030D02*
X85270Y-39241D01*
X85453Y-39241D01*
X85692Y-39142D02*
X85692Y-39339D01*
X85621Y-39030D02*
X85551Y-39241D01*
X85734Y-39241D01*
G54D10*
X64099Y-40070D02*
X63705Y-40070D01*
X63705Y-39920D01*
X63724Y-39883D01*
X63743Y-39864D01*
X63780Y-39845D01*
X63836Y-39845D01*
X63874Y-39864D01*
X63893Y-39883D01*
X63911Y-39920D01*
X63911Y-40070D01*
X64099Y-39470D02*
X64099Y-39695D01*
X64099Y-39583D02*
X63705Y-39583D01*
X63761Y-39620D01*
X63799Y-39658D01*
X63818Y-39695D01*
X64001Y-38694D02*
X64020Y-38713D01*
X64039Y-38769D01*
X64039Y-38806D01*
X64020Y-38862D01*
X63983Y-38900D01*
X63945Y-38919D01*
X63870Y-38937D01*
X63814Y-38937D01*
X63739Y-38919D01*
X63701Y-38900D01*
X63664Y-38862D01*
X63645Y-38806D01*
X63645Y-38769D01*
X63664Y-38713D01*
X63683Y-38694D01*
X63645Y-38450D02*
X63645Y-38375D01*
X63664Y-38338D01*
X63701Y-38300D01*
X63776Y-38281D01*
X63908Y-38281D01*
X63983Y-38300D01*
X64020Y-38338D01*
X64039Y-38375D01*
X64039Y-38450D01*
X64020Y-38488D01*
X63983Y-38525D01*
X63908Y-38544D01*
X63776Y-38544D01*
X63701Y-38525D01*
X63664Y-38488D01*
X63645Y-38450D01*
X64039Y-38113D02*
X63645Y-38113D01*
X64039Y-37888D01*
X63645Y-37888D01*
X64039Y-37700D02*
X63645Y-37700D01*
X64039Y-37475D01*
X63645Y-37475D01*
X64076Y-37381D02*
X64076Y-37081D01*
X63645Y-36819D02*
X63645Y-36894D01*
X63664Y-36931D01*
X63683Y-36950D01*
X63739Y-36988D01*
X63814Y-37006D01*
X63964Y-37006D01*
X64001Y-36988D01*
X64020Y-36969D01*
X64039Y-36931D01*
X64039Y-36857D01*
X64020Y-36819D01*
X64001Y-36800D01*
X63964Y-36782D01*
X63870Y-36782D01*
X63833Y-36800D01*
X63814Y-36819D01*
X63795Y-36857D01*
X63795Y-36931D01*
X63814Y-36969D01*
X63833Y-36988D01*
X63870Y-37006D01*
X93519Y-36850D02*
X93125Y-36850D01*
X93125Y-36700D01*
X93144Y-36663D01*
X93163Y-36644D01*
X93200Y-36625D01*
X93256Y-36625D01*
X93294Y-36644D01*
X93313Y-36663D01*
X93331Y-36700D01*
X93331Y-36850D01*
X93163Y-36475D02*
X93144Y-36456D01*
X93125Y-36419D01*
X93125Y-36325D01*
X93144Y-36288D01*
X93163Y-36269D01*
X93200Y-36250D01*
X93238Y-36250D01*
X93294Y-36269D01*
X93519Y-36494D01*
X93519Y-36250D01*
X93401Y-35674D02*
X93420Y-35693D01*
X93439Y-35749D01*
X93439Y-35786D01*
X93420Y-35842D01*
X93383Y-35880D01*
X93345Y-35899D01*
X93270Y-35917D01*
X93214Y-35917D01*
X93139Y-35899D01*
X93101Y-35880D01*
X93064Y-35842D01*
X93045Y-35786D01*
X93045Y-35749D01*
X93064Y-35693D01*
X93083Y-35674D01*
X93045Y-35430D02*
X93045Y-35355D01*
X93064Y-35318D01*
X93101Y-35280D01*
X93176Y-35261D01*
X93308Y-35261D01*
X93383Y-35280D01*
X93420Y-35318D01*
X93439Y-35355D01*
X93439Y-35430D01*
X93420Y-35468D01*
X93383Y-35505D01*
X93308Y-35524D01*
X93176Y-35524D01*
X93101Y-35505D01*
X93064Y-35468D01*
X93045Y-35430D01*
X93439Y-35093D02*
X93045Y-35093D01*
X93439Y-34868D01*
X93045Y-34868D01*
X93439Y-34680D02*
X93045Y-34680D01*
X93439Y-34455D01*
X93045Y-34455D01*
X93476Y-34361D02*
X93476Y-34061D01*
X93083Y-33986D02*
X93064Y-33968D01*
X93045Y-33930D01*
X93045Y-33837D01*
X93064Y-33799D01*
X93083Y-33780D01*
X93120Y-33762D01*
X93158Y-33762D01*
X93214Y-33780D01*
X93439Y-34005D01*
X93439Y-33762D01*
G54D17*
X69141Y-35290D02*
X69103Y-35266D01*
X69065Y-35218D01*
X69008Y-35147D01*
X68970Y-35123D01*
X68932Y-35123D01*
X68951Y-35242D02*
X68913Y-35218D01*
X68875Y-35170D01*
X68856Y-35075D01*
X68856Y-34909D01*
X68875Y-34813D01*
X68913Y-34766D01*
X68951Y-34742D01*
X69027Y-34742D01*
X69065Y-34766D01*
X69103Y-34813D01*
X69122Y-34909D01*
X69122Y-35075D01*
X69103Y-35170D01*
X69065Y-35218D01*
X69027Y-35242D01*
X68951Y-35242D01*
X69503Y-35242D02*
X69275Y-35242D01*
X69389Y-35242D02*
X69389Y-34742D01*
X69351Y-34813D01*
X69313Y-34861D01*
X69275Y-34885D01*
X69361Y-34308D02*
X69361Y-34080D01*
X69761Y-34194D02*
X69361Y-34194D01*
X69761Y-33947D02*
X69361Y-33947D01*
X69761Y-33756D02*
X69361Y-33756D01*
X69361Y-33604D01*
X69380Y-33566D01*
X69400Y-33547D01*
X69438Y-33528D01*
X69495Y-33528D01*
X69533Y-33547D01*
X69552Y-33566D01*
X69571Y-33604D01*
X69571Y-33756D01*
X69761Y-33147D02*
X69761Y-33375D01*
X69761Y-33261D02*
X69361Y-33261D01*
X69419Y-33299D01*
X69457Y-33337D01*
X69476Y-33375D01*
X69400Y-32994D02*
X69380Y-32975D01*
X69361Y-32937D01*
X69361Y-32842D01*
X69380Y-32804D01*
X69400Y-32785D01*
X69438Y-32766D01*
X69476Y-32766D01*
X69533Y-32785D01*
X69761Y-33013D01*
X69761Y-32766D01*
X69400Y-32613D02*
X69380Y-32594D01*
X69361Y-32556D01*
X69361Y-32461D01*
X69380Y-32423D01*
X69400Y-32404D01*
X69438Y-32385D01*
X69476Y-32385D01*
X69533Y-32404D01*
X69761Y-32632D01*
X69761Y-32385D01*
X66361Y-31910D02*
X66323Y-31886D01*
X66285Y-31838D01*
X66228Y-31767D01*
X66190Y-31743D01*
X66152Y-31743D01*
X66171Y-31862D02*
X66133Y-31838D01*
X66095Y-31790D01*
X66076Y-31695D01*
X66076Y-31529D01*
X66095Y-31433D01*
X66133Y-31386D01*
X66171Y-31362D01*
X66247Y-31362D01*
X66285Y-31386D01*
X66323Y-31433D01*
X66342Y-31529D01*
X66342Y-31695D01*
X66323Y-31790D01*
X66285Y-31838D01*
X66247Y-31862D01*
X66171Y-31862D01*
X66495Y-31410D02*
X66514Y-31386D01*
X66552Y-31362D01*
X66647Y-31362D01*
X66685Y-31386D01*
X66704Y-31410D01*
X66723Y-31457D01*
X66723Y-31505D01*
X66704Y-31576D01*
X66476Y-31862D01*
X66723Y-31862D01*
X68563Y-30894D02*
X68563Y-30666D01*
X68963Y-30780D02*
X68563Y-30780D01*
X68963Y-30533D02*
X68563Y-30533D01*
X68963Y-30342D02*
X68563Y-30342D01*
X68563Y-30190D01*
X68582Y-30152D01*
X68602Y-30133D01*
X68640Y-30114D01*
X68697Y-30114D01*
X68735Y-30133D01*
X68754Y-30152D01*
X68773Y-30190D01*
X68773Y-30342D01*
X68963Y-29733D02*
X68963Y-29961D01*
X68963Y-29847D02*
X68563Y-29847D01*
X68621Y-29885D01*
X68659Y-29923D01*
X68678Y-29961D01*
X68602Y-29580D02*
X68582Y-29561D01*
X68563Y-29523D01*
X68563Y-29428D01*
X68582Y-29390D01*
X68602Y-29371D01*
X68640Y-29352D01*
X68678Y-29352D01*
X68735Y-29371D01*
X68963Y-29599D01*
X68963Y-29352D01*
X68602Y-29199D02*
X68582Y-29180D01*
X68563Y-29142D01*
X68563Y-29047D01*
X68582Y-29009D01*
X68602Y-28990D01*
X68640Y-28971D01*
X68678Y-28971D01*
X68735Y-28990D01*
X68963Y-29218D01*
X68963Y-28971D01*
X62821Y-32030D02*
X62783Y-32006D01*
X62745Y-31958D01*
X62688Y-31887D01*
X62650Y-31863D01*
X62612Y-31863D01*
X62631Y-31982D02*
X62593Y-31958D01*
X62555Y-31910D01*
X62536Y-31815D01*
X62536Y-31649D01*
X62555Y-31553D01*
X62593Y-31506D01*
X62631Y-31482D01*
X62707Y-31482D01*
X62745Y-31506D01*
X62783Y-31553D01*
X62802Y-31649D01*
X62802Y-31815D01*
X62783Y-31910D01*
X62745Y-31958D01*
X62707Y-31982D01*
X62631Y-31982D01*
X62936Y-31482D02*
X63183Y-31482D01*
X63050Y-31672D01*
X63107Y-31672D01*
X63145Y-31696D01*
X63164Y-31720D01*
X63183Y-31768D01*
X63183Y-31887D01*
X63164Y-31934D01*
X63145Y-31958D01*
X63107Y-31982D01*
X62993Y-31982D01*
X62955Y-31958D01*
X62936Y-31934D01*
X63219Y-28111D02*
X63447Y-28111D01*
X63333Y-28511D02*
X63333Y-28111D01*
X63580Y-28511D02*
X63580Y-28111D01*
X63771Y-28511D02*
X63771Y-28111D01*
X63923Y-28111D01*
X63961Y-28130D01*
X63980Y-28150D01*
X64000Y-28188D01*
X64000Y-28245D01*
X63980Y-28283D01*
X63961Y-28302D01*
X63923Y-28321D01*
X63771Y-28321D01*
X64380Y-28511D02*
X64152Y-28511D01*
X64266Y-28511D02*
X64266Y-28111D01*
X64228Y-28169D01*
X64190Y-28207D01*
X64152Y-28226D01*
X64533Y-28150D02*
X64552Y-28130D01*
X64590Y-28111D01*
X64685Y-28111D01*
X64723Y-28130D01*
X64742Y-28150D01*
X64761Y-28188D01*
X64761Y-28226D01*
X64742Y-28283D01*
X64514Y-28511D01*
X64761Y-28511D01*
X64914Y-28150D02*
X64933Y-28130D01*
X64971Y-28111D01*
X65066Y-28111D01*
X65104Y-28130D01*
X65123Y-28150D01*
X65142Y-28188D01*
X65142Y-28226D01*
X65123Y-28283D01*
X64895Y-28511D01*
X65142Y-28511D01*
G54D10*
X68915Y-27046D02*
X69103Y-27046D01*
X68878Y-27159D02*
X69009Y-26765D01*
X69140Y-27159D01*
X69497Y-27159D02*
X69365Y-26971D01*
X69272Y-27159D02*
X69272Y-26765D01*
X69422Y-26765D01*
X69459Y-26784D01*
X69478Y-26803D01*
X69497Y-26840D01*
X69497Y-26896D01*
X69478Y-26934D01*
X69459Y-26953D01*
X69422Y-26971D01*
X69272Y-26971D01*
X69665Y-27159D02*
X69665Y-26765D01*
X69759Y-26765D01*
X69815Y-26784D01*
X69853Y-26821D01*
X69871Y-26859D01*
X69890Y-26934D01*
X69890Y-26990D01*
X69871Y-27065D01*
X69853Y-27103D01*
X69815Y-27140D01*
X69759Y-27159D01*
X69665Y-27159D01*
X70059Y-26765D02*
X70059Y-27084D01*
X70078Y-27121D01*
X70096Y-27140D01*
X70134Y-27159D01*
X70209Y-27159D01*
X70246Y-27140D01*
X70265Y-27121D01*
X70284Y-27084D01*
X70284Y-26765D01*
X70471Y-27159D02*
X70471Y-26765D01*
X70659Y-27159D02*
X70659Y-26765D01*
X70884Y-27159D01*
X70884Y-26765D01*
X71146Y-26765D02*
X71221Y-26765D01*
X71259Y-26784D01*
X71296Y-26821D01*
X71315Y-26896D01*
X71315Y-27028D01*
X71296Y-27103D01*
X71259Y-27140D01*
X71221Y-27159D01*
X71146Y-27159D01*
X71109Y-27140D01*
X71071Y-27103D01*
X71053Y-27028D01*
X71053Y-26896D01*
X71071Y-26821D01*
X71109Y-26784D01*
X71146Y-26765D01*
X71484Y-27159D02*
X71484Y-26765D01*
X71634Y-26765D01*
X71671Y-26784D01*
X71690Y-26803D01*
X71709Y-26840D01*
X71709Y-26896D01*
X71690Y-26934D01*
X71671Y-26953D01*
X71634Y-26971D01*
X71484Y-26971D01*
X71877Y-27159D02*
X71877Y-26765D01*
X72065Y-27159D02*
X72065Y-26765D01*
X72290Y-27159D01*
X72290Y-26765D01*
X72459Y-27140D02*
X72515Y-27159D01*
X72609Y-27159D01*
X72646Y-27140D01*
X72665Y-27121D01*
X72684Y-27084D01*
X72684Y-27046D01*
X72665Y-27009D01*
X72646Y-26990D01*
X72609Y-26971D01*
X72534Y-26953D01*
X72496Y-26934D01*
X72477Y-26915D01*
X72459Y-26878D01*
X72459Y-26840D01*
X72477Y-26803D01*
X72496Y-26784D01*
X72534Y-26765D01*
X72627Y-26765D01*
X72684Y-26784D01*
X93319Y-30370D02*
X92925Y-30370D01*
X92925Y-30220D01*
X92944Y-30183D01*
X92963Y-30164D01*
X93000Y-30145D01*
X93056Y-30145D01*
X93094Y-30164D01*
X93113Y-30183D01*
X93131Y-30220D01*
X93131Y-30370D01*
X92925Y-30014D02*
X92925Y-29770D01*
X93075Y-29901D01*
X93075Y-29845D01*
X93094Y-29808D01*
X93113Y-29789D01*
X93150Y-29770D01*
X93244Y-29770D01*
X93281Y-29789D01*
X93300Y-29808D01*
X93319Y-29845D01*
X93319Y-29958D01*
X93300Y-29995D01*
X93281Y-30014D01*
X98031Y-27389D02*
X98050Y-27332D01*
X98069Y-27314D01*
X98106Y-27295D01*
X98163Y-27295D01*
X98200Y-27314D01*
X98219Y-27332D01*
X98238Y-27370D01*
X98238Y-27520D01*
X97844Y-27520D01*
X97844Y-27389D01*
X97863Y-27351D01*
X97881Y-27332D01*
X97919Y-27314D01*
X97956Y-27314D01*
X97994Y-27332D01*
X98013Y-27351D01*
X98031Y-27389D01*
X98031Y-27520D01*
X98238Y-27126D02*
X97844Y-27126D01*
X98238Y-26901D01*
X97844Y-26901D01*
X98200Y-26489D02*
X98219Y-26507D01*
X98238Y-26564D01*
X98238Y-26601D01*
X98219Y-26657D01*
X98181Y-26695D01*
X98144Y-26714D01*
X98069Y-26732D01*
X98013Y-26732D01*
X97938Y-26714D01*
X97900Y-26695D01*
X97863Y-26657D01*
X97844Y-26601D01*
X97844Y-26564D01*
X97863Y-26507D01*
X97881Y-26489D01*
X92919Y-40030D02*
X92525Y-40030D01*
X92525Y-39880D01*
X92544Y-39843D01*
X92563Y-39824D01*
X92600Y-39805D01*
X92656Y-39805D01*
X92694Y-39824D01*
X92713Y-39843D01*
X92731Y-39880D01*
X92731Y-40030D01*
X92656Y-39468D02*
X92919Y-39468D01*
X92506Y-39561D02*
X92788Y-39655D01*
X92788Y-39411D01*
X98031Y-37189D02*
X98050Y-37132D01*
X98069Y-37114D01*
X98106Y-37095D01*
X98163Y-37095D01*
X98200Y-37114D01*
X98219Y-37132D01*
X98238Y-37170D01*
X98238Y-37320D01*
X97844Y-37320D01*
X97844Y-37189D01*
X97863Y-37151D01*
X97881Y-37132D01*
X97919Y-37114D01*
X97956Y-37114D01*
X97994Y-37132D01*
X98013Y-37151D01*
X98031Y-37189D01*
X98031Y-37320D01*
X98238Y-36926D02*
X97844Y-36926D01*
X98238Y-36701D01*
X97844Y-36701D01*
X98200Y-36289D02*
X98219Y-36307D01*
X98238Y-36364D01*
X98238Y-36401D01*
X98219Y-36457D01*
X98181Y-36495D01*
X98144Y-36514D01*
X98069Y-36532D01*
X98013Y-36532D01*
X97938Y-36514D01*
X97900Y-36495D01*
X97863Y-36457D01*
X97844Y-36401D01*
X97844Y-36364D01*
X97863Y-36307D01*
X97881Y-36289D01*
G54D16*
X79267Y-30300D02*
X79257Y-30310D01*
X79229Y-30319D01*
X79210Y-30319D01*
X79182Y-30310D01*
X79163Y-30291D01*
X79154Y-30272D01*
X79145Y-30235D01*
X79145Y-30207D01*
X79154Y-30169D01*
X79163Y-30150D01*
X79182Y-30132D01*
X79210Y-30122D01*
X79229Y-30122D01*
X79257Y-30132D01*
X79267Y-30141D01*
X79360Y-30319D02*
X79398Y-30319D01*
X79417Y-30310D01*
X79426Y-30300D01*
X79445Y-30272D01*
X79454Y-30235D01*
X79454Y-30160D01*
X79445Y-30141D01*
X79436Y-30132D01*
X79417Y-30122D01*
X79379Y-30122D01*
X79360Y-30132D01*
X79351Y-30141D01*
X79342Y-30160D01*
X79342Y-30207D01*
X79351Y-30225D01*
X79360Y-30235D01*
X79379Y-30244D01*
X79417Y-30244D01*
X79436Y-30235D01*
X79445Y-30225D01*
X79454Y-30207D01*
X79757Y-30240D02*
X79766Y-30250D01*
X79757Y-30259D01*
X79747Y-30250D01*
X79757Y-30240D01*
X79757Y-30259D01*
X79954Y-30259D02*
X79841Y-30259D01*
X79897Y-30259D02*
X79897Y-30062D01*
X79879Y-30090D01*
X79860Y-30109D01*
X79841Y-30119D01*
X80122Y-30128D02*
X80122Y-30259D01*
X80038Y-30128D02*
X80038Y-30231D01*
X80047Y-30250D01*
X80066Y-30259D01*
X80094Y-30259D01*
X80113Y-30250D01*
X80122Y-30240D01*
G54D18*
X68963Y-38049D02*
X68963Y-38535D01*
X68992Y-38592D01*
X69021Y-38621D01*
X69078Y-38649D01*
X69192Y-38649D01*
X69249Y-38621D01*
X69278Y-38592D01*
X69306Y-38535D01*
X69306Y-38049D01*
X69535Y-38049D02*
X69906Y-38049D01*
X69706Y-38278D01*
X69792Y-38278D01*
X69849Y-38307D01*
X69878Y-38335D01*
X69906Y-38392D01*
X69906Y-38535D01*
X69878Y-38592D01*
X69849Y-38621D01*
X69792Y-38649D01*
X69621Y-38649D01*
X69563Y-38621D01*
X69535Y-38592D01*
G54D11*
X78008Y-34291D02*
X78008Y-33991D01*
X78080Y-33991D01*
X78122Y-34005D01*
X78151Y-34034D01*
X78165Y-34062D01*
X78180Y-34120D01*
X78180Y-34162D01*
X78165Y-34220D01*
X78151Y-34248D01*
X78122Y-34277D01*
X78080Y-34291D01*
X78008Y-34291D01*
X78437Y-34091D02*
X78437Y-34291D01*
X78365Y-33977D02*
X78294Y-34191D01*
X78480Y-34191D01*
X77938Y-32981D02*
X77938Y-32681D01*
X78010Y-32681D01*
X78052Y-32695D01*
X78081Y-32724D01*
X78095Y-32752D01*
X78110Y-32810D01*
X78110Y-32852D01*
X78095Y-32910D01*
X78081Y-32938D01*
X78052Y-32967D01*
X78010Y-32981D01*
X77938Y-32981D01*
X78281Y-32810D02*
X78252Y-32795D01*
X78238Y-32781D01*
X78224Y-32752D01*
X78224Y-32738D01*
X78238Y-32710D01*
X78252Y-32695D01*
X78281Y-32681D01*
X78338Y-32681D01*
X78367Y-32695D01*
X78381Y-32710D01*
X78395Y-32738D01*
X78395Y-32752D01*
X78381Y-32781D01*
X78367Y-32795D01*
X78338Y-32810D01*
X78281Y-32810D01*
X78252Y-32824D01*
X78238Y-32838D01*
X78224Y-32867D01*
X78224Y-32924D01*
X78238Y-32952D01*
X78252Y-32967D01*
X78281Y-32981D01*
X78338Y-32981D01*
X78367Y-32967D01*
X78381Y-32952D01*
X78395Y-32924D01*
X78395Y-32867D01*
X78381Y-32838D01*
X78367Y-32824D01*
X78338Y-32810D01*
X85096Y-33091D02*
X85096Y-32791D01*
X85168Y-32791D01*
X85210Y-32805D01*
X85239Y-32834D01*
X85253Y-32862D01*
X85268Y-32920D01*
X85268Y-32962D01*
X85253Y-33020D01*
X85239Y-33048D01*
X85210Y-33077D01*
X85168Y-33091D01*
X85096Y-33091D01*
X85368Y-32791D02*
X85568Y-32791D01*
X85439Y-33091D01*
X85324Y-34497D02*
X85324Y-34197D01*
X85396Y-34197D01*
X85438Y-34211D01*
X85467Y-34240D01*
X85481Y-34268D01*
X85496Y-34326D01*
X85496Y-34368D01*
X85481Y-34426D01*
X85467Y-34454D01*
X85438Y-34483D01*
X85396Y-34497D01*
X85324Y-34497D01*
X85753Y-34197D02*
X85696Y-34197D01*
X85667Y-34211D01*
X85653Y-34226D01*
X85624Y-34268D01*
X85610Y-34326D01*
X85610Y-34440D01*
X85624Y-34468D01*
X85638Y-34483D01*
X85667Y-34497D01*
X85724Y-34497D01*
X85753Y-34483D01*
X85767Y-34468D01*
X85781Y-34440D01*
X85781Y-34368D01*
X85767Y-34340D01*
X85753Y-34326D01*
X85724Y-34311D01*
X85667Y-34311D01*
X85638Y-34326D01*
X85624Y-34340D01*
X85610Y-34368D01*
X63238Y-42901D02*
X63238Y-42601D01*
X63310Y-42601D01*
X63352Y-42615D01*
X63381Y-42644D01*
X63395Y-42672D01*
X63410Y-42730D01*
X63410Y-42772D01*
X63395Y-42830D01*
X63381Y-42858D01*
X63352Y-42887D01*
X63310Y-42901D01*
X63238Y-42901D01*
X63510Y-42601D02*
X63695Y-42601D01*
X63595Y-42715D01*
X63638Y-42715D01*
X63667Y-42730D01*
X63681Y-42744D01*
X63695Y-42772D01*
X63695Y-42844D01*
X63681Y-42872D01*
X63667Y-42887D01*
X63638Y-42901D01*
X63552Y-42901D01*
X63524Y-42887D01*
X63510Y-42872D01*
X67621Y-36781D02*
X67321Y-36781D01*
X67321Y-36710D01*
X67335Y-36667D01*
X67364Y-36638D01*
X67392Y-36624D01*
X67450Y-36610D01*
X67492Y-36610D01*
X67550Y-36624D01*
X67578Y-36638D01*
X67607Y-36667D01*
X67621Y-36710D01*
X67621Y-36781D01*
X67621Y-36324D02*
X67621Y-36495D01*
X67621Y-36410D02*
X67321Y-36410D01*
X67364Y-36438D01*
X67392Y-36467D01*
X67407Y-36495D01*
X64661Y-36541D02*
X64361Y-36541D01*
X64361Y-36470D01*
X64375Y-36427D01*
X64404Y-36398D01*
X64432Y-36384D01*
X64490Y-36370D01*
X64532Y-36370D01*
X64590Y-36384D01*
X64618Y-36398D01*
X64647Y-36427D01*
X64661Y-36470D01*
X64661Y-36541D01*
X64361Y-36098D02*
X64361Y-36241D01*
X64504Y-36255D01*
X64490Y-36241D01*
X64475Y-36212D01*
X64475Y-36141D01*
X64490Y-36112D01*
X64504Y-36098D01*
X64532Y-36084D01*
X64604Y-36084D01*
X64632Y-36098D01*
X64647Y-36112D01*
X64661Y-36141D01*
X64661Y-36212D01*
X64647Y-36241D01*
X64632Y-36255D01*
X63041Y-33081D02*
X62741Y-33081D01*
X62741Y-33010D01*
X62755Y-32967D01*
X62784Y-32938D01*
X62812Y-32924D01*
X62870Y-32910D01*
X62912Y-32910D01*
X62970Y-32924D01*
X62998Y-32938D01*
X63027Y-32967D01*
X63041Y-33010D01*
X63041Y-33081D01*
X62770Y-32795D02*
X62755Y-32781D01*
X62741Y-32752D01*
X62741Y-32681D01*
X62755Y-32652D01*
X62770Y-32638D01*
X62798Y-32624D01*
X62827Y-32624D01*
X62870Y-32638D01*
X63041Y-32810D01*
X63041Y-32624D01*
G54D19*
X92513Y-27511D02*
X92570Y-27511D01*
X92542Y-27611D02*
X92542Y-27511D01*
X92604Y-27611D02*
X92604Y-27511D01*
X92642Y-27511D01*
X92651Y-27516D01*
X92656Y-27521D01*
X92661Y-27530D01*
X92661Y-27544D01*
X92656Y-27554D01*
X92651Y-27559D01*
X92642Y-27564D01*
X92604Y-27564D01*
X92756Y-27611D02*
X92699Y-27611D01*
X92728Y-27611D02*
X92728Y-27511D01*
X92718Y-27525D01*
X92709Y-27535D01*
X92699Y-27540D01*
X92428Y-26539D02*
X92423Y-26543D01*
X92409Y-26548D01*
X92399Y-26548D01*
X92385Y-26543D01*
X92375Y-26534D01*
X92370Y-26524D01*
X92366Y-26505D01*
X92366Y-26491D01*
X92370Y-26472D01*
X92375Y-26462D01*
X92385Y-26453D01*
X92399Y-26448D01*
X92409Y-26448D01*
X92423Y-26453D01*
X92428Y-26458D01*
X92490Y-26448D02*
X92509Y-26448D01*
X92518Y-26453D01*
X92528Y-26462D01*
X92532Y-26481D01*
X92532Y-26515D01*
X92528Y-26534D01*
X92518Y-26543D01*
X92509Y-26548D01*
X92490Y-26548D01*
X92480Y-26543D01*
X92470Y-26534D01*
X92466Y-26515D01*
X92466Y-26481D01*
X92470Y-26462D01*
X92480Y-26453D01*
X92490Y-26448D01*
X92575Y-26548D02*
X92575Y-26448D01*
X92632Y-26548D01*
X92632Y-26448D01*
X92680Y-26548D02*
X92680Y-26448D01*
X92737Y-26548D01*
X92737Y-26448D01*
X92761Y-26558D02*
X92837Y-26558D01*
X92913Y-26548D02*
X92856Y-26548D01*
X92885Y-26548D02*
X92885Y-26448D01*
X92875Y-26462D01*
X92866Y-26472D01*
X92856Y-26477D01*
X90813Y-34691D02*
X90870Y-34691D01*
X90842Y-34791D02*
X90842Y-34691D01*
X90904Y-34791D02*
X90904Y-34691D01*
X90942Y-34691D01*
X90951Y-34696D01*
X90956Y-34701D01*
X90961Y-34710D01*
X90961Y-34724D01*
X90956Y-34734D01*
X90951Y-34739D01*
X90942Y-34744D01*
X90904Y-34744D01*
X91047Y-34724D02*
X91047Y-34791D01*
X91023Y-34686D02*
X90999Y-34758D01*
X91061Y-34758D01*
X90728Y-33719D02*
X90723Y-33723D01*
X90709Y-33728D01*
X90699Y-33728D01*
X90685Y-33723D01*
X90675Y-33714D01*
X90670Y-33704D01*
X90666Y-33685D01*
X90666Y-33671D01*
X90670Y-33652D01*
X90675Y-33642D01*
X90685Y-33633D01*
X90699Y-33628D01*
X90709Y-33628D01*
X90723Y-33633D01*
X90728Y-33638D01*
X90790Y-33628D02*
X90809Y-33628D01*
X90818Y-33633D01*
X90828Y-33642D01*
X90832Y-33661D01*
X90832Y-33695D01*
X90828Y-33714D01*
X90818Y-33723D01*
X90809Y-33728D01*
X90790Y-33728D01*
X90780Y-33723D01*
X90770Y-33714D01*
X90766Y-33695D01*
X90766Y-33661D01*
X90770Y-33642D01*
X90780Y-33633D01*
X90790Y-33628D01*
X90875Y-33728D02*
X90875Y-33628D01*
X90932Y-33728D01*
X90932Y-33628D01*
X90980Y-33728D02*
X90980Y-33628D01*
X91037Y-33728D01*
X91037Y-33628D01*
X91061Y-33738D02*
X91137Y-33738D01*
X91213Y-33728D02*
X91156Y-33728D01*
X91185Y-33728D02*
X91185Y-33628D01*
X91175Y-33642D01*
X91166Y-33652D01*
X91156Y-33657D01*
X90913Y-37231D02*
X90970Y-37231D01*
X90942Y-37331D02*
X90942Y-37231D01*
X91004Y-37331D02*
X91004Y-37231D01*
X91042Y-37231D01*
X91051Y-37236D01*
X91056Y-37241D01*
X91061Y-37250D01*
X91061Y-37264D01*
X91056Y-37274D01*
X91051Y-37279D01*
X91042Y-37284D01*
X91004Y-37284D01*
X91099Y-37241D02*
X91104Y-37236D01*
X91113Y-37231D01*
X91137Y-37231D01*
X91147Y-37236D01*
X91151Y-37241D01*
X91156Y-37250D01*
X91156Y-37260D01*
X91151Y-37274D01*
X91094Y-37331D01*
X91156Y-37331D01*
X90828Y-36259D02*
X90823Y-36263D01*
X90809Y-36268D01*
X90799Y-36268D01*
X90785Y-36263D01*
X90775Y-36254D01*
X90770Y-36244D01*
X90766Y-36225D01*
X90766Y-36211D01*
X90770Y-36192D01*
X90775Y-36182D01*
X90785Y-36173D01*
X90799Y-36168D01*
X90809Y-36168D01*
X90823Y-36173D01*
X90828Y-36178D01*
X90890Y-36168D02*
X90909Y-36168D01*
X90918Y-36173D01*
X90928Y-36182D01*
X90932Y-36201D01*
X90932Y-36235D01*
X90928Y-36254D01*
X90918Y-36263D01*
X90909Y-36268D01*
X90890Y-36268D01*
X90880Y-36263D01*
X90870Y-36254D01*
X90866Y-36235D01*
X90866Y-36201D01*
X90870Y-36182D01*
X90880Y-36173D01*
X90890Y-36168D01*
X90975Y-36268D02*
X90975Y-36168D01*
X91032Y-36268D01*
X91032Y-36168D01*
X91080Y-36268D02*
X91080Y-36168D01*
X91137Y-36268D01*
X91137Y-36168D01*
X91161Y-36278D02*
X91237Y-36278D01*
X91313Y-36268D02*
X91256Y-36268D01*
X91285Y-36268D02*
X91285Y-36168D01*
X91275Y-36182D01*
X91266Y-36192D01*
X91256Y-36197D01*
X90953Y-43961D02*
X91010Y-43961D01*
X90982Y-44061D02*
X90982Y-43961D01*
X91044Y-44061D02*
X91044Y-43961D01*
X91082Y-43961D01*
X91091Y-43966D01*
X91096Y-43971D01*
X91101Y-43980D01*
X91101Y-43994D01*
X91096Y-44004D01*
X91091Y-44009D01*
X91082Y-44014D01*
X91044Y-44014D01*
X91134Y-43961D02*
X91196Y-43961D01*
X91163Y-43999D01*
X91177Y-43999D01*
X91187Y-44004D01*
X91191Y-44009D01*
X91196Y-44018D01*
X91196Y-44042D01*
X91191Y-44052D01*
X91187Y-44056D01*
X91177Y-44061D01*
X91149Y-44061D01*
X91139Y-44056D01*
X91134Y-44052D01*
X90868Y-42989D02*
X90863Y-42993D01*
X90849Y-42998D01*
X90839Y-42998D01*
X90825Y-42993D01*
X90815Y-42984D01*
X90810Y-42974D01*
X90806Y-42955D01*
X90806Y-42941D01*
X90810Y-42922D01*
X90815Y-42912D01*
X90825Y-42903D01*
X90839Y-42898D01*
X90849Y-42898D01*
X90863Y-42903D01*
X90868Y-42908D01*
X90930Y-42898D02*
X90949Y-42898D01*
X90958Y-42903D01*
X90968Y-42912D01*
X90972Y-42931D01*
X90972Y-42965D01*
X90968Y-42984D01*
X90958Y-42993D01*
X90949Y-42998D01*
X90930Y-42998D01*
X90920Y-42993D01*
X90910Y-42984D01*
X90906Y-42965D01*
X90906Y-42931D01*
X90910Y-42912D01*
X90920Y-42903D01*
X90930Y-42898D01*
X91015Y-42998D02*
X91015Y-42898D01*
X91072Y-42998D01*
X91072Y-42898D01*
X91120Y-42998D02*
X91120Y-42898D01*
X91177Y-42998D01*
X91177Y-42898D01*
X91201Y-43008D02*
X91277Y-43008D01*
X91353Y-42998D02*
X91296Y-42998D01*
X91325Y-42998D02*
X91325Y-42898D01*
X91315Y-42912D01*
X91306Y-42922D01*
X91296Y-42927D01*
G54D10*
M02*
